G04 #@! TF.GenerationSoftware,KiCad,Pcbnew,8.0.7*
G04 #@! TF.CreationDate,2025-03-21T14:13:05-04:00*
G04 #@! TF.ProjectId,TRS2-Voice,54525332-2d56-46f6-9963-652e6b696361,rev?*
G04 #@! TF.SameCoordinates,Original*
G04 #@! TF.FileFunction,Paste,Top*
G04 #@! TF.FilePolarity,Positive*
%FSLAX46Y46*%
G04 Gerber Fmt 4.6, Leading zero omitted, Abs format (unit mm)*
G04 Created by KiCad (PCBNEW 8.0.7) date 2025-03-21 14:13:05*
%MOMM*%
%LPD*%
G01*
G04 APERTURE LIST*
G04 Aperture macros list*
%AMRoundRect*
0 Rectangle with rounded corners*
0 $1 Rounding radius*
0 $2 $3 $4 $5 $6 $7 $8 $9 X,Y pos of 4 corners*
0 Add a 4 corners polygon primitive as box body*
4,1,4,$2,$3,$4,$5,$6,$7,$8,$9,$2,$3,0*
0 Add four circle primitives for the rounded corners*
1,1,$1+$1,$2,$3*
1,1,$1+$1,$4,$5*
1,1,$1+$1,$6,$7*
1,1,$1+$1,$8,$9*
0 Add four rect primitives between the rounded corners*
20,1,$1+$1,$2,$3,$4,$5,0*
20,1,$1+$1,$4,$5,$6,$7,0*
20,1,$1+$1,$6,$7,$8,$9,0*
20,1,$1+$1,$8,$9,$2,$3,0*%
G04 Aperture macros list end*
%ADD10RoundRect,0.100000X-0.637500X-0.100000X0.637500X-0.100000X0.637500X0.100000X-0.637500X0.100000X0*%
%ADD11R,3.200000X1.600000*%
%ADD12RoundRect,0.400000X-1.200000X-0.400000X1.200000X-0.400000X1.200000X0.400000X-1.200000X0.400000X0*%
G04 APERTURE END LIST*
D10*
X107235000Y-54145000D03*
X107235000Y-54795000D03*
X107235000Y-55445000D03*
X107235000Y-56095000D03*
X107235000Y-56745000D03*
X107235000Y-57395000D03*
X107235000Y-58045000D03*
X107235000Y-58695000D03*
X107235000Y-59345000D03*
X107235000Y-59995000D03*
X112960000Y-59995000D03*
X112960000Y-59345000D03*
X112960000Y-58695000D03*
X112960000Y-58045000D03*
X112960000Y-57395000D03*
X112960000Y-56745000D03*
X112960000Y-56095000D03*
X112960000Y-55445000D03*
X112960000Y-54795000D03*
X112960000Y-54145000D03*
X107267500Y-68785000D03*
X107267500Y-69435000D03*
X107267500Y-70085000D03*
X107267500Y-70735000D03*
X107267500Y-71385000D03*
X107267500Y-72035000D03*
X107267500Y-72685000D03*
X107267500Y-73335000D03*
X107267500Y-73985000D03*
X107267500Y-74635000D03*
X112992500Y-74635000D03*
X112992500Y-73985000D03*
X112992500Y-73335000D03*
X112992500Y-72685000D03*
X112992500Y-72035000D03*
X112992500Y-71385000D03*
X112992500Y-70735000D03*
X112992500Y-70085000D03*
X112992500Y-69435000D03*
X112992500Y-68785000D03*
D11*
X76130000Y-35990000D03*
D12*
X76130000Y-38530000D03*
X76130000Y-41070000D03*
X76130000Y-43610000D03*
X76130000Y-46150000D03*
X76130000Y-48690000D03*
X76130000Y-51230000D03*
X76130000Y-53770000D03*
X76130000Y-56310000D03*
X76130000Y-58850000D03*
X76130000Y-61390000D03*
X76130000Y-63930000D03*
X76130000Y-66470000D03*
X76130000Y-69010000D03*
X76130000Y-71550000D03*
X76130000Y-74090000D03*
X76130000Y-76630000D03*
X76130000Y-79170000D03*
X76130000Y-81710000D03*
X76130000Y-84250000D03*
X98130000Y-84250000D03*
X98130000Y-81710000D03*
X98130000Y-79170000D03*
X98130000Y-76630000D03*
X98130000Y-74090000D03*
X98130000Y-71550000D03*
X98130000Y-69010000D03*
X98130000Y-66470000D03*
X98130000Y-63930000D03*
X98130000Y-61390000D03*
X98130000Y-58850000D03*
X98130000Y-56310000D03*
X98130000Y-53770000D03*
X98130000Y-51230000D03*
X98130000Y-48690000D03*
X98130000Y-46150000D03*
X98130000Y-43610000D03*
X98130000Y-41070000D03*
X98130000Y-38530000D03*
X98130000Y-35990000D03*
M02*
