G04 #@! TF.GenerationSoftware,KiCad,Pcbnew,8.0.7*
G04 #@! TF.CreationDate,2025-03-21T14:13:05-04:00*
G04 #@! TF.ProjectId,TRS2-Voice,54525332-2d56-46f6-9963-652e6b696361,rev?*
G04 #@! TF.SameCoordinates,Original*
G04 #@! TF.FileFunction,Soldermask,Bot*
G04 #@! TF.FilePolarity,Negative*
%FSLAX46Y46*%
G04 Gerber Fmt 4.6, Leading zero omitted, Abs format (unit mm)*
G04 Created by KiCad (PCBNEW 8.0.7) date 2025-03-21 14:13:05*
%MOMM*%
%LPD*%
G01*
G04 APERTURE LIST*
%ADD10R,1.700000X1.700000*%
%ADD11O,1.700000X1.700000*%
%ADD12C,1.600000*%
%ADD13O,1.600000X1.600000*%
%ADD14R,1.600000X1.600000*%
%ADD15C,2.340000*%
%ADD16C,2.000000*%
%ADD17R,1.800000X1.800000*%
%ADD18C,1.800000*%
G04 APERTURE END LIST*
D10*
X159590000Y-48020000D03*
D11*
X159590000Y-50560000D03*
X159590000Y-53100000D03*
X159590000Y-55640000D03*
X159590000Y-58180000D03*
X159590000Y-60720000D03*
X159590000Y-63260000D03*
X159590000Y-65800000D03*
X159590000Y-68340000D03*
X159590000Y-70880000D03*
X159590000Y-73420000D03*
X159590000Y-75960000D03*
D12*
X143930000Y-90460000D03*
D13*
X143930000Y-98080000D03*
D12*
X112522000Y-66932000D03*
X112522000Y-61932000D03*
D14*
X138631200Y-68131200D03*
D12*
X138631200Y-65631200D03*
X105600000Y-91746400D03*
X105600000Y-96746400D03*
X115600000Y-98056400D03*
D13*
X115600000Y-90436400D03*
D12*
X121000000Y-101750000D03*
D13*
X128620000Y-101750000D03*
D12*
X151761200Y-71831200D03*
X146761200Y-71831200D03*
X107848400Y-66929000D03*
X107848400Y-61929000D03*
X134821200Y-74831200D03*
D13*
X142441200Y-74831200D03*
D12*
X131590000Y-101750000D03*
D13*
X139210000Y-101750000D03*
D10*
X108620000Y-46790000D03*
D11*
X111160000Y-46790000D03*
X113700000Y-46790000D03*
X116240000Y-46790000D03*
X118780000Y-46790000D03*
X121320000Y-46790000D03*
X123860000Y-46790000D03*
X126400000Y-46790000D03*
X128940000Y-46790000D03*
X131480000Y-46790000D03*
D14*
X70121500Y-68195000D03*
D13*
X70121500Y-65655000D03*
X70121500Y-63115000D03*
X70121500Y-60575000D03*
X70121500Y-58035000D03*
X70121500Y-55495000D03*
X70121500Y-52955000D03*
X70121500Y-50415000D03*
X70121500Y-47875000D03*
X70121500Y-45335000D03*
X70121500Y-42795000D03*
D14*
X120152000Y-54515000D03*
D13*
X120152000Y-57055000D03*
X120152000Y-59595000D03*
X120152000Y-62135000D03*
X120152000Y-64675000D03*
X120152000Y-67215000D03*
X120152000Y-69755000D03*
X120152000Y-72295000D03*
X120152000Y-74835000D03*
X120152000Y-77375000D03*
X127772000Y-77375000D03*
X127772000Y-74835000D03*
X127772000Y-72295000D03*
X127772000Y-69755000D03*
X127772000Y-67215000D03*
X127772000Y-64675000D03*
X127772000Y-62135000D03*
X127772000Y-59595000D03*
X127772000Y-57055000D03*
X127772000Y-54515000D03*
D12*
X138890000Y-98080000D03*
D13*
X138890000Y-90460000D03*
D12*
X136131200Y-71831200D03*
X141131200Y-71831200D03*
X127177200Y-86778800D03*
X132177200Y-86778800D03*
D15*
X161552400Y-100605600D03*
X159052400Y-90605600D03*
X156552400Y-100605600D03*
D12*
X110600000Y-101190000D03*
X115600000Y-101190000D03*
X132900000Y-104850000D03*
X137900000Y-104850000D03*
D16*
X58040000Y-93340000D03*
X64540000Y-93340000D03*
X58040000Y-97840000D03*
X64540000Y-97840000D03*
D17*
X138631200Y-81371200D03*
D18*
X138631200Y-78831200D03*
D14*
X115300000Y-78100000D03*
D13*
X112760000Y-78100000D03*
X110220000Y-78100000D03*
X107680000Y-78100000D03*
X105140000Y-78100000D03*
D12*
X145451200Y-74831200D03*
D13*
X153071200Y-74831200D03*
D12*
X131390000Y-52100000D03*
X136390000Y-52100000D03*
D17*
X149261200Y-81371200D03*
D18*
X149261200Y-78831200D03*
D12*
X110596400Y-90440000D03*
D13*
X110596400Y-98060000D03*
D14*
X65157500Y-60560000D03*
D13*
X65157500Y-58020000D03*
X65157500Y-55480000D03*
X65157500Y-52940000D03*
X65157500Y-50400000D03*
X65157500Y-47860000D03*
X65157500Y-45320000D03*
X65157500Y-42780000D03*
X57537500Y-42780000D03*
X57537500Y-45320000D03*
X57537500Y-47860000D03*
X57537500Y-50400000D03*
X57537500Y-52940000D03*
X57537500Y-55480000D03*
X57537500Y-58020000D03*
X57537500Y-60560000D03*
D12*
X133960000Y-90460000D03*
D13*
X133960000Y-98080000D03*
D14*
X120920000Y-90430000D03*
D13*
X120920000Y-92970000D03*
X120920000Y-95510000D03*
X120920000Y-98050000D03*
X128540000Y-98050000D03*
X128540000Y-95510000D03*
X128540000Y-92970000D03*
X128540000Y-90430000D03*
D14*
X149261200Y-68131200D03*
D12*
X149261200Y-65631200D03*
X123013200Y-86778800D03*
X118013200Y-86778800D03*
D16*
X58050000Y-80970000D03*
X64550000Y-80970000D03*
X58050000Y-85470000D03*
X64550000Y-85470000D03*
M02*
