M48
METRIC,TZ
T1C0.400
T2C0.800
T3C0.900
T4C1.000
T5C1.100
T6C1.300
%
G90
G05
T1
X78900Y-66470
X78900Y-79170
X79480Y-59760
X95100Y-84250
X95340Y-66460
X95340Y-74210
X95350Y-43800
X95360Y-53770
X104140Y-67691
X107188Y-75565
X129290Y-58290
T2
X57538Y-42780
X57538Y-45320
X57538Y-47860
X57538Y-50400
X57538Y-52940
X57538Y-55480
X57538Y-58020
X57538Y-60560
X65158Y-42780
X65158Y-45320
X65158Y-47860
X65158Y-50400
X65158Y-52940
X65158Y-55480
X65158Y-58020
X65158Y-60560
X70122Y-42795
X70122Y-45335
X70122Y-47875
X70122Y-50415
X70122Y-52955
X70122Y-55495
X70122Y-58035
X70122Y-60575
X70122Y-63115
X70122Y-65655
X70122Y-68195
X105140Y-78100
X105600Y-91746
X105600Y-96746
X107680Y-78100
X107848Y-61929
X107848Y-66929
X110220Y-78100
X110596Y-90440
X110596Y-98060
X110600Y-101190
X112522Y-61932
X112522Y-66932
X112760Y-78100
X115300Y-78100
X115600Y-90436
X115600Y-98056
X115600Y-101190
X118013Y-86779
X120152Y-54515
X120152Y-57055
X120152Y-59595
X120152Y-62135
X120152Y-64675
X120152Y-67215
X120152Y-69755
X120152Y-72295
X120152Y-74835
X120152Y-77375
X120920Y-90430
X120920Y-92970
X120920Y-95510
X120920Y-98050
X121000Y-101750
X123013Y-86779
X127177Y-86779
X127772Y-54515
X127772Y-57055
X127772Y-59595
X127772Y-62135
X127772Y-64675
X127772Y-67215
X127772Y-69755
X127772Y-72295
X127772Y-74835
X127772Y-77375
X128540Y-90430
X128540Y-92970
X128540Y-95510
X128540Y-98050
X128620Y-101750
X131390Y-52100
X131590Y-101750
X132177Y-86779
X132900Y-104850
X133960Y-90460
X133960Y-98080
X134821Y-74831
X136131Y-71831
X136390Y-52100
X137900Y-104850
X138631Y-65631
X138631Y-68131
X138890Y-90460
X138890Y-98080
X139210Y-101750
X141131Y-71831
X142441Y-74831
X143930Y-90460
X143930Y-98080
X145451Y-74831
X146761Y-71831
X149261Y-65631
X149261Y-68131
X151761Y-71831
X153071Y-74831
T3
X138631Y-78831
X138631Y-81371
X149261Y-78831
X149261Y-81371
T4
X108620Y-46790
X111160Y-46790
X113700Y-46790
X116240Y-46790
X118780Y-46790
X121320Y-46790
X123860Y-46790
X126400Y-46790
X128940Y-46790
X131480Y-46790
X159590Y-48020
X159590Y-50560
X159590Y-53100
X159590Y-55640
X159590Y-58180
X159590Y-60720
X159590Y-63260
X159590Y-65800
X159590Y-68340
X159590Y-70880
X159590Y-73420
X159590Y-75960
T5
X58040Y-93340
X58040Y-97840
X58050Y-80970
X58050Y-85470
X64540Y-93340
X64540Y-97840
X64550Y-80970
X64550Y-85470
T6
X156552Y-100606
X159052Y-90606
X161552Y-100606
M30
