G04 #@! TF.GenerationSoftware,KiCad,Pcbnew,8.0.7*
G04 #@! TF.CreationDate,2025-03-21T14:13:05-04:00*
G04 #@! TF.ProjectId,TRS2-Voice,54525332-2d56-46f6-9963-652e6b696361,rev?*
G04 #@! TF.SameCoordinates,Original*
G04 #@! TF.FileFunction,Copper,L2,Bot*
G04 #@! TF.FilePolarity,Positive*
%FSLAX46Y46*%
G04 Gerber Fmt 4.6, Leading zero omitted, Abs format (unit mm)*
G04 Created by KiCad (PCBNEW 8.0.7) date 2025-03-21 14:13:05*
%MOMM*%
%LPD*%
G01*
G04 APERTURE LIST*
%ADD10C,0.600000*%
G04 #@! TA.AperFunction,NonConductor*
%ADD11C,0.600000*%
G04 #@! TD*
G04 #@! TA.AperFunction,ComponentPad*
%ADD12R,1.700000X1.700000*%
G04 #@! TD*
G04 #@! TA.AperFunction,ComponentPad*
%ADD13O,1.700000X1.700000*%
G04 #@! TD*
G04 #@! TA.AperFunction,ComponentPad*
%ADD14C,1.600000*%
G04 #@! TD*
G04 #@! TA.AperFunction,ComponentPad*
%ADD15O,1.600000X1.600000*%
G04 #@! TD*
G04 #@! TA.AperFunction,ComponentPad*
%ADD16R,1.600000X1.600000*%
G04 #@! TD*
G04 #@! TA.AperFunction,ComponentPad*
%ADD17C,2.340000*%
G04 #@! TD*
G04 #@! TA.AperFunction,ComponentPad*
%ADD18C,2.000000*%
G04 #@! TD*
G04 #@! TA.AperFunction,ComponentPad*
%ADD19R,1.800000X1.800000*%
G04 #@! TD*
G04 #@! TA.AperFunction,ComponentPad*
%ADD20C,1.800000*%
G04 #@! TD*
G04 #@! TA.AperFunction,ViaPad*
%ADD21C,0.800000*%
G04 #@! TD*
G04 #@! TA.AperFunction,Conductor*
%ADD22C,1.000000*%
G04 #@! TD*
G04 #@! TA.AperFunction,Conductor*
%ADD23C,0.250000*%
G04 #@! TD*
G04 #@! TA.AperFunction,Conductor*
%ADD24C,0.400000*%
G04 #@! TD*
G04 APERTURE END LIST*
D10*
D11*
X150059828Y-35821657D02*
X149774114Y-35821657D01*
X149774114Y-35821657D02*
X149488400Y-35964514D01*
X149488400Y-35964514D02*
X149345543Y-36107371D01*
X149345543Y-36107371D02*
X149202685Y-36393085D01*
X149202685Y-36393085D02*
X149059828Y-36964514D01*
X149059828Y-36964514D02*
X149059828Y-37678800D01*
X149059828Y-37678800D02*
X149202685Y-38250228D01*
X149202685Y-38250228D02*
X149345543Y-38535942D01*
X149345543Y-38535942D02*
X149488400Y-38678800D01*
X149488400Y-38678800D02*
X149774114Y-38821657D01*
X149774114Y-38821657D02*
X150059828Y-38821657D01*
X150059828Y-38821657D02*
X150345543Y-38678800D01*
X150345543Y-38678800D02*
X150488400Y-38535942D01*
X150488400Y-38535942D02*
X150631257Y-38250228D01*
X150631257Y-38250228D02*
X150774114Y-37678800D01*
X150774114Y-37678800D02*
X150774114Y-36964514D01*
X150774114Y-36964514D02*
X150631257Y-36393085D01*
X150631257Y-36393085D02*
X150488400Y-36107371D01*
X150488400Y-36107371D02*
X150345543Y-35964514D01*
X150345543Y-35964514D02*
X150059828Y-35821657D01*
X148059828Y-35821657D02*
X146059828Y-35821657D01*
X146059828Y-35821657D02*
X147345542Y-38821657D01*
D12*
X159590000Y-48020000D03*
D13*
X159590000Y-50560000D03*
X159590000Y-53100000D03*
X159590000Y-55640000D03*
X159590000Y-58180000D03*
X159590000Y-60720000D03*
X159590000Y-63260000D03*
X159590000Y-65800000D03*
X159590000Y-68340000D03*
X159590000Y-70880000D03*
X159590000Y-73420000D03*
X159590000Y-75960000D03*
D14*
X143930000Y-90460000D03*
D15*
X143930000Y-98080000D03*
D14*
X112522000Y-66932000D03*
X112522000Y-61932000D03*
D16*
X138631200Y-68131200D03*
D14*
X138631200Y-65631200D03*
X105600000Y-91746400D03*
X105600000Y-96746400D03*
X115600000Y-98056400D03*
D15*
X115600000Y-90436400D03*
D14*
X121000000Y-101750000D03*
D15*
X128620000Y-101750000D03*
D14*
X151761200Y-71831200D03*
X146761200Y-71831200D03*
X107848400Y-66929000D03*
X107848400Y-61929000D03*
X134821200Y-74831200D03*
D15*
X142441200Y-74831200D03*
D14*
X131590000Y-101750000D03*
D15*
X139210000Y-101750000D03*
D12*
X108620000Y-46790000D03*
D13*
X111160000Y-46790000D03*
X113700000Y-46790000D03*
X116240000Y-46790000D03*
X118780000Y-46790000D03*
X121320000Y-46790000D03*
X123860000Y-46790000D03*
X126400000Y-46790000D03*
X128940000Y-46790000D03*
X131480000Y-46790000D03*
D16*
X70121500Y-68195000D03*
D15*
X70121500Y-65655000D03*
X70121500Y-63115000D03*
X70121500Y-60575000D03*
X70121500Y-58035000D03*
X70121500Y-55495000D03*
X70121500Y-52955000D03*
X70121500Y-50415000D03*
X70121500Y-47875000D03*
X70121500Y-45335000D03*
X70121500Y-42795000D03*
D16*
X120152000Y-54515000D03*
D15*
X120152000Y-57055000D03*
X120152000Y-59595000D03*
X120152000Y-62135000D03*
X120152000Y-64675000D03*
X120152000Y-67215000D03*
X120152000Y-69755000D03*
X120152000Y-72295000D03*
X120152000Y-74835000D03*
X120152000Y-77375000D03*
X127772000Y-77375000D03*
X127772000Y-74835000D03*
X127772000Y-72295000D03*
X127772000Y-69755000D03*
X127772000Y-67215000D03*
X127772000Y-64675000D03*
X127772000Y-62135000D03*
X127772000Y-59595000D03*
X127772000Y-57055000D03*
X127772000Y-54515000D03*
D14*
X138890000Y-98080000D03*
D15*
X138890000Y-90460000D03*
D14*
X136131200Y-71831200D03*
X141131200Y-71831200D03*
X127177200Y-86778800D03*
X132177200Y-86778800D03*
D17*
X161552400Y-100605600D03*
X159052400Y-90605600D03*
X156552400Y-100605600D03*
D14*
X110600000Y-101190000D03*
X115600000Y-101190000D03*
X132900000Y-104850000D03*
X137900000Y-104850000D03*
D18*
X58040000Y-93340000D03*
X64540000Y-93340000D03*
X58040000Y-97840000D03*
X64540000Y-97840000D03*
D19*
X138631200Y-81371200D03*
D20*
X138631200Y-78831200D03*
D16*
X115300000Y-78100000D03*
D15*
X112760000Y-78100000D03*
X110220000Y-78100000D03*
X107680000Y-78100000D03*
X105140000Y-78100000D03*
D14*
X145451200Y-74831200D03*
D15*
X153071200Y-74831200D03*
D14*
X131390000Y-52100000D03*
X136390000Y-52100000D03*
D19*
X149261200Y-81371200D03*
D20*
X149261200Y-78831200D03*
D14*
X110596400Y-90440000D03*
D15*
X110596400Y-98060000D03*
D16*
X65157500Y-60560000D03*
D15*
X65157500Y-58020000D03*
X65157500Y-55480000D03*
X65157500Y-52940000D03*
X65157500Y-50400000D03*
X65157500Y-47860000D03*
X65157500Y-45320000D03*
X65157500Y-42780000D03*
X57537500Y-42780000D03*
X57537500Y-45320000D03*
X57537500Y-47860000D03*
X57537500Y-50400000D03*
X57537500Y-52940000D03*
X57537500Y-55480000D03*
X57537500Y-58020000D03*
X57537500Y-60560000D03*
D14*
X133960000Y-90460000D03*
D15*
X133960000Y-98080000D03*
D16*
X120920000Y-90430000D03*
D15*
X120920000Y-92970000D03*
X120920000Y-95510000D03*
X120920000Y-98050000D03*
X128540000Y-98050000D03*
X128540000Y-95510000D03*
X128540000Y-92970000D03*
X128540000Y-90430000D03*
D16*
X149261200Y-68131200D03*
D14*
X149261200Y-65631200D03*
X123013200Y-86778800D03*
X118013200Y-86778800D03*
D18*
X58050000Y-80970000D03*
X64550000Y-80970000D03*
X58050000Y-85470000D03*
X64550000Y-85470000D03*
D21*
X95350000Y-43800000D03*
X78900000Y-79170000D03*
X95340000Y-74210000D03*
X95340000Y-66460000D03*
X95360000Y-53770000D03*
X78900000Y-66470000D03*
X95100000Y-84250000D03*
X129290000Y-58290000D03*
X104140000Y-67691000D03*
X107188000Y-75565000D03*
X79480000Y-59760000D03*
D22*
X149361200Y-65531200D02*
X149261200Y-65631200D01*
X133450000Y-83600000D02*
X126192000Y-83600000D01*
X135900000Y-86050000D02*
X133450000Y-83600000D01*
X126192000Y-83600000D02*
X123013200Y-86778800D01*
X140610000Y-86050000D02*
X135900000Y-86050000D01*
X149261200Y-81371200D02*
X145288800Y-81371200D01*
X145288800Y-81371200D02*
X140610000Y-86050000D01*
X124840000Y-57460000D02*
X124840000Y-53230000D01*
X138631200Y-65631200D02*
X138631200Y-54216200D01*
X95360000Y-43810000D02*
X95350000Y-43800000D01*
X122705000Y-59595000D02*
X124840000Y-57460000D01*
X138631200Y-54216200D02*
X136104000Y-51689000D01*
X120152000Y-59595000D02*
X122650000Y-59595000D01*
X95360000Y-53770000D02*
X95360000Y-49150000D01*
X127772000Y-62135000D02*
X127772000Y-59595000D01*
X124840000Y-52530000D02*
X128940000Y-48430000D01*
X113848000Y-61932000D02*
X116185000Y-59595000D01*
D23*
X112519000Y-61929000D02*
X112522000Y-61932000D01*
D22*
X107848400Y-61929000D02*
X112519000Y-61929000D01*
X78900000Y-66470000D02*
X78900000Y-79170000D01*
X122650000Y-59595000D02*
X122705000Y-59595000D01*
X130130000Y-49620000D02*
X128940000Y-48430000D01*
X128940000Y-48430000D02*
X128940000Y-46790000D01*
X95360000Y-49150000D02*
X95360000Y-43810000D01*
X95340000Y-66460000D02*
X95340000Y-74210000D01*
X136104000Y-51689000D02*
X134035000Y-49620000D01*
X123555000Y-54515000D02*
X124840000Y-53230000D01*
X120152000Y-54515000D02*
X123555000Y-54515000D01*
X112522000Y-61932000D02*
X113848000Y-61932000D01*
X124840000Y-53230000D02*
X124840000Y-52530000D01*
X120152000Y-59595000D02*
X116185000Y-59595000D01*
X134035000Y-49620000D02*
X130130000Y-49620000D01*
X122650000Y-59595000D02*
X127772000Y-59595000D01*
D24*
X95100000Y-92050000D02*
X99796400Y-96746400D01*
X99796400Y-96746400D02*
X105600000Y-96746400D01*
X95100000Y-84250000D02*
X95100000Y-92050000D01*
X108680000Y-90440000D02*
X110596400Y-90440000D01*
X105600000Y-91746400D02*
X107373600Y-91746400D01*
X107373600Y-91746400D02*
X108680000Y-90440000D01*
X110596400Y-98060000D02*
X110596400Y-101186400D01*
X118570000Y-92970000D02*
X115600000Y-95940000D01*
X120920000Y-92970000D02*
X118570000Y-92970000D01*
X115600000Y-95940000D02*
X115600000Y-98056400D01*
X110596400Y-98060000D02*
X115596400Y-98060000D01*
X161304000Y-68340000D02*
X159590000Y-68340000D01*
X163550600Y-70586600D02*
X161304000Y-68340000D01*
X163550600Y-84201000D02*
X163550600Y-70586600D01*
X159052400Y-88699200D02*
X163550600Y-84201000D01*
X159052400Y-90605600D02*
X159052400Y-88699200D01*
D23*
X129290000Y-75595000D02*
X129290000Y-74600000D01*
X127510000Y-77375000D02*
X129290000Y-75595000D01*
X129290000Y-58290000D02*
X129290000Y-74600000D01*
D24*
X138890000Y-98080000D02*
X133960000Y-98080000D01*
X128540000Y-95510000D02*
X131390000Y-95510000D01*
X131390000Y-95510000D02*
X133960000Y-98080000D01*
D23*
X128540000Y-101670000D02*
X128620000Y-101750000D01*
D24*
X128620000Y-101750000D02*
X131590000Y-101750000D01*
X131590000Y-103540000D02*
X132900000Y-104850000D01*
X128540000Y-98050000D02*
X128540000Y-101670000D01*
X131590000Y-101750000D02*
X131590000Y-103540000D01*
D23*
X104140000Y-72517000D02*
X107188000Y-75565000D01*
X104140000Y-67691000D02*
X104140000Y-72517000D01*
X65121700Y-50415000D02*
X65106700Y-50400000D01*
X65121700Y-55495000D02*
X65106700Y-55480000D01*
X70106500Y-45320000D02*
X70121500Y-45335000D01*
X65121700Y-42795000D02*
X65106700Y-42780000D01*
X70106500Y-52940000D02*
X70121500Y-52955000D01*
D24*
X79480000Y-59760000D02*
X71045000Y-68195000D01*
X71045000Y-68195000D02*
X70121500Y-68195000D01*
D22*
X107986200Y-66929000D02*
X107975400Y-66939800D01*
D23*
X65121700Y-60575000D02*
X65106700Y-60560000D01*
X70106500Y-58020000D02*
X70121500Y-58035000D01*
X70106500Y-47860000D02*
X70121500Y-47875000D01*
D24*
X133960000Y-90460000D02*
X131640000Y-90460000D01*
X131640000Y-90460000D02*
X130400000Y-91700000D01*
X115600000Y-90436400D02*
X120913600Y-90436400D01*
X123990000Y-90430000D02*
X120920000Y-90430000D01*
X125260000Y-91700000D02*
X123990000Y-90430000D01*
X130400000Y-91700000D02*
X125260000Y-91700000D01*
X128540000Y-92970000D02*
X136380000Y-92970000D01*
X136380000Y-92970000D02*
X138890000Y-90460000D01*
X143930000Y-90460000D02*
X138890000Y-90460000D01*
X148530000Y-98080000D02*
X143930000Y-98080000D01*
X156552400Y-100605600D02*
X151055600Y-100605600D01*
X151055600Y-100605600D02*
X148530000Y-98080000D01*
M02*
