%TF.GenerationSoftware,KiCad,Pcbnew,8.0.7*%
%TF.CreationDate,2025-03-21T14:51:30-04:00*%
%TF.ProjectId,TRS2-Voice-Tester,54525332-2d56-46f6-9963-652d54657374,rev?*%
%TF.SameCoordinates,Original*%
%TF.FileFunction,Soldermask,Bot*%
%TF.FilePolarity,Negative*%
%FSLAX46Y46*%
G04 Gerber Fmt 4.6, Leading zero omitted, Abs format (unit mm)*
G04 Created by KiCad (PCBNEW 8.0.7) date 2025-03-21 14:51:30*
%MOMM*%
%LPD*%
G01*
G04 APERTURE LIST*
%ADD10C,1.600000*%
%ADD11O,1.600000X1.600000*%
%ADD12R,1.600000X1.600000*%
%ADD13C,2.000000*%
%ADD14C,2.400000*%
%ADD15O,2.400000X2.400000*%
%ADD16R,1.700000X1.700000*%
%ADD17O,1.700000X1.700000*%
%ADD18R,11.300000X6.500000*%
%ADD19R,11.300000X2.540000*%
%ADD20R,2.000000X2.000000*%
%ADD21C,2.340000*%
%ADD22R,1.800000X1.800000*%
%ADD23C,1.800000*%
G04 APERTURE END LIST*
D10*
%TO.C,R1*%
X129460000Y-102040000D03*
D11*
X137080000Y-102040000D03*
%TD*%
D12*
%TO.C,U1*%
X116380000Y-125395000D03*
D11*
X116380000Y-127935000D03*
X116380000Y-130475000D03*
X116380000Y-133015000D03*
X116380000Y-135555000D03*
X116380000Y-138095000D03*
X116380000Y-140635000D03*
X124000000Y-140635000D03*
X124000000Y-138095000D03*
X124000000Y-135555000D03*
X124000000Y-133015000D03*
X124000000Y-130475000D03*
X124000000Y-127935000D03*
X124000000Y-125395000D03*
%TD*%
D13*
%TO.C,SW1*%
X136590000Y-97030000D03*
X130090000Y-97030000D03*
X136590000Y-92530000D03*
X130090000Y-92530000D03*
%TD*%
D10*
%TO.C,R2*%
X123990000Y-145590000D03*
D11*
X116370000Y-145590000D03*
%TD*%
D10*
%TO.C,R3*%
X142370000Y-135600000D03*
D11*
X142370000Y-127980000D03*
%TD*%
D14*
%TO.C,R5*%
X108590000Y-48430000D03*
D15*
X108590000Y-104310000D03*
%TD*%
D16*
%TO.C,J1*%
X148980000Y-91530000D03*
D17*
X148980000Y-88990000D03*
X148980000Y-86450000D03*
X148980000Y-83910000D03*
X148980000Y-81370000D03*
X148980000Y-78830000D03*
X148980000Y-76290000D03*
X148980000Y-73750000D03*
X148980000Y-71210000D03*
X148980000Y-68670000D03*
X148980000Y-66130000D03*
X148980000Y-63590000D03*
%TD*%
D18*
%TO.C,J2*%
X94150000Y-48310000D03*
X94150000Y-56230000D03*
D19*
X94150000Y-62170000D03*
X94150000Y-66130000D03*
X94150000Y-74050000D03*
X94150000Y-78010000D03*
X94150000Y-81970000D03*
X94150000Y-85930000D03*
X94150000Y-89890000D03*
X94150000Y-93850000D03*
X94150000Y-97810000D03*
X94150000Y-101770000D03*
X94150000Y-105730000D03*
X94150000Y-109690000D03*
X94150000Y-113650000D03*
X94150000Y-117610000D03*
X94150000Y-121570000D03*
X94150000Y-125530000D03*
X94150000Y-129490000D03*
X94150000Y-133450000D03*
X94150000Y-137410000D03*
X94150000Y-141370000D03*
X94150000Y-145330000D03*
D18*
X94150000Y-151270000D03*
%TD*%
D20*
%TO.C,C3*%
X122850000Y-116565000D03*
D13*
X117850000Y-116565000D03*
%TD*%
D21*
%TO.C,RV1*%
X135710000Y-135620000D03*
X133210000Y-125620000D03*
X130710000Y-135620000D03*
%TD*%
D12*
%TO.C,RN1*%
X143630000Y-73750000D03*
D11*
X143630000Y-76290000D03*
X143630000Y-78830000D03*
X143630000Y-81370000D03*
X143630000Y-83910000D03*
X143630000Y-86450000D03*
X143630000Y-88990000D03*
X143630000Y-91530000D03*
%TD*%
D20*
%TO.C,C1*%
X108000000Y-141457677D03*
D13*
X108000000Y-136457677D03*
%TD*%
D10*
%TO.C,C4*%
X133260000Y-117600000D03*
X128260000Y-117600000D03*
%TD*%
%TO.C,C6*%
X126490000Y-104600000D03*
X126490000Y-109600000D03*
%TD*%
D12*
%TO.C,SW2*%
X129572500Y-76265000D03*
D11*
X129572500Y-78805000D03*
X129572500Y-81345000D03*
X129572500Y-83885000D03*
X129572500Y-86425000D03*
X137192500Y-86425000D03*
X137192500Y-83885000D03*
X137192500Y-81345000D03*
X137192500Y-78805000D03*
X137192500Y-76265000D03*
%TD*%
D14*
%TO.C,R4*%
X119140000Y-48430000D03*
D15*
X119140000Y-104310000D03*
%TD*%
D22*
%TO.C,D1*%
X134180000Y-108480000D03*
D23*
X131640000Y-108480000D03*
%TD*%
D20*
%TO.C,C2*%
X108000000Y-125392323D03*
D13*
X108000000Y-130392323D03*
%TD*%
D10*
%TO.C,C5*%
X133220000Y-121280000D03*
X128220000Y-121280000D03*
%TD*%
M02*
