%TF.GenerationSoftware,KiCad,Pcbnew,8.0.7*%
%TF.CreationDate,2025-03-21T14:51:30-04:00*%
%TF.ProjectId,TRS2-Voice-Tester,54525332-2d56-46f6-9963-652d54657374,rev?*%
%TF.SameCoordinates,Original*%
%TF.FileFunction,Copper,L2,Bot*%
%TF.FilePolarity,Positive*%
%FSLAX46Y46*%
G04 Gerber Fmt 4.6, Leading zero omitted, Abs format (unit mm)*
G04 Created by KiCad (PCBNEW 8.0.7) date 2025-03-21 14:51:30*
%MOMM*%
%LPD*%
G01*
G04 APERTURE LIST*
%TA.AperFunction,ComponentPad*%
%ADD10C,1.600000*%
%TD*%
%TA.AperFunction,ComponentPad*%
%ADD11O,1.600000X1.600000*%
%TD*%
%TA.AperFunction,ComponentPad*%
%ADD12R,1.600000X1.600000*%
%TD*%
%TA.AperFunction,ComponentPad*%
%ADD13C,2.000000*%
%TD*%
%TA.AperFunction,ComponentPad*%
%ADD14C,2.400000*%
%TD*%
%TA.AperFunction,ComponentPad*%
%ADD15O,2.400000X2.400000*%
%TD*%
%TA.AperFunction,ComponentPad*%
%ADD16R,1.700000X1.700000*%
%TD*%
%TA.AperFunction,ComponentPad*%
%ADD17O,1.700000X1.700000*%
%TD*%
%TA.AperFunction,SMDPad,CuDef*%
%ADD18R,12.000000X6.500000*%
%TD*%
%TA.AperFunction,SMDPad,CuDef*%
%ADD19R,12.000000X2.540000*%
%TD*%
%TA.AperFunction,ComponentPad*%
%ADD20R,2.000000X2.000000*%
%TD*%
%TA.AperFunction,ComponentPad*%
%ADD21C,2.340000*%
%TD*%
%TA.AperFunction,ComponentPad*%
%ADD22R,1.800000X1.800000*%
%TD*%
%TA.AperFunction,ComponentPad*%
%ADD23C,1.800000*%
%TD*%
%TA.AperFunction,ViaPad*%
%ADD24C,0.800000*%
%TD*%
%TA.AperFunction,Conductor*%
%ADD25C,1.000000*%
%TD*%
%TA.AperFunction,Conductor*%
%ADD26C,6.500000*%
%TD*%
%TA.AperFunction,Conductor*%
%ADD27C,2.540000*%
%TD*%
%TA.AperFunction,Conductor*%
%ADD28C,1.700000*%
%TD*%
%TA.AperFunction,Conductor*%
%ADD29C,0.250000*%
%TD*%
%TA.AperFunction,Conductor*%
%ADD30C,3.000000*%
%TD*%
G04 APERTURE END LIST*
D10*
%TO.P,R1,1*%
%TO.N,Net-(D1-A)*%
X129460000Y-102040000D03*
D11*
%TO.P,R1,2*%
%TO.N,Net-(J1-Pin_1)*%
X137080000Y-102040000D03*
%TD*%
D12*
%TO.P,U1,1,BYPASS*%
%TO.N,Net-(U1-BYPASS)*%
X116380000Y-125395000D03*
D11*
%TO.P,U1,2,+*%
%TO.N,Net-(U1-+)*%
X116380000Y-127935000D03*
%TO.P,U1,3,GND*%
%TO.N,GND*%
X116380000Y-130475000D03*
%TO.P,U1,4,GND*%
X116380000Y-133015000D03*
%TO.P,U1,5,GND*%
X116380000Y-135555000D03*
%TO.P,U1,6,-*%
%TO.N,Net-(U1--)*%
X116380000Y-138095000D03*
%TO.P,U1,7,GND*%
%TO.N,GND*%
X116380000Y-140635000D03*
%TO.P,U1,8*%
%TO.N,Net-(C1-Pad1)*%
X124000000Y-140635000D03*
%TO.P,U1,9,NC*%
%TO.N,unconnected-(U1-NC-Pad9)*%
X124000000Y-138095000D03*
%TO.P,U1,10,GND*%
%TO.N,GND*%
X124000000Y-135555000D03*
%TO.P,U1,11,GND*%
X124000000Y-133015000D03*
%TO.P,U1,12,GND*%
X124000000Y-130475000D03*
%TO.P,U1,13,NC*%
%TO.N,unconnected-(U1-NC-Pad13)*%
X124000000Y-127935000D03*
%TO.P,U1,14,VS*%
%TO.N,+12V*%
X124000000Y-125395000D03*
%TD*%
D13*
%TO.P,SW1,1,1*%
%TO.N,GND*%
X136590000Y-97030000D03*
X130090000Y-97030000D03*
%TO.P,SW1,2,2*%
%TO.N,Net-(J1-Pin_2)*%
X136590000Y-92530000D03*
X130090000Y-92530000D03*
%TD*%
D10*
%TO.P,R2,1*%
%TO.N,Net-(U1--)*%
X123990000Y-145590000D03*
D11*
%TO.P,R2,2*%
%TO.N,GND*%
X116370000Y-145590000D03*
%TD*%
D10*
%TO.P,R3,1*%
%TO.N,Net-(R3-Pad1)*%
X142370000Y-135600000D03*
D11*
%TO.P,R3,2*%
%TO.N,Net-(J1-Pin_9)*%
X142370000Y-127980000D03*
%TD*%
D14*
%TO.P,R5,1*%
%TO.N,+5V*%
X108590000Y-48430000D03*
D15*
%TO.P,R5,2*%
%TO.N,GND*%
X108590000Y-104310000D03*
%TD*%
D16*
%TO.P,J1,1,Pin_1*%
%TO.N,Net-(J1-Pin_1)*%
X148980000Y-91530000D03*
D17*
%TO.P,J1,2,Pin_2*%
%TO.N,Net-(J1-Pin_2)*%
X148980000Y-88990000D03*
%TO.P,J1,3,Pin_3*%
%TO.N,Net-(J1-Pin_3)*%
X148980000Y-86450000D03*
%TO.P,J1,4,Pin_4*%
%TO.N,Net-(J1-Pin_4)*%
X148980000Y-83910000D03*
%TO.P,J1,5,Pin_5*%
%TO.N,Net-(J1-Pin_5)*%
X148980000Y-81370000D03*
%TO.P,J1,6,Pin_6*%
%TO.N,Net-(J1-Pin_6)*%
X148980000Y-78830000D03*
%TO.P,J1,7,Pin_7*%
%TO.N,Net-(J1-Pin_7)*%
X148980000Y-76290000D03*
%TO.P,J1,8,Pin_8*%
%TO.N,unconnected-(J1-Pin_8-Pad8)*%
X148980000Y-73750000D03*
%TO.P,J1,9,Pin_9*%
%TO.N,Net-(J1-Pin_9)*%
X148980000Y-71210000D03*
%TO.P,J1,10,Pin_10*%
%TO.N,+5V*%
X148980000Y-68670000D03*
%TO.P,J1,11,Pin_11*%
%TO.N,-5V*%
X148980000Y-66130000D03*
%TO.P,J1,12,Pin_12*%
%TO.N,GND*%
X148980000Y-63590000D03*
%TD*%
D18*
%TO.P,J2,30,Pin_30*%
%TO.N,unconnected-(J2-Pin_30-Pad30)*%
X94500000Y-151270000D03*
D19*
%TO.P,J2,31,Pin_31*%
%TO.N,unconnected-(J2-Pin_31-Pad31)*%
X94500000Y-145330000D03*
%TO.P,J2,32,Pin_32*%
%TO.N,unconnected-(J2-Pin_32-Pad32)*%
X94500000Y-141370000D03*
%TO.P,J2,33,Pin_33*%
%TO.N,unconnected-(J2-Pin_33-Pad33)*%
X94500000Y-137410000D03*
%TO.P,J2,34,Pin_34*%
%TO.N,unconnected-(J2-Pin_34-Pad34)*%
X94500000Y-133450000D03*
%TO.P,J2,35,Pin_35*%
%TO.N,unconnected-(J2-Pin_35-Pad35)*%
X94500000Y-129490000D03*
%TO.P,J2,36,Pin_36*%
%TO.N,unconnected-(J2-Pin_36-Pad36)*%
X94500000Y-125530000D03*
%TO.P,J2,37,Pin_37*%
%TO.N,unconnected-(J2-Pin_37-Pad37)*%
X94500000Y-121570000D03*
%TO.P,J2,38,Pin_38*%
%TO.N,unconnected-(J2-Pin_38-Pad38)*%
X94500000Y-117610000D03*
%TO.P,J2,39,Pin_39*%
%TO.N,unconnected-(J2-Pin_39-Pad39)*%
X94500000Y-113650000D03*
%TO.P,J2,40,Pin_40*%
%TO.N,unconnected-(J2-Pin_40-Pad40)*%
X94500000Y-109690000D03*
%TO.P,J2,41,Pin_41*%
%TO.N,unconnected-(J2-Pin_41-Pad41)*%
X94500000Y-105730000D03*
%TO.P,J2,42,Pin_42*%
%TO.N,unconnected-(J2-Pin_42-Pad42)*%
X94500000Y-101770000D03*
%TO.P,J2,43,Pin_43*%
%TO.N,unconnected-(J2-Pin_43-Pad43)*%
X94500000Y-97810000D03*
%TO.P,J2,44,Pin_44*%
%TO.N,unconnected-(J2-Pin_44-Pad44)*%
X94500000Y-93850000D03*
%TO.P,J2,45,Pin_45*%
%TO.N,unconnected-(J2-Pin_45-Pad45)*%
X94500000Y-89890000D03*
%TO.P,J2,46,Pin_46*%
%TO.N,unconnected-(J2-Pin_46-Pad46)*%
X94500000Y-85930000D03*
%TO.P,J2,47,Pin_47*%
%TO.N,GND*%
X94500000Y-81970000D03*
%TO.P,J2,48,Pin_48*%
%TO.N,unconnected-(J2-Pin_48-Pad48)*%
X94500000Y-78010000D03*
%TO.P,J2,49,Pin_49*%
%TO.N,unconnected-(J2-Pin_49-Pad49)*%
X94500000Y-74050000D03*
%TO.P,J2,51,Pin_51*%
%TO.N,+12V*%
X94500000Y-66130000D03*
%TO.P,J2,52,Pin_52*%
%TO.N,-5V*%
X94500000Y-62170000D03*
D18*
%TO.P,J2,53,Pin_53*%
%TO.N,+5V*%
X94500000Y-56230000D03*
%TO.P,J2,55,Pin_55*%
%TO.N,GND*%
X94500000Y-48310000D03*
%TD*%
D20*
%TO.P,C3,1*%
%TO.N,+12V*%
X122850000Y-116565000D03*
D13*
%TO.P,C3,2*%
%TO.N,GND*%
X117850000Y-116565000D03*
%TD*%
D21*
%TO.P,RV1,1,1*%
%TO.N,Net-(R3-Pad1)*%
X135710000Y-135620000D03*
%TO.P,RV1,2,2*%
%TO.N,Net-(C5-Pad1)*%
X133210000Y-125620000D03*
%TO.P,RV1,3,3*%
%TO.N,GND*%
X130710000Y-135620000D03*
%TD*%
D12*
%TO.P,RN1,1,common*%
%TO.N,+5V*%
X143630000Y-73750000D03*
D11*
%TO.P,RN1,2,R1*%
%TO.N,Net-(J1-Pin_7)*%
X143630000Y-76290000D03*
%TO.P,RN1,3,R2*%
%TO.N,Net-(J1-Pin_6)*%
X143630000Y-78830000D03*
%TO.P,RN1,4,R3*%
%TO.N,Net-(J1-Pin_5)*%
X143630000Y-81370000D03*
%TO.P,RN1,5,R4*%
%TO.N,Net-(J1-Pin_4)*%
X143630000Y-83910000D03*
%TO.P,RN1,6,R5*%
%TO.N,Net-(J1-Pin_3)*%
X143630000Y-86450000D03*
%TO.P,RN1,7,R6*%
%TO.N,Net-(J1-Pin_2)*%
X143630000Y-88990000D03*
%TO.P,RN1,8,R7*%
%TO.N,unconnected-(RN1-R7-Pad8)*%
X143630000Y-91530000D03*
%TD*%
D20*
%TO.P,C1,1*%
%TO.N,Net-(C1-Pad1)*%
X108000000Y-141457677D03*
D13*
%TO.P,C1,2*%
%TO.N,Net-(J2-Pin_10)*%
X108000000Y-136457677D03*
%TD*%
D10*
%TO.P,C4,1*%
%TO.N,GND*%
X133260000Y-117600000D03*
%TO.P,C4,2*%
%TO.N,Net-(U1-+)*%
X128260000Y-117600000D03*
%TD*%
%TO.P,C6,1*%
%TO.N,Net-(J1-Pin_2)*%
X126490000Y-104600000D03*
%TO.P,C6,2*%
%TO.N,GND*%
X126490000Y-109600000D03*
%TD*%
D12*
%TO.P,SW2,1*%
%TO.N,GND*%
X129572500Y-76265000D03*
D11*
%TO.P,SW2,2*%
X129572500Y-78805000D03*
%TO.P,SW2,3*%
X129572500Y-81345000D03*
%TO.P,SW2,4*%
X129572500Y-83885000D03*
%TO.P,SW2,5*%
X129572500Y-86425000D03*
%TO.P,SW2,6*%
%TO.N,Net-(J1-Pin_3)*%
X137192500Y-86425000D03*
%TO.P,SW2,7*%
%TO.N,Net-(J1-Pin_4)*%
X137192500Y-83885000D03*
%TO.P,SW2,8*%
%TO.N,Net-(J1-Pin_5)*%
X137192500Y-81345000D03*
%TO.P,SW2,9*%
%TO.N,Net-(J1-Pin_6)*%
X137192500Y-78805000D03*
%TO.P,SW2,10*%
%TO.N,Net-(J1-Pin_7)*%
X137192500Y-76265000D03*
%TD*%
D14*
%TO.P,R4,1*%
%TO.N,+5V*%
X119140000Y-48430000D03*
D15*
%TO.P,R4,2*%
%TO.N,GND*%
X119140000Y-104310000D03*
%TD*%
D22*
%TO.P,D1,1,K*%
%TO.N,GND*%
X134180000Y-108480000D03*
D23*
%TO.P,D1,2,A*%
%TO.N,Net-(D1-A)*%
X131640000Y-108480000D03*
%TD*%
D20*
%TO.P,C2,1*%
%TO.N,Net-(U1-BYPASS)*%
X108000000Y-125392323D03*
D13*
%TO.P,C2,2*%
%TO.N,GND*%
X108000000Y-130392323D03*
%TD*%
D10*
%TO.P,C5,1*%
%TO.N,Net-(C5-Pad1)*%
X133220000Y-121280000D03*
%TO.P,C5,2*%
%TO.N,Net-(U1-+)*%
X128220000Y-121280000D03*
%TD*%
D24*
%TO.N,GND*%
X103030000Y-48310000D03*
X103030000Y-49810000D03*
X103030000Y-46810000D03*
%TO.N,+12V*%
X101570000Y-66130000D03*
%TO.N,+5V*%
X101950000Y-55430000D03*
X101950000Y-57040000D03*
X101950000Y-56230000D03*
%TO.N,-5V*%
X136520000Y-65720000D03*
X136560000Y-71320000D03*
X136570000Y-72160000D03*
X136530000Y-66560000D03*
X101520000Y-62170000D03*
%TD*%
D25*
%TO.N,Net-(C1-Pad1)*%
X124000000Y-140635000D02*
X121615000Y-143020000D01*
X112437677Y-141457677D02*
X108000000Y-141457677D01*
X114000000Y-143020000D02*
X112437677Y-141457677D01*
X121615000Y-143020000D02*
X114000000Y-143020000D01*
D26*
%TO.N,GND*%
X94500000Y-48310000D02*
X103330000Y-48310000D01*
D27*
X94500000Y-81970000D02*
X104910000Y-81970000D01*
D28*
%TO.N,+12V*%
X124000000Y-125395000D02*
X124000000Y-121940000D01*
X122850000Y-120790000D02*
X122850000Y-116565000D01*
D27*
X94500000Y-66130000D02*
X101570000Y-66130000D01*
D28*
X124000000Y-121940000D02*
X122850000Y-120790000D01*
D29*
%TO.N,Net-(J1-Pin_9)*%
X142370000Y-127980000D02*
X142370000Y-99960000D01*
X140260000Y-97850000D02*
X140260000Y-72800000D01*
X142370000Y-99960000D02*
X140260000Y-97850000D01*
X140260000Y-72800000D02*
X141850000Y-71210000D01*
X141850000Y-71210000D02*
X148980000Y-71210000D01*
D30*
%TO.N,+5V*%
X94500000Y-56230000D02*
X101950000Y-56230000D01*
D27*
%TO.N,-5V*%
X94500000Y-62170000D02*
X101520000Y-62170000D01*
D29*
X136570000Y-65770000D02*
X136520000Y-65720000D01*
D28*
X136570000Y-72160000D02*
X136570000Y-65770000D01*
%TD*%
%TA.AperFunction,Conductor*%
%TO.N,GND*%
G36*
X123457242Y-136892589D02*
G01*
X123405867Y-136937105D01*
X123385597Y-136946558D01*
X123347264Y-136964433D01*
X123160858Y-137094954D01*
X122999954Y-137255858D01*
X122869432Y-137442265D01*
X122869431Y-137442267D01*
X122773261Y-137648502D01*
X122773258Y-137648511D01*
X122714366Y-137868302D01*
X122714364Y-137868313D01*
X122694532Y-138094998D01*
X122694532Y-138095001D01*
X122714364Y-138321686D01*
X122714366Y-138321697D01*
X122773258Y-138541488D01*
X122773261Y-138541497D01*
X122869431Y-138747732D01*
X122869432Y-138747734D01*
X122999954Y-138934141D01*
X123160858Y-139095045D01*
X123160861Y-139095047D01*
X123347266Y-139225568D01*
X123405275Y-139252618D01*
X123457714Y-139298791D01*
X123476866Y-139365984D01*
X123456650Y-139432865D01*
X123405275Y-139477382D01*
X123347267Y-139504431D01*
X123347265Y-139504432D01*
X123160858Y-139634954D01*
X122999954Y-139795858D01*
X122869432Y-139982265D01*
X122869431Y-139982267D01*
X122773261Y-140188502D01*
X122773258Y-140188511D01*
X122714365Y-140408307D01*
X122708958Y-140470095D01*
X122683504Y-140535163D01*
X122673111Y-140546966D01*
X121236899Y-141983181D01*
X121175576Y-142016666D01*
X121149218Y-142019500D01*
X117046321Y-142019500D01*
X116979282Y-141999815D01*
X116933527Y-141947011D01*
X116923583Y-141877853D01*
X116952608Y-141814297D01*
X116993916Y-141783118D01*
X117032482Y-141765134D01*
X117218820Y-141634657D01*
X117379657Y-141473820D01*
X117510134Y-141287482D01*
X117606265Y-141081326D01*
X117606269Y-141081317D01*
X117658872Y-140885000D01*
X116695686Y-140885000D01*
X116700080Y-140880606D01*
X116752741Y-140789394D01*
X116780000Y-140687661D01*
X116780000Y-140582339D01*
X116752741Y-140480606D01*
X116700080Y-140389394D01*
X116695686Y-140385000D01*
X117658872Y-140385000D01*
X117658872Y-140384999D01*
X117606269Y-140188682D01*
X117606265Y-140188673D01*
X117510134Y-139982517D01*
X117379657Y-139796179D01*
X117218820Y-139635342D01*
X117032482Y-139504865D01*
X116974133Y-139477657D01*
X116921694Y-139431484D01*
X116902542Y-139364291D01*
X116922758Y-139297410D01*
X116974129Y-139252895D01*
X117032734Y-139225568D01*
X117219139Y-139095047D01*
X117380047Y-138934139D01*
X117510568Y-138747734D01*
X117606739Y-138541496D01*
X117665635Y-138321692D01*
X117685468Y-138095000D01*
X117665635Y-137868308D01*
X117606739Y-137648504D01*
X117510568Y-137442266D01*
X117380047Y-137255861D01*
X117380045Y-137255858D01*
X117219141Y-137094954D01*
X117032734Y-136964432D01*
X117032732Y-136964431D01*
X116994403Y-136946558D01*
X116974132Y-136937105D01*
X116921694Y-136890934D01*
X116904326Y-136830000D01*
X123476159Y-136830000D01*
X123457242Y-136892589D01*
G37*
%TD.AperFunction*%
%TA.AperFunction,Conductor*%
G36*
X129822500Y-86109314D02*
G01*
X129818106Y-86104920D01*
X129726894Y-86052259D01*
X129625161Y-86025000D01*
X129519839Y-86025000D01*
X129418106Y-86052259D01*
X129326894Y-86104920D01*
X129322500Y-86109314D01*
X129322500Y-84200686D01*
X129326894Y-84205080D01*
X129418106Y-84257741D01*
X129519839Y-84285000D01*
X129625161Y-84285000D01*
X129726894Y-84257741D01*
X129818106Y-84205080D01*
X129822500Y-84200686D01*
X129822500Y-86109314D01*
G37*
%TD.AperFunction*%
%TA.AperFunction,Conductor*%
G36*
X129822500Y-83569314D02*
G01*
X129818106Y-83564920D01*
X129726894Y-83512259D01*
X129625161Y-83485000D01*
X129519839Y-83485000D01*
X129418106Y-83512259D01*
X129326894Y-83564920D01*
X129322500Y-83569314D01*
X129322500Y-81660686D01*
X129326894Y-81665080D01*
X129418106Y-81717741D01*
X129519839Y-81745000D01*
X129625161Y-81745000D01*
X129726894Y-81717741D01*
X129818106Y-81665080D01*
X129822500Y-81660686D01*
X129822500Y-83569314D01*
G37*
%TD.AperFunction*%
%TA.AperFunction,Conductor*%
G36*
X129822500Y-81029314D02*
G01*
X129818106Y-81024920D01*
X129726894Y-80972259D01*
X129625161Y-80945000D01*
X129519839Y-80945000D01*
X129418106Y-80972259D01*
X129326894Y-81024920D01*
X129322500Y-81029314D01*
X129322500Y-79120686D01*
X129326894Y-79125080D01*
X129418106Y-79177741D01*
X129519839Y-79205000D01*
X129625161Y-79205000D01*
X129726894Y-79177741D01*
X129818106Y-79125080D01*
X129822500Y-79120686D01*
X129822500Y-81029314D01*
G37*
%TD.AperFunction*%
%TA.AperFunction,Conductor*%
G36*
X129822500Y-78489314D02*
G01*
X129818106Y-78484920D01*
X129726894Y-78432259D01*
X129625161Y-78405000D01*
X129519839Y-78405000D01*
X129418106Y-78432259D01*
X129326894Y-78484920D01*
X129322500Y-78489314D01*
X129322500Y-76580686D01*
X129326894Y-76585080D01*
X129418106Y-76637741D01*
X129519839Y-76665000D01*
X129625161Y-76665000D01*
X129726894Y-76637741D01*
X129818106Y-76585080D01*
X129822500Y-76580686D01*
X129822500Y-78489314D01*
G37*
%TD.AperFunction*%
%TA.AperFunction,Conductor*%
G36*
X150852539Y-44080185D02*
G01*
X150898294Y-44132989D01*
X150909500Y-44184500D01*
X150909500Y-155395500D01*
X150889815Y-155462539D01*
X150837011Y-155508294D01*
X150785500Y-155519500D01*
X101124000Y-155519500D01*
X101056961Y-155499815D01*
X101011206Y-155447011D01*
X101000000Y-155395500D01*
X101000000Y-154579167D01*
X101000427Y-154571188D01*
X101000322Y-154571183D01*
X101000497Y-154567898D01*
X101000500Y-154567873D01*
X101000499Y-147972128D01*
X101000498Y-147972127D01*
X101000321Y-147968804D01*
X101000426Y-147968798D01*
X101000000Y-147960836D01*
X101000000Y-146659167D01*
X101000427Y-146651188D01*
X101000322Y-146651183D01*
X101000497Y-146647898D01*
X101000500Y-146647873D01*
X101000500Y-145339999D01*
X115091127Y-145339999D01*
X115091128Y-145340000D01*
X116054314Y-145340000D01*
X116049920Y-145344394D01*
X115997259Y-145435606D01*
X115970000Y-145537339D01*
X115970000Y-145642661D01*
X115997259Y-145744394D01*
X116049920Y-145835606D01*
X116054314Y-145840000D01*
X115091128Y-145840000D01*
X115143730Y-146036317D01*
X115143734Y-146036326D01*
X115239865Y-146242482D01*
X115370342Y-146428820D01*
X115531179Y-146589657D01*
X115717517Y-146720134D01*
X115923673Y-146816265D01*
X115923682Y-146816269D01*
X116119999Y-146868872D01*
X116120000Y-146868871D01*
X116120000Y-145905686D01*
X116124394Y-145910080D01*
X116215606Y-145962741D01*
X116317339Y-145990000D01*
X116422661Y-145990000D01*
X116524394Y-145962741D01*
X116615606Y-145910080D01*
X116620000Y-145905686D01*
X116620000Y-146868872D01*
X116816317Y-146816269D01*
X116816326Y-146816265D01*
X117022482Y-146720134D01*
X117208820Y-146589657D01*
X117369657Y-146428820D01*
X117500134Y-146242482D01*
X117596265Y-146036326D01*
X117596269Y-146036317D01*
X117648872Y-145840000D01*
X116685686Y-145840000D01*
X116690080Y-145835606D01*
X116742741Y-145744394D01*
X116770000Y-145642661D01*
X116770000Y-145589998D01*
X122684532Y-145589998D01*
X122684532Y-145590001D01*
X122704364Y-145816686D01*
X122704366Y-145816697D01*
X122763258Y-146036488D01*
X122763261Y-146036497D01*
X122859431Y-146242732D01*
X122859432Y-146242734D01*
X122989954Y-146429141D01*
X123150858Y-146590045D01*
X123150861Y-146590047D01*
X123337266Y-146720568D01*
X123543504Y-146816739D01*
X123763308Y-146875635D01*
X123925230Y-146889801D01*
X123989998Y-146895468D01*
X123990000Y-146895468D01*
X123990002Y-146895468D01*
X124046673Y-146890509D01*
X124216692Y-146875635D01*
X124436496Y-146816739D01*
X124642734Y-146720568D01*
X124829139Y-146590047D01*
X124990047Y-146429139D01*
X125120568Y-146242734D01*
X125216739Y-146036496D01*
X125275635Y-145816692D01*
X125295468Y-145590000D01*
X125275635Y-145363308D01*
X125216739Y-145143504D01*
X125120568Y-144937266D01*
X124990047Y-144750861D01*
X124990045Y-144750858D01*
X124829141Y-144589954D01*
X124642734Y-144459432D01*
X124642732Y-144459431D01*
X124436497Y-144363261D01*
X124436488Y-144363258D01*
X124216697Y-144304366D01*
X124216693Y-144304365D01*
X124216692Y-144304365D01*
X124216691Y-144304364D01*
X124216686Y-144304364D01*
X123990002Y-144284532D01*
X123989998Y-144284532D01*
X123763313Y-144304364D01*
X123763302Y-144304366D01*
X123543511Y-144363258D01*
X123543502Y-144363261D01*
X123337267Y-144459431D01*
X123337265Y-144459432D01*
X123150858Y-144589954D01*
X122989954Y-144750858D01*
X122859432Y-144937265D01*
X122859431Y-144937267D01*
X122763261Y-145143502D01*
X122763258Y-145143511D01*
X122704366Y-145363302D01*
X122704364Y-145363313D01*
X122684532Y-145589998D01*
X116770000Y-145589998D01*
X116770000Y-145537339D01*
X116742741Y-145435606D01*
X116690080Y-145344394D01*
X116685686Y-145340000D01*
X117648872Y-145340000D01*
X117648872Y-145339999D01*
X117596269Y-145143682D01*
X117596265Y-145143673D01*
X117500134Y-144937517D01*
X117369657Y-144751179D01*
X117208820Y-144590342D01*
X117022482Y-144459865D01*
X116816328Y-144363734D01*
X116620000Y-144311127D01*
X116620000Y-145274314D01*
X116615606Y-145269920D01*
X116524394Y-145217259D01*
X116422661Y-145190000D01*
X116317339Y-145190000D01*
X116215606Y-145217259D01*
X116124394Y-145269920D01*
X116120000Y-145274314D01*
X116120000Y-144311127D01*
X115923671Y-144363734D01*
X115717517Y-144459865D01*
X115531179Y-144590342D01*
X115370342Y-144751179D01*
X115239865Y-144937517D01*
X115143734Y-145143673D01*
X115143730Y-145143682D01*
X115091127Y-145339999D01*
X101000500Y-145339999D01*
X101000499Y-144012128D01*
X101000498Y-144012127D01*
X101000321Y-144008804D01*
X101000426Y-144008798D01*
X101000000Y-144000836D01*
X101000000Y-142699167D01*
X101000427Y-142691188D01*
X101000322Y-142691183D01*
X101000497Y-142687898D01*
X101000500Y-142687873D01*
X101000499Y-140409812D01*
X106499500Y-140409812D01*
X106499500Y-142505547D01*
X106499501Y-142505553D01*
X106505908Y-142565160D01*
X106556202Y-142700005D01*
X106556206Y-142700012D01*
X106642452Y-142815221D01*
X106642455Y-142815224D01*
X106757664Y-142901470D01*
X106757671Y-142901474D01*
X106892517Y-142951768D01*
X106892516Y-142951768D01*
X106899444Y-142952512D01*
X106952127Y-142958177D01*
X109047872Y-142958176D01*
X109107483Y-142951768D01*
X109242331Y-142901473D01*
X109357546Y-142815223D01*
X109443796Y-142700008D01*
X109494091Y-142565160D01*
X109494091Y-142565158D01*
X109495874Y-142557615D01*
X109498146Y-142558151D01*
X109520429Y-142504365D01*
X109577823Y-142464520D01*
X109616976Y-142458177D01*
X111971895Y-142458177D01*
X112038934Y-142477862D01*
X112059575Y-142494495D01*
X113222860Y-143657781D01*
X113222861Y-143657782D01*
X113362218Y-143797139D01*
X113526086Y-143906632D01*
X113632745Y-143950811D01*
X113708164Y-143982051D01*
X113901454Y-144020499D01*
X113901457Y-144020500D01*
X113901459Y-144020500D01*
X121713542Y-144020500D01*
X121732870Y-144016655D01*
X121810188Y-144001275D01*
X121906836Y-143982051D01*
X121978137Y-143952517D01*
X122088914Y-143906632D01*
X122252782Y-143797139D01*
X122392139Y-143657782D01*
X122392139Y-143657780D01*
X122402347Y-143647573D01*
X122402348Y-143647570D01*
X124088034Y-141961885D01*
X124149355Y-141928402D01*
X124164900Y-141926041D01*
X124226692Y-141920635D01*
X124446496Y-141861739D01*
X124652734Y-141765568D01*
X124839139Y-141635047D01*
X125000047Y-141474139D01*
X125130568Y-141287734D01*
X125226739Y-141081496D01*
X125285635Y-140861692D01*
X125305468Y-140635000D01*
X125285635Y-140408308D01*
X125226739Y-140188504D01*
X125130568Y-139982266D01*
X125000047Y-139795861D01*
X125000045Y-139795858D01*
X124839141Y-139634954D01*
X124652734Y-139504432D01*
X124652728Y-139504429D01*
X124594725Y-139477382D01*
X124542285Y-139431210D01*
X124523133Y-139364017D01*
X124543348Y-139297135D01*
X124594725Y-139252618D01*
X124652734Y-139225568D01*
X124839139Y-139095047D01*
X125000047Y-138934139D01*
X125130568Y-138747734D01*
X125226739Y-138541496D01*
X125285635Y-138321692D01*
X125305468Y-138095000D01*
X125285635Y-137868308D01*
X125226739Y-137648504D01*
X125130568Y-137442266D01*
X125000047Y-137255861D01*
X125000045Y-137255858D01*
X124839141Y-137094954D01*
X124652734Y-136964432D01*
X124652732Y-136964431D01*
X124614403Y-136946558D01*
X124594132Y-136937105D01*
X124541694Y-136890934D01*
X124524326Y-136830000D01*
X125470000Y-136830000D01*
X125470000Y-135619995D01*
X129035317Y-135619995D01*
X129035317Y-135620004D01*
X129054021Y-135869597D01*
X129054021Y-135869599D01*
X129109714Y-136113607D01*
X129109720Y-136113626D01*
X129201163Y-136346618D01*
X129326311Y-136563382D01*
X129364800Y-136611645D01*
X130108958Y-135867487D01*
X130133978Y-135927890D01*
X130205112Y-136034351D01*
X130295649Y-136124888D01*
X130402110Y-136196022D01*
X130462510Y-136221041D01*
X129718402Y-136965148D01*
X129872651Y-137070313D01*
X129872664Y-137070320D01*
X130098167Y-137178916D01*
X130098165Y-137178916D01*
X130337346Y-137252694D01*
X130337352Y-137252696D01*
X130584843Y-137289999D01*
X130584852Y-137290000D01*
X130835148Y-137290000D01*
X130835156Y-137289999D01*
X131082647Y-137252696D01*
X131082653Y-137252694D01*
X131321833Y-137178916D01*
X131547334Y-137070322D01*
X131547335Y-137070321D01*
X131701596Y-136965148D01*
X130957488Y-136221041D01*
X131017890Y-136196022D01*
X131124351Y-136124888D01*
X131214888Y-136034351D01*
X131286022Y-135927890D01*
X131311041Y-135867489D01*
X132055198Y-136611646D01*
X132055199Y-136611645D01*
X132093681Y-136563392D01*
X132093688Y-136563381D01*
X132218836Y-136346618D01*
X132310279Y-136113626D01*
X132310285Y-136113607D01*
X132365978Y-135869599D01*
X132365978Y-135869597D01*
X132384683Y-135620004D01*
X132384683Y-135619995D01*
X134034816Y-135619995D01*
X134034816Y-135620004D01*
X134053524Y-135869663D01*
X134053525Y-135869668D01*
X134109236Y-136113755D01*
X134109238Y-136113764D01*
X134109240Y-136113769D01*
X134200711Y-136346835D01*
X134325898Y-136563665D01*
X134438999Y-136705489D01*
X134482006Y-136759418D01*
X134618034Y-136885633D01*
X134665540Y-136929712D01*
X134872408Y-137070752D01*
X134872413Y-137070754D01*
X134872414Y-137070755D01*
X134872415Y-137070756D01*
X134992218Y-137128449D01*
X135097983Y-137179383D01*
X135097984Y-137179383D01*
X135097987Y-137179385D01*
X135337236Y-137253184D01*
X135337237Y-137253184D01*
X135337240Y-137253185D01*
X135584805Y-137290499D01*
X135584810Y-137290499D01*
X135584813Y-137290500D01*
X135584814Y-137290500D01*
X135835186Y-137290500D01*
X135835187Y-137290500D01*
X135835194Y-137290499D01*
X136082759Y-137253185D01*
X136082760Y-137253184D01*
X136082764Y-137253184D01*
X136322013Y-137179385D01*
X136547592Y-137070752D01*
X136754460Y-136929712D01*
X136937997Y-136759414D01*
X137094102Y-136563665D01*
X137219289Y-136346835D01*
X137310760Y-136113769D01*
X137366474Y-135869673D01*
X137369695Y-135826692D01*
X137385184Y-135620004D01*
X137385184Y-135619995D01*
X137383685Y-135599998D01*
X141064532Y-135599998D01*
X141064532Y-135600001D01*
X141084364Y-135826686D01*
X141084366Y-135826697D01*
X141143258Y-136046488D01*
X141143261Y-136046497D01*
X141239431Y-136252732D01*
X141239432Y-136252734D01*
X141369954Y-136439141D01*
X141530858Y-136600045D01*
X141530861Y-136600047D01*
X141717266Y-136730568D01*
X141923504Y-136826739D01*
X142143308Y-136885635D01*
X142305230Y-136899801D01*
X142369998Y-136905468D01*
X142370000Y-136905468D01*
X142370002Y-136905468D01*
X142426673Y-136900509D01*
X142596692Y-136885635D01*
X142816496Y-136826739D01*
X143022734Y-136730568D01*
X143209139Y-136600047D01*
X143370047Y-136439139D01*
X143500568Y-136252734D01*
X143596739Y-136046496D01*
X143655635Y-135826692D01*
X143675468Y-135600000D01*
X143655635Y-135373308D01*
X143596739Y-135153504D01*
X143500568Y-134947266D01*
X143377278Y-134771188D01*
X143370045Y-134760858D01*
X143209141Y-134599954D01*
X143022734Y-134469432D01*
X143022732Y-134469431D01*
X142816497Y-134373261D01*
X142816488Y-134373258D01*
X142596697Y-134314366D01*
X142596693Y-134314365D01*
X142596692Y-134314365D01*
X142596691Y-134314364D01*
X142596686Y-134314364D01*
X142370002Y-134294532D01*
X142369998Y-134294532D01*
X142143313Y-134314364D01*
X142143302Y-134314366D01*
X141923511Y-134373258D01*
X141923502Y-134373261D01*
X141717267Y-134469431D01*
X141717265Y-134469432D01*
X141530858Y-134599954D01*
X141369954Y-134760858D01*
X141239432Y-134947265D01*
X141239431Y-134947267D01*
X141143261Y-135153502D01*
X141143258Y-135153511D01*
X141084366Y-135373302D01*
X141084364Y-135373313D01*
X141064532Y-135599998D01*
X137383685Y-135599998D01*
X137366475Y-135370336D01*
X137366474Y-135370331D01*
X137366474Y-135370327D01*
X137310760Y-135126231D01*
X137219289Y-134893165D01*
X137094102Y-134676335D01*
X136937997Y-134480586D01*
X136937996Y-134480585D01*
X136937993Y-134480581D01*
X136754460Y-134310288D01*
X136731350Y-134294532D01*
X136547592Y-134169248D01*
X136547588Y-134169246D01*
X136547585Y-134169244D01*
X136547584Y-134169243D01*
X136322015Y-134060616D01*
X136322017Y-134060616D01*
X136082765Y-133986816D01*
X136082759Y-133986814D01*
X135835194Y-133949500D01*
X135835187Y-133949500D01*
X135584813Y-133949500D01*
X135584805Y-133949500D01*
X135337240Y-133986814D01*
X135337234Y-133986816D01*
X135097983Y-134060616D01*
X134872415Y-134169243D01*
X134872414Y-134169244D01*
X134872408Y-134169247D01*
X134872408Y-134169248D01*
X134867465Y-134172618D01*
X134665539Y-134310288D01*
X134482006Y-134480581D01*
X134325898Y-134676335D01*
X134200711Y-134893164D01*
X134109242Y-135126225D01*
X134109236Y-135126244D01*
X134053525Y-135370331D01*
X134053524Y-135370336D01*
X134034816Y-135619995D01*
X132384683Y-135619995D01*
X132365978Y-135370402D01*
X132365978Y-135370400D01*
X132310285Y-135126392D01*
X132310279Y-135126373D01*
X132218836Y-134893381D01*
X132093685Y-134676613D01*
X132055199Y-134628352D01*
X131311041Y-135372510D01*
X131286022Y-135312110D01*
X131214888Y-135205649D01*
X131124351Y-135115112D01*
X131017890Y-135043978D01*
X130957487Y-135018958D01*
X131701596Y-134274850D01*
X131547342Y-134169682D01*
X131547334Y-134169677D01*
X131321832Y-134061083D01*
X131321834Y-134061083D01*
X131082653Y-133987305D01*
X131082647Y-133987303D01*
X130835156Y-133950000D01*
X130584843Y-133950000D01*
X130337352Y-133987303D01*
X130337346Y-133987305D01*
X130098166Y-134061083D01*
X129872661Y-134169680D01*
X129872660Y-134169681D01*
X129718402Y-134274849D01*
X130462511Y-135018958D01*
X130402110Y-135043978D01*
X130295649Y-135115112D01*
X130205112Y-135205649D01*
X130133978Y-135312110D01*
X130108958Y-135372511D01*
X129364800Y-134628353D01*
X129326308Y-134676621D01*
X129201163Y-134893381D01*
X129109720Y-135126373D01*
X129109714Y-135126392D01*
X129054021Y-135370400D01*
X129054021Y-135370402D01*
X129035317Y-135619995D01*
X125470000Y-135619995D01*
X125470000Y-129200000D01*
X124523839Y-129200000D01*
X124542758Y-129137410D01*
X124594129Y-129092895D01*
X124652734Y-129065568D01*
X124839139Y-128935047D01*
X125000047Y-128774139D01*
X125130568Y-128587734D01*
X125226739Y-128381496D01*
X125285635Y-128161692D01*
X125305468Y-127935000D01*
X125285635Y-127708308D01*
X125226739Y-127488504D01*
X125130568Y-127282266D01*
X125000047Y-127095861D01*
X125000045Y-127095858D01*
X124839141Y-126934954D01*
X124652734Y-126804432D01*
X124652727Y-126804428D01*
X124651225Y-126803728D01*
X124650674Y-126803243D01*
X124648043Y-126801724D01*
X124648348Y-126801194D01*
X124598788Y-126757553D01*
X124579640Y-126690358D01*
X124599859Y-126623478D01*
X124647342Y-126580864D01*
X124648370Y-126580339D01*
X124707816Y-126550051D01*
X124859006Y-126440206D01*
X124879786Y-126425109D01*
X124879788Y-126425106D01*
X124879792Y-126425104D01*
X125030104Y-126274792D01*
X125030106Y-126274788D01*
X125030109Y-126274786D01*
X125155048Y-126102820D01*
X125155047Y-126102820D01*
X125155051Y-126102816D01*
X125251557Y-125913412D01*
X125317246Y-125711243D01*
X125331698Y-125619995D01*
X131534816Y-125619995D01*
X131534816Y-125620004D01*
X131553524Y-125869663D01*
X131553525Y-125869668D01*
X131609236Y-126113755D01*
X131609238Y-126113764D01*
X131609240Y-126113769D01*
X131700711Y-126346835D01*
X131825898Y-126563665D01*
X131925921Y-126689089D01*
X131982006Y-126759418D01*
X132118876Y-126886414D01*
X132165540Y-126929712D01*
X132372408Y-127070752D01*
X132372413Y-127070754D01*
X132372414Y-127070755D01*
X132372415Y-127070756D01*
X132424547Y-127095861D01*
X132597983Y-127179383D01*
X132597984Y-127179383D01*
X132597987Y-127179385D01*
X132837236Y-127253184D01*
X132837237Y-127253184D01*
X132837240Y-127253185D01*
X133084805Y-127290499D01*
X133084810Y-127290499D01*
X133084813Y-127290500D01*
X133084814Y-127290500D01*
X133335186Y-127290500D01*
X133335187Y-127290500D01*
X133389810Y-127282267D01*
X133582759Y-127253185D01*
X133582760Y-127253184D01*
X133582764Y-127253184D01*
X133822013Y-127179385D01*
X134047592Y-127070752D01*
X134254460Y-126929712D01*
X134396895Y-126797550D01*
X134437993Y-126759418D01*
X134437993Y-126759416D01*
X134437997Y-126759414D01*
X134594102Y-126563665D01*
X134719289Y-126346835D01*
X134810760Y-126113769D01*
X134866474Y-125869673D01*
X134866475Y-125869663D01*
X134885184Y-125620004D01*
X134885184Y-125619995D01*
X134866475Y-125370336D01*
X134866474Y-125370331D01*
X134866474Y-125370327D01*
X134810760Y-125126231D01*
X134719289Y-124893165D01*
X134594102Y-124676335D01*
X134437997Y-124480586D01*
X134437996Y-124480585D01*
X134437993Y-124480581D01*
X134254460Y-124310288D01*
X134047592Y-124169248D01*
X134047588Y-124169246D01*
X134047585Y-124169244D01*
X134047584Y-124169243D01*
X133822015Y-124060616D01*
X133822017Y-124060616D01*
X133582765Y-123986816D01*
X133582759Y-123986814D01*
X133335194Y-123949500D01*
X133335187Y-123949500D01*
X133084813Y-123949500D01*
X133084805Y-123949500D01*
X132837240Y-123986814D01*
X132837234Y-123986816D01*
X132597983Y-124060616D01*
X132372415Y-124169243D01*
X132372414Y-124169244D01*
X132165539Y-124310288D01*
X131982006Y-124480581D01*
X131825898Y-124676335D01*
X131700711Y-124893164D01*
X131609242Y-125126225D01*
X131609236Y-125126244D01*
X131553525Y-125370331D01*
X131553524Y-125370336D01*
X131534816Y-125619995D01*
X125331698Y-125619995D01*
X125350500Y-125501287D01*
X125350500Y-122051422D01*
X125350501Y-122051397D01*
X125350501Y-121833715D01*
X125349031Y-121824434D01*
X125317246Y-121623757D01*
X125251557Y-121421588D01*
X125179413Y-121279998D01*
X126914532Y-121279998D01*
X126914532Y-121280001D01*
X126934364Y-121506686D01*
X126934366Y-121506697D01*
X126993258Y-121726488D01*
X126993261Y-121726497D01*
X127089431Y-121932732D01*
X127089432Y-121932734D01*
X127219954Y-122119141D01*
X127380858Y-122280045D01*
X127380861Y-122280047D01*
X127567266Y-122410568D01*
X127773504Y-122506739D01*
X127993308Y-122565635D01*
X128155230Y-122579801D01*
X128219998Y-122585468D01*
X128220000Y-122585468D01*
X128220002Y-122585468D01*
X128276673Y-122580509D01*
X128446692Y-122565635D01*
X128666496Y-122506739D01*
X128872734Y-122410568D01*
X129059139Y-122280047D01*
X129220047Y-122119139D01*
X129350568Y-121932734D01*
X129446739Y-121726496D01*
X129505635Y-121506692D01*
X129525468Y-121280000D01*
X129525468Y-121279998D01*
X131914532Y-121279998D01*
X131914532Y-121280001D01*
X131934364Y-121506686D01*
X131934366Y-121506697D01*
X131993258Y-121726488D01*
X131993261Y-121726497D01*
X132089431Y-121932732D01*
X132089432Y-121932734D01*
X132219954Y-122119141D01*
X132380858Y-122280045D01*
X132380861Y-122280047D01*
X132567266Y-122410568D01*
X132773504Y-122506739D01*
X132993308Y-122565635D01*
X133155230Y-122579801D01*
X133219998Y-122585468D01*
X133220000Y-122585468D01*
X133220002Y-122585468D01*
X133276673Y-122580509D01*
X133446692Y-122565635D01*
X133666496Y-122506739D01*
X133872734Y-122410568D01*
X134059139Y-122280047D01*
X134220047Y-122119139D01*
X134350568Y-121932734D01*
X134446739Y-121726496D01*
X134505635Y-121506692D01*
X134525468Y-121280000D01*
X134505635Y-121053308D01*
X134446739Y-120833504D01*
X134350568Y-120627266D01*
X134220047Y-120440861D01*
X134220045Y-120440858D01*
X134059141Y-120279954D01*
X133872734Y-120149432D01*
X133872732Y-120149431D01*
X133666497Y-120053261D01*
X133666488Y-120053258D01*
X133446697Y-119994366D01*
X133446693Y-119994365D01*
X133446692Y-119994365D01*
X133446691Y-119994364D01*
X133446686Y-119994364D01*
X133220002Y-119974532D01*
X133219998Y-119974532D01*
X132993313Y-119994364D01*
X132993302Y-119994366D01*
X132773511Y-120053258D01*
X132773502Y-120053261D01*
X132567267Y-120149431D01*
X132567265Y-120149432D01*
X132380858Y-120279954D01*
X132219954Y-120440858D01*
X132089432Y-120627265D01*
X132089431Y-120627267D01*
X131993261Y-120833502D01*
X131993258Y-120833511D01*
X131934366Y-121053302D01*
X131934364Y-121053313D01*
X131914532Y-121279998D01*
X129525468Y-121279998D01*
X129505635Y-121053308D01*
X129446739Y-120833504D01*
X129350568Y-120627266D01*
X129220047Y-120440861D01*
X129220045Y-120440858D01*
X129059141Y-120279954D01*
X128872734Y-120149432D01*
X128872732Y-120149431D01*
X128666497Y-120053261D01*
X128666488Y-120053258D01*
X128446697Y-119994366D01*
X128446693Y-119994365D01*
X128446692Y-119994365D01*
X128446691Y-119994364D01*
X128446686Y-119994364D01*
X128220002Y-119974532D01*
X128219998Y-119974532D01*
X127993313Y-119994364D01*
X127993302Y-119994366D01*
X127773511Y-120053258D01*
X127773502Y-120053261D01*
X127567267Y-120149431D01*
X127567265Y-120149432D01*
X127380858Y-120279954D01*
X127219954Y-120440858D01*
X127089432Y-120627265D01*
X127089431Y-120627267D01*
X126993261Y-120833502D01*
X126993258Y-120833511D01*
X126934366Y-121053302D01*
X126934364Y-121053313D01*
X126914532Y-121279998D01*
X125179413Y-121279998D01*
X125155051Y-121232184D01*
X125063550Y-121106243D01*
X125030104Y-121060208D01*
X124879792Y-120909896D01*
X124879791Y-120909895D01*
X124876680Y-120906784D01*
X124876665Y-120906770D01*
X124236819Y-120266924D01*
X124203334Y-120205601D01*
X124200500Y-120179243D01*
X124200500Y-117973230D01*
X124220185Y-117906191D01*
X124225233Y-117898919D01*
X124265143Y-117845606D01*
X124293796Y-117807331D01*
X124344091Y-117672483D01*
X124350500Y-117612873D01*
X124350500Y-117599998D01*
X126954532Y-117599998D01*
X126954532Y-117600001D01*
X126974364Y-117826686D01*
X126974366Y-117826697D01*
X127033258Y-118046488D01*
X127033261Y-118046497D01*
X127129431Y-118252732D01*
X127129432Y-118252734D01*
X127259954Y-118439141D01*
X127420858Y-118600045D01*
X127420861Y-118600047D01*
X127607266Y-118730568D01*
X127813504Y-118826739D01*
X128033308Y-118885635D01*
X128195230Y-118899801D01*
X128259998Y-118905468D01*
X128260000Y-118905468D01*
X128260002Y-118905468D01*
X128316673Y-118900509D01*
X128486692Y-118885635D01*
X128706496Y-118826739D01*
X128912734Y-118730568D01*
X129099139Y-118600047D01*
X129260047Y-118439139D01*
X129390568Y-118252734D01*
X129486739Y-118046496D01*
X129545635Y-117826692D01*
X129564341Y-117612883D01*
X129565468Y-117600001D01*
X129565468Y-117599998D01*
X129565468Y-117599997D01*
X131955034Y-117599997D01*
X131955034Y-117600002D01*
X131974858Y-117826599D01*
X131974860Y-117826610D01*
X132033730Y-118046317D01*
X132033735Y-118046331D01*
X132129863Y-118252478D01*
X132180974Y-118325472D01*
X132860000Y-117646446D01*
X132860000Y-117652661D01*
X132887259Y-117754394D01*
X132939920Y-117845606D01*
X133014394Y-117920080D01*
X133105606Y-117972741D01*
X133207339Y-118000000D01*
X133213553Y-118000000D01*
X132534526Y-118679025D01*
X132607513Y-118730132D01*
X132607521Y-118730136D01*
X132813668Y-118826264D01*
X132813682Y-118826269D01*
X133033389Y-118885139D01*
X133033400Y-118885141D01*
X133259998Y-118904966D01*
X133260002Y-118904966D01*
X133486599Y-118885141D01*
X133486610Y-118885139D01*
X133706317Y-118826269D01*
X133706331Y-118826264D01*
X133912478Y-118730136D01*
X133985471Y-118679024D01*
X133306447Y-118000000D01*
X133312661Y-118000000D01*
X133414394Y-117972741D01*
X133505606Y-117920080D01*
X133580080Y-117845606D01*
X133632741Y-117754394D01*
X133660000Y-117652661D01*
X133660000Y-117646447D01*
X134339024Y-118325471D01*
X134390136Y-118252478D01*
X134486264Y-118046331D01*
X134486269Y-118046317D01*
X134545139Y-117826610D01*
X134545141Y-117826599D01*
X134564966Y-117600002D01*
X134564966Y-117599997D01*
X134545141Y-117373400D01*
X134545139Y-117373389D01*
X134486269Y-117153682D01*
X134486264Y-117153668D01*
X134390136Y-116947521D01*
X134390132Y-116947513D01*
X134339025Y-116874526D01*
X133660000Y-117553551D01*
X133660000Y-117547339D01*
X133632741Y-117445606D01*
X133580080Y-117354394D01*
X133505606Y-117279920D01*
X133414394Y-117227259D01*
X133312661Y-117200000D01*
X133306445Y-117200000D01*
X133985472Y-116520974D01*
X133912478Y-116469863D01*
X133706331Y-116373735D01*
X133706317Y-116373730D01*
X133486610Y-116314860D01*
X133486599Y-116314858D01*
X133260002Y-116295034D01*
X133259998Y-116295034D01*
X133033400Y-116314858D01*
X133033389Y-116314860D01*
X132813682Y-116373730D01*
X132813673Y-116373734D01*
X132607516Y-116469866D01*
X132607512Y-116469868D01*
X132534526Y-116520973D01*
X132534526Y-116520974D01*
X133213553Y-117200000D01*
X133207339Y-117200000D01*
X133105606Y-117227259D01*
X133014394Y-117279920D01*
X132939920Y-117354394D01*
X132887259Y-117445606D01*
X132860000Y-117547339D01*
X132860000Y-117553552D01*
X132180974Y-116874526D01*
X132180973Y-116874526D01*
X132129868Y-116947512D01*
X132129866Y-116947516D01*
X132033734Y-117153673D01*
X132033730Y-117153682D01*
X131974860Y-117373389D01*
X131974858Y-117373400D01*
X131955034Y-117599997D01*
X129565468Y-117599997D01*
X129545635Y-117373313D01*
X129545635Y-117373308D01*
X129486739Y-117153504D01*
X129390568Y-116947266D01*
X129260047Y-116760861D01*
X129260045Y-116760858D01*
X129099141Y-116599954D01*
X128912734Y-116469432D01*
X128912732Y-116469431D01*
X128706497Y-116373261D01*
X128706488Y-116373258D01*
X128486697Y-116314366D01*
X128486693Y-116314365D01*
X128486692Y-116314365D01*
X128486691Y-116314364D01*
X128486686Y-116314364D01*
X128260002Y-116294532D01*
X128259998Y-116294532D01*
X128033313Y-116314364D01*
X128033302Y-116314366D01*
X127813511Y-116373258D01*
X127813502Y-116373261D01*
X127607267Y-116469431D01*
X127607265Y-116469432D01*
X127420858Y-116599954D01*
X127259954Y-116760858D01*
X127129432Y-116947265D01*
X127129431Y-116947267D01*
X127033261Y-117153502D01*
X127033258Y-117153511D01*
X126974366Y-117373302D01*
X126974364Y-117373313D01*
X126954532Y-117599998D01*
X124350500Y-117599998D01*
X124350499Y-115517128D01*
X124344091Y-115457517D01*
X124293796Y-115322669D01*
X124293795Y-115322668D01*
X124293793Y-115322664D01*
X124207547Y-115207455D01*
X124207544Y-115207452D01*
X124092335Y-115121206D01*
X124092328Y-115121202D01*
X123957482Y-115070908D01*
X123957483Y-115070908D01*
X123897883Y-115064501D01*
X123897881Y-115064500D01*
X123897873Y-115064500D01*
X123897864Y-115064500D01*
X121802129Y-115064500D01*
X121802123Y-115064501D01*
X121742516Y-115070908D01*
X121607671Y-115121202D01*
X121607664Y-115121206D01*
X121492455Y-115207452D01*
X121492452Y-115207455D01*
X121406206Y-115322664D01*
X121406202Y-115322671D01*
X121355908Y-115457517D01*
X121349501Y-115517116D01*
X121349501Y-115517123D01*
X121349500Y-115517135D01*
X121349500Y-117612870D01*
X121349501Y-117612876D01*
X121355908Y-117672483D01*
X121406202Y-117807328D01*
X121406203Y-117807330D01*
X121474767Y-117898919D01*
X121499184Y-117964383D01*
X121499500Y-117973230D01*
X121499500Y-120896287D01*
X121509534Y-120959644D01*
X121525462Y-121060208D01*
X121532754Y-121106243D01*
X121589211Y-121280000D01*
X121598444Y-121308414D01*
X121694951Y-121497820D01*
X121819889Y-121669784D01*
X121819893Y-121669788D01*
X121819896Y-121669792D01*
X121970208Y-121820104D01*
X121974538Y-121824434D01*
X121974549Y-121824444D01*
X122613181Y-122463076D01*
X122646666Y-122524399D01*
X122649500Y-122550757D01*
X122649500Y-125501286D01*
X122668301Y-125619995D01*
X122682754Y-125711243D01*
X122734231Y-125869673D01*
X122748444Y-125913414D01*
X122844951Y-126102820D01*
X122969890Y-126274786D01*
X123120213Y-126425109D01*
X123223027Y-126499806D01*
X123292184Y-126550051D01*
X123352128Y-126580594D01*
X123352658Y-126580864D01*
X123403454Y-126628839D01*
X123420249Y-126696660D01*
X123397712Y-126762795D01*
X123351701Y-126801281D01*
X123351957Y-126801724D01*
X123349426Y-126803185D01*
X123348781Y-126803725D01*
X123347272Y-126804428D01*
X123347265Y-126804432D01*
X123160858Y-126934954D01*
X122999954Y-127095858D01*
X122869432Y-127282265D01*
X122869431Y-127282267D01*
X122773261Y-127488502D01*
X122773258Y-127488511D01*
X122714366Y-127708302D01*
X122714364Y-127708313D01*
X122694532Y-127934998D01*
X122694532Y-127935001D01*
X122714364Y-128161686D01*
X122714366Y-128161697D01*
X122773258Y-128381488D01*
X122773261Y-128381497D01*
X122869431Y-128587732D01*
X122869432Y-128587734D01*
X122999954Y-128774141D01*
X123160858Y-128935045D01*
X123160861Y-128935047D01*
X123347266Y-129065568D01*
X123405865Y-129092893D01*
X123458305Y-129139065D01*
X123475673Y-129200000D01*
X116903839Y-129200000D01*
X116922758Y-129137410D01*
X116974129Y-129092895D01*
X117032734Y-129065568D01*
X117219139Y-128935047D01*
X117380047Y-128774139D01*
X117510568Y-128587734D01*
X117606739Y-128381496D01*
X117665635Y-128161692D01*
X117685468Y-127935000D01*
X117665635Y-127708308D01*
X117606739Y-127488504D01*
X117510568Y-127282266D01*
X117380047Y-127095861D01*
X117380045Y-127095858D01*
X117219143Y-126934956D01*
X117211652Y-126929711D01*
X117194535Y-126917725D01*
X117150912Y-126863149D01*
X117143719Y-126793650D01*
X117175241Y-126731296D01*
X117235471Y-126695882D01*
X117252404Y-126692861D01*
X117287483Y-126689091D01*
X117422331Y-126638796D01*
X117537546Y-126552546D01*
X117623796Y-126437331D01*
X117674091Y-126302483D01*
X117680500Y-126242873D01*
X117680499Y-124547128D01*
X117674091Y-124487517D01*
X117623796Y-124352669D01*
X117623795Y-124352668D01*
X117623793Y-124352664D01*
X117537547Y-124237455D01*
X117537544Y-124237452D01*
X117422335Y-124151206D01*
X117422328Y-124151202D01*
X117287482Y-124100908D01*
X117287483Y-124100908D01*
X117227883Y-124094501D01*
X117227881Y-124094500D01*
X117227873Y-124094500D01*
X117227864Y-124094500D01*
X115532129Y-124094500D01*
X115532123Y-124094501D01*
X115472516Y-124100908D01*
X115337671Y-124151202D01*
X115337664Y-124151206D01*
X115222455Y-124237452D01*
X115222452Y-124237455D01*
X115136206Y-124352664D01*
X115136202Y-124352671D01*
X115085908Y-124487517D01*
X115079501Y-124547116D01*
X115079501Y-124547123D01*
X115079500Y-124547135D01*
X115079500Y-126242870D01*
X115079501Y-126242876D01*
X115085908Y-126302483D01*
X115136202Y-126437328D01*
X115136206Y-126437335D01*
X115222452Y-126552544D01*
X115222455Y-126552547D01*
X115337664Y-126638793D01*
X115337671Y-126638797D01*
X115358477Y-126646557D01*
X115472517Y-126689091D01*
X115507596Y-126692862D01*
X115572144Y-126719599D01*
X115611993Y-126776991D01*
X115614488Y-126846816D01*
X115578836Y-126906905D01*
X115565464Y-126917725D01*
X115540858Y-126934954D01*
X115379954Y-127095858D01*
X115249432Y-127282265D01*
X115249431Y-127282267D01*
X115153261Y-127488502D01*
X115153258Y-127488511D01*
X115094366Y-127708302D01*
X115094364Y-127708313D01*
X115074532Y-127934998D01*
X115074532Y-127935001D01*
X115094364Y-128161686D01*
X115094366Y-128161697D01*
X115153258Y-128381488D01*
X115153261Y-128381497D01*
X115249431Y-128587732D01*
X115249432Y-128587734D01*
X115379954Y-128774141D01*
X115540858Y-128935045D01*
X115540861Y-128935047D01*
X115727266Y-129065568D01*
X115785865Y-129092893D01*
X115838305Y-129139065D01*
X115855673Y-129200000D01*
X114830000Y-129200000D01*
X114810000Y-136830000D01*
X115856159Y-136830000D01*
X115837242Y-136892589D01*
X115785867Y-136937105D01*
X115765597Y-136946558D01*
X115727264Y-136964433D01*
X115540858Y-137094954D01*
X115379954Y-137255858D01*
X115249432Y-137442265D01*
X115249431Y-137442267D01*
X115153261Y-137648502D01*
X115153258Y-137648511D01*
X115094366Y-137868302D01*
X115094364Y-137868313D01*
X115074532Y-138094998D01*
X115074532Y-138095001D01*
X115094364Y-138321686D01*
X115094366Y-138321697D01*
X115153258Y-138541488D01*
X115153261Y-138541497D01*
X115249431Y-138747732D01*
X115249432Y-138747734D01*
X115379954Y-138934141D01*
X115540858Y-139095045D01*
X115540861Y-139095047D01*
X115727266Y-139225568D01*
X115785865Y-139252893D01*
X115838305Y-139299065D01*
X115857457Y-139366258D01*
X115837242Y-139433139D01*
X115785867Y-139477657D01*
X115727515Y-139504867D01*
X115541179Y-139635342D01*
X115380342Y-139796179D01*
X115249865Y-139982517D01*
X115153734Y-140188673D01*
X115153730Y-140188682D01*
X115101127Y-140384999D01*
X115101128Y-140385000D01*
X116064314Y-140385000D01*
X116059920Y-140389394D01*
X116007259Y-140480606D01*
X115980000Y-140582339D01*
X115980000Y-140687661D01*
X116007259Y-140789394D01*
X116059920Y-140880606D01*
X116064314Y-140885000D01*
X115101128Y-140885000D01*
X115153730Y-141081317D01*
X115153734Y-141081326D01*
X115249865Y-141287482D01*
X115380342Y-141473820D01*
X115541179Y-141634657D01*
X115727517Y-141765134D01*
X115766084Y-141783118D01*
X115818523Y-141829291D01*
X115837675Y-141896484D01*
X115817459Y-141963365D01*
X115764294Y-142008700D01*
X115713679Y-142019500D01*
X114465783Y-142019500D01*
X114398744Y-141999815D01*
X114378102Y-141983181D01*
X113221886Y-140826966D01*
X113221883Y-140826962D01*
X113221883Y-140826963D01*
X113214816Y-140819896D01*
X113214816Y-140819895D01*
X113075459Y-140680538D01*
X113075458Y-140680537D01*
X113075457Y-140680536D01*
X112911597Y-140571048D01*
X112911588Y-140571043D01*
X112824965Y-140535163D01*
X112782842Y-140517715D01*
X112729513Y-140495626D01*
X112729509Y-140495625D01*
X112729505Y-140495623D01*
X112632865Y-140476401D01*
X112536221Y-140457177D01*
X112536218Y-140457177D01*
X109616977Y-140457177D01*
X109549938Y-140437492D01*
X109504183Y-140384688D01*
X109496733Y-140357542D01*
X109495876Y-140357745D01*
X109494092Y-140350197D01*
X109443797Y-140215348D01*
X109443793Y-140215341D01*
X109357547Y-140100132D01*
X109357544Y-140100129D01*
X109242335Y-140013883D01*
X109242328Y-140013879D01*
X109107482Y-139963585D01*
X109107483Y-139963585D01*
X109047883Y-139957178D01*
X109047881Y-139957177D01*
X109047873Y-139957177D01*
X109047864Y-139957177D01*
X106952129Y-139957177D01*
X106952123Y-139957178D01*
X106892516Y-139963585D01*
X106757671Y-140013879D01*
X106757664Y-140013883D01*
X106642455Y-140100129D01*
X106642452Y-140100132D01*
X106556206Y-140215341D01*
X106556202Y-140215348D01*
X106505908Y-140350194D01*
X106499501Y-140409793D01*
X106499500Y-140409812D01*
X101000499Y-140409812D01*
X101000499Y-140052128D01*
X101000498Y-140052127D01*
X101000321Y-140048804D01*
X101000426Y-140048798D01*
X101000000Y-140040836D01*
X101000000Y-138739167D01*
X101000427Y-138731188D01*
X101000322Y-138731183D01*
X101000497Y-138727898D01*
X101000500Y-138727873D01*
X101000499Y-136457671D01*
X106494357Y-136457671D01*
X106494357Y-136457682D01*
X106514890Y-136705489D01*
X106514892Y-136705501D01*
X106575936Y-136946558D01*
X106675826Y-137174283D01*
X106811833Y-137382459D01*
X106811836Y-137382462D01*
X106980256Y-137565415D01*
X107176491Y-137718151D01*
X107395190Y-137836505D01*
X107630386Y-137917248D01*
X107875665Y-137958177D01*
X108124335Y-137958177D01*
X108369614Y-137917248D01*
X108604810Y-137836505D01*
X108823509Y-137718151D01*
X109019744Y-137565415D01*
X109188164Y-137382462D01*
X109324173Y-137174284D01*
X109424063Y-136946558D01*
X109485108Y-136705498D01*
X109485109Y-136705489D01*
X109505643Y-136457682D01*
X109505643Y-136457671D01*
X109485109Y-136209864D01*
X109485107Y-136209852D01*
X109424063Y-135968795D01*
X109324173Y-135741070D01*
X109188166Y-135532894D01*
X109093815Y-135430402D01*
X109019744Y-135349939D01*
X108823509Y-135197203D01*
X108823507Y-135197202D01*
X108823506Y-135197201D01*
X108604811Y-135078849D01*
X108604802Y-135078846D01*
X108369616Y-134998106D01*
X108124335Y-134957177D01*
X107875665Y-134957177D01*
X107630383Y-134998106D01*
X107395197Y-135078846D01*
X107395188Y-135078849D01*
X107176493Y-135197201D01*
X106980257Y-135349938D01*
X106811833Y-135532894D01*
X106675826Y-135741070D01*
X106575936Y-135968795D01*
X106514892Y-136209852D01*
X106514890Y-136209864D01*
X106494357Y-136457671D01*
X101000499Y-136457671D01*
X101000499Y-136092128D01*
X101000498Y-136092127D01*
X101000321Y-136088804D01*
X101000426Y-136088798D01*
X101000000Y-136080836D01*
X101000000Y-134779167D01*
X101000427Y-134771188D01*
X101000322Y-134771183D01*
X101000497Y-134767898D01*
X101000500Y-134767873D01*
X101000499Y-132132128D01*
X101000498Y-132132127D01*
X101000321Y-132128804D01*
X101000426Y-132128798D01*
X101000000Y-132120836D01*
X101000000Y-130819167D01*
X101000427Y-130811188D01*
X101000322Y-130811183D01*
X101000497Y-130807898D01*
X101000500Y-130807873D01*
X101000500Y-130392317D01*
X106494859Y-130392317D01*
X106494859Y-130392328D01*
X106515385Y-130640052D01*
X106515387Y-130640061D01*
X106576412Y-130881040D01*
X106676267Y-131108690D01*
X106776562Y-131262204D01*
X107517037Y-130521731D01*
X107534075Y-130585316D01*
X107599901Y-130699330D01*
X107692993Y-130792422D01*
X107807007Y-130858248D01*
X107870591Y-130875285D01*
X107129943Y-131615932D01*
X107176768Y-131652378D01*
X107176771Y-131652380D01*
X107395385Y-131770687D01*
X107395396Y-131770692D01*
X107630506Y-131851406D01*
X107875707Y-131892323D01*
X108124293Y-131892323D01*
X108369493Y-131851406D01*
X108604603Y-131770692D01*
X108604614Y-131770687D01*
X108823230Y-131652379D01*
X108823236Y-131652374D01*
X108870055Y-131615933D01*
X108870056Y-131615932D01*
X108129408Y-130875285D01*
X108192993Y-130858248D01*
X108307007Y-130792422D01*
X108400099Y-130699330D01*
X108465925Y-130585316D01*
X108482962Y-130521731D01*
X109223435Y-131262205D01*
X109323733Y-131108687D01*
X109423587Y-130881040D01*
X109484612Y-130640061D01*
X109484614Y-130640052D01*
X109505141Y-130392328D01*
X109505141Y-130392317D01*
X109484614Y-130144593D01*
X109484612Y-130144584D01*
X109423587Y-129903605D01*
X109323732Y-129675955D01*
X109223435Y-129522439D01*
X108482962Y-130262913D01*
X108465925Y-130199330D01*
X108400099Y-130085316D01*
X108307007Y-129992224D01*
X108192993Y-129926398D01*
X108129409Y-129909360D01*
X108870055Y-129168712D01*
X108870055Y-129168711D01*
X108823236Y-129132270D01*
X108823231Y-129132267D01*
X108604614Y-129013958D01*
X108604603Y-129013953D01*
X108369493Y-128933239D01*
X108124293Y-128892323D01*
X107875707Y-128892323D01*
X107630506Y-128933239D01*
X107395396Y-129013953D01*
X107395385Y-129013958D01*
X107176770Y-129132266D01*
X107129943Y-129168712D01*
X107870591Y-129909360D01*
X107807007Y-129926398D01*
X107692993Y-129992224D01*
X107599901Y-130085316D01*
X107534075Y-130199330D01*
X107517037Y-130262914D01*
X106776563Y-129522440D01*
X106676267Y-129675956D01*
X106676265Y-129675960D01*
X106576412Y-129903605D01*
X106515387Y-130144584D01*
X106515385Y-130144593D01*
X106494859Y-130392317D01*
X101000500Y-130392317D01*
X101000499Y-128172128D01*
X101000498Y-128172127D01*
X101000321Y-128168804D01*
X101000426Y-128168798D01*
X101000000Y-128160836D01*
X101000000Y-126859167D01*
X101000427Y-126851188D01*
X101000322Y-126851183D01*
X101000497Y-126847898D01*
X101000500Y-126847873D01*
X101000499Y-124344458D01*
X106499500Y-124344458D01*
X106499500Y-126440193D01*
X106499501Y-126440199D01*
X106505908Y-126499806D01*
X106556202Y-126634651D01*
X106556206Y-126634658D01*
X106642452Y-126749867D01*
X106642455Y-126749870D01*
X106757664Y-126836116D01*
X106757671Y-126836120D01*
X106892517Y-126886414D01*
X106892516Y-126886414D01*
X106899444Y-126887158D01*
X106952127Y-126892823D01*
X109047872Y-126892822D01*
X109107483Y-126886414D01*
X109242331Y-126836119D01*
X109357546Y-126749869D01*
X109443796Y-126634654D01*
X109494091Y-126499806D01*
X109500500Y-126440196D01*
X109500499Y-124344451D01*
X109494091Y-124284840D01*
X109476417Y-124237454D01*
X109443797Y-124149994D01*
X109443793Y-124149987D01*
X109357547Y-124034778D01*
X109357544Y-124034775D01*
X109242335Y-123948529D01*
X109242328Y-123948525D01*
X109107482Y-123898231D01*
X109107483Y-123898231D01*
X109047883Y-123891824D01*
X109047881Y-123891823D01*
X109047873Y-123891823D01*
X109047864Y-123891823D01*
X106952129Y-123891823D01*
X106952123Y-123891824D01*
X106892516Y-123898231D01*
X106757671Y-123948525D01*
X106757664Y-123948529D01*
X106642455Y-124034775D01*
X106642452Y-124034778D01*
X106556206Y-124149987D01*
X106556202Y-124149994D01*
X106505908Y-124284840D01*
X106499501Y-124344439D01*
X106499501Y-124344446D01*
X106499500Y-124344458D01*
X101000499Y-124344458D01*
X101000499Y-124212128D01*
X101000498Y-124212127D01*
X101000321Y-124208804D01*
X101000426Y-124208798D01*
X101000000Y-124200836D01*
X101000000Y-122899167D01*
X101000427Y-122891188D01*
X101000322Y-122891183D01*
X101000497Y-122887898D01*
X101000500Y-122887873D01*
X101000499Y-120252128D01*
X101000498Y-120252127D01*
X101000321Y-120248804D01*
X101000426Y-120248798D01*
X101000000Y-120240836D01*
X101000000Y-118939167D01*
X101000427Y-118931188D01*
X101000322Y-118931183D01*
X101000497Y-118927898D01*
X101000500Y-118927873D01*
X101000499Y-116564994D01*
X116344859Y-116564994D01*
X116344859Y-116565005D01*
X116365385Y-116812729D01*
X116365387Y-116812738D01*
X116426412Y-117053717D01*
X116526267Y-117281367D01*
X116626562Y-117434881D01*
X117367037Y-116694408D01*
X117384075Y-116757993D01*
X117449901Y-116872007D01*
X117542993Y-116965099D01*
X117657007Y-117030925D01*
X117720591Y-117047962D01*
X116979943Y-117788609D01*
X117026768Y-117825055D01*
X117026771Y-117825057D01*
X117245385Y-117943364D01*
X117245396Y-117943369D01*
X117480506Y-118024083D01*
X117725707Y-118065000D01*
X117974293Y-118065000D01*
X118219493Y-118024083D01*
X118454603Y-117943369D01*
X118454614Y-117943364D01*
X118673230Y-117825056D01*
X118673236Y-117825051D01*
X118720055Y-117788610D01*
X118720056Y-117788609D01*
X117979408Y-117047962D01*
X118042993Y-117030925D01*
X118157007Y-116965099D01*
X118250099Y-116872007D01*
X118315925Y-116757993D01*
X118332962Y-116694409D01*
X119073435Y-117434882D01*
X119173733Y-117281364D01*
X119273587Y-117053717D01*
X119334612Y-116812738D01*
X119334614Y-116812729D01*
X119355141Y-116565005D01*
X119355141Y-116564994D01*
X119334614Y-116317270D01*
X119334612Y-116317261D01*
X119273587Y-116076282D01*
X119173732Y-115848632D01*
X119073435Y-115695116D01*
X118332962Y-116435590D01*
X118315925Y-116372007D01*
X118250099Y-116257993D01*
X118157007Y-116164901D01*
X118042993Y-116099075D01*
X117979409Y-116082037D01*
X118720055Y-115341389D01*
X118720055Y-115341388D01*
X118673236Y-115304947D01*
X118673231Y-115304944D01*
X118454614Y-115186635D01*
X118454603Y-115186630D01*
X118219493Y-115105916D01*
X117974293Y-115065000D01*
X117725707Y-115065000D01*
X117480506Y-115105916D01*
X117245396Y-115186630D01*
X117245385Y-115186635D01*
X117026770Y-115304943D01*
X116979943Y-115341389D01*
X117720591Y-116082037D01*
X117657007Y-116099075D01*
X117542993Y-116164901D01*
X117449901Y-116257993D01*
X117384075Y-116372007D01*
X117367037Y-116435591D01*
X116626563Y-115695117D01*
X116526267Y-115848633D01*
X116526265Y-115848637D01*
X116426412Y-116076282D01*
X116365387Y-116317261D01*
X116365385Y-116317270D01*
X116344859Y-116564994D01*
X101000499Y-116564994D01*
X101000499Y-116292128D01*
X101000498Y-116292127D01*
X101000321Y-116288804D01*
X101000426Y-116288798D01*
X101000000Y-116280836D01*
X101000000Y-114979167D01*
X101000427Y-114971188D01*
X101000322Y-114971183D01*
X101000497Y-114967898D01*
X101000500Y-114967873D01*
X101000499Y-112332128D01*
X101000498Y-112332127D01*
X101000321Y-112328804D01*
X101000426Y-112328798D01*
X101000000Y-112320836D01*
X101000000Y-111019167D01*
X101000427Y-111011188D01*
X101000322Y-111011183D01*
X101000497Y-111007898D01*
X101000500Y-111007873D01*
X101000499Y-109599997D01*
X125185034Y-109599997D01*
X125185034Y-109600002D01*
X125204858Y-109826599D01*
X125204860Y-109826610D01*
X125263730Y-110046317D01*
X125263735Y-110046331D01*
X125359863Y-110252478D01*
X125410974Y-110325472D01*
X126090000Y-109646446D01*
X126090000Y-109652661D01*
X126117259Y-109754394D01*
X126169920Y-109845606D01*
X126244394Y-109920080D01*
X126335606Y-109972741D01*
X126437339Y-110000000D01*
X126443553Y-110000000D01*
X125764526Y-110679025D01*
X125837513Y-110730132D01*
X125837521Y-110730136D01*
X126043668Y-110826264D01*
X126043682Y-110826269D01*
X126263389Y-110885139D01*
X126263400Y-110885141D01*
X126489998Y-110904966D01*
X126490002Y-110904966D01*
X126716599Y-110885141D01*
X126716610Y-110885139D01*
X126936317Y-110826269D01*
X126936331Y-110826264D01*
X127142478Y-110730136D01*
X127215471Y-110679024D01*
X126536447Y-110000000D01*
X126542661Y-110000000D01*
X126644394Y-109972741D01*
X126735606Y-109920080D01*
X126810080Y-109845606D01*
X126862741Y-109754394D01*
X126890000Y-109652661D01*
X126890000Y-109646447D01*
X127569024Y-110325471D01*
X127620136Y-110252478D01*
X127716264Y-110046331D01*
X127716269Y-110046317D01*
X127775139Y-109826610D01*
X127775141Y-109826599D01*
X127794966Y-109600002D01*
X127794966Y-109599997D01*
X127775141Y-109373400D01*
X127775139Y-109373389D01*
X127716269Y-109153682D01*
X127716264Y-109153668D01*
X127620136Y-108947521D01*
X127620132Y-108947513D01*
X127569025Y-108874526D01*
X126890000Y-109553551D01*
X126890000Y-109547339D01*
X126862741Y-109445606D01*
X126810080Y-109354394D01*
X126735606Y-109279920D01*
X126644394Y-109227259D01*
X126542661Y-109200000D01*
X126536445Y-109200000D01*
X127215472Y-108520974D01*
X127156945Y-108479993D01*
X130234700Y-108479993D01*
X130234700Y-108480006D01*
X130253864Y-108711297D01*
X130253866Y-108711308D01*
X130310842Y-108936300D01*
X130404075Y-109148848D01*
X130531016Y-109343147D01*
X130531019Y-109343151D01*
X130531021Y-109343153D01*
X130688216Y-109513913D01*
X130688219Y-109513915D01*
X130688222Y-109513918D01*
X130871365Y-109656464D01*
X130871371Y-109656468D01*
X130871374Y-109656470D01*
X131075497Y-109766936D01*
X131189487Y-109806068D01*
X131295015Y-109842297D01*
X131295017Y-109842297D01*
X131295019Y-109842298D01*
X131523951Y-109880500D01*
X131523952Y-109880500D01*
X131756048Y-109880500D01*
X131756049Y-109880500D01*
X131984981Y-109842298D01*
X132204503Y-109766936D01*
X132408626Y-109656470D01*
X132591784Y-109513913D01*
X132600511Y-109504432D01*
X132660394Y-109468441D01*
X132730232Y-109470538D01*
X132787850Y-109510060D01*
X132807924Y-109545080D01*
X132836645Y-109622086D01*
X132836649Y-109622093D01*
X132922809Y-109737187D01*
X132922812Y-109737190D01*
X133037906Y-109823350D01*
X133037913Y-109823354D01*
X133172620Y-109873596D01*
X133172627Y-109873598D01*
X133232155Y-109879999D01*
X133232172Y-109880000D01*
X133930000Y-109880000D01*
X133930000Y-108855277D01*
X134006306Y-108899333D01*
X134120756Y-108930000D01*
X134239244Y-108930000D01*
X134353694Y-108899333D01*
X134430000Y-108855277D01*
X134430000Y-109880000D01*
X135127828Y-109880000D01*
X135127844Y-109879999D01*
X135187372Y-109873598D01*
X135187379Y-109873596D01*
X135322086Y-109823354D01*
X135322093Y-109823350D01*
X135437187Y-109737190D01*
X135437190Y-109737187D01*
X135523350Y-109622093D01*
X135523354Y-109622086D01*
X135573596Y-109487379D01*
X135573598Y-109487372D01*
X135579999Y-109427844D01*
X135580000Y-109427827D01*
X135580000Y-108730000D01*
X134555278Y-108730000D01*
X134599333Y-108653694D01*
X134630000Y-108539244D01*
X134630000Y-108420756D01*
X134599333Y-108306306D01*
X134555278Y-108230000D01*
X135580000Y-108230000D01*
X135580000Y-107532172D01*
X135579999Y-107532155D01*
X135573598Y-107472627D01*
X135573596Y-107472620D01*
X135523354Y-107337913D01*
X135523350Y-107337906D01*
X135437190Y-107222812D01*
X135437187Y-107222809D01*
X135322093Y-107136649D01*
X135322086Y-107136645D01*
X135187379Y-107086403D01*
X135187372Y-107086401D01*
X135127844Y-107080000D01*
X134430000Y-107080000D01*
X134430000Y-108104722D01*
X134353694Y-108060667D01*
X134239244Y-108030000D01*
X134120756Y-108030000D01*
X134006306Y-108060667D01*
X133930000Y-108104722D01*
X133930000Y-107080000D01*
X133232155Y-107080000D01*
X133172627Y-107086401D01*
X133172620Y-107086403D01*
X133037913Y-107136645D01*
X133037906Y-107136649D01*
X132922812Y-107222809D01*
X132922809Y-107222812D01*
X132836649Y-107337906D01*
X132836646Y-107337911D01*
X132807924Y-107414920D01*
X132766052Y-107470853D01*
X132700588Y-107495270D01*
X132632315Y-107480418D01*
X132600514Y-107455571D01*
X132591784Y-107446087D01*
X132591779Y-107446083D01*
X132591777Y-107446081D01*
X132408634Y-107303535D01*
X132408628Y-107303531D01*
X132204504Y-107193064D01*
X132204495Y-107193061D01*
X131984984Y-107117702D01*
X131797404Y-107086401D01*
X131756049Y-107079500D01*
X131523951Y-107079500D01*
X131482596Y-107086401D01*
X131295015Y-107117702D01*
X131075504Y-107193061D01*
X131075495Y-107193064D01*
X130871371Y-107303531D01*
X130871365Y-107303535D01*
X130688222Y-107446081D01*
X130688219Y-107446084D01*
X130688216Y-107446086D01*
X130688216Y-107446087D01*
X130663791Y-107472620D01*
X130531016Y-107616852D01*
X130404075Y-107811151D01*
X130310842Y-108023699D01*
X130253866Y-108248691D01*
X130253864Y-108248702D01*
X130234700Y-108479993D01*
X127156945Y-108479993D01*
X127142478Y-108469863D01*
X126936331Y-108373735D01*
X126936317Y-108373730D01*
X126716610Y-108314860D01*
X126716599Y-108314858D01*
X126490002Y-108295034D01*
X126489998Y-108295034D01*
X126263400Y-108314858D01*
X126263389Y-108314860D01*
X126043682Y-108373730D01*
X126043673Y-108373734D01*
X125837516Y-108469866D01*
X125837512Y-108469868D01*
X125764526Y-108520973D01*
X125764526Y-108520974D01*
X126443553Y-109200000D01*
X126437339Y-109200000D01*
X126335606Y-109227259D01*
X126244394Y-109279920D01*
X126169920Y-109354394D01*
X126117259Y-109445606D01*
X126090000Y-109547339D01*
X126090000Y-109553552D01*
X125410974Y-108874526D01*
X125410973Y-108874526D01*
X125359868Y-108947512D01*
X125359866Y-108947516D01*
X125263734Y-109153673D01*
X125263730Y-109153682D01*
X125204860Y-109373389D01*
X125204858Y-109373400D01*
X125185034Y-109599997D01*
X101000499Y-109599997D01*
X101000499Y-108372128D01*
X101000498Y-108372127D01*
X101000321Y-108368804D01*
X101000426Y-108368798D01*
X101000000Y-108360836D01*
X101000000Y-107059167D01*
X101000427Y-107051188D01*
X101000322Y-107051183D01*
X101000497Y-107047898D01*
X101000500Y-107047873D01*
X101000499Y-104412128D01*
X101000498Y-104412127D01*
X101000321Y-104408804D01*
X101000426Y-104408798D01*
X101000000Y-104400836D01*
X101000000Y-104060000D01*
X106903968Y-104060000D01*
X108041518Y-104060000D01*
X108030889Y-104078409D01*
X107990000Y-104231009D01*
X107990000Y-104388991D01*
X108030889Y-104541591D01*
X108041518Y-104560000D01*
X106903968Y-104560000D01*
X106904274Y-104564079D01*
X106904275Y-104564086D01*
X106960967Y-104812475D01*
X106960973Y-104812494D01*
X107054058Y-105049671D01*
X107054057Y-105049671D01*
X107181455Y-105270328D01*
X107340320Y-105469540D01*
X107527097Y-105642842D01*
X107737616Y-105786371D01*
X107737624Y-105786376D01*
X107967176Y-105896921D01*
X107967174Y-105896921D01*
X108210652Y-105972024D01*
X108210660Y-105972026D01*
X108340000Y-105991520D01*
X108340000Y-104858482D01*
X108358409Y-104869111D01*
X108511009Y-104910000D01*
X108668991Y-104910000D01*
X108821591Y-104869111D01*
X108840000Y-104858482D01*
X108840000Y-105991519D01*
X108969339Y-105972026D01*
X108969347Y-105972024D01*
X109212824Y-105896921D01*
X109442376Y-105786376D01*
X109442377Y-105786375D01*
X109652905Y-105642840D01*
X109839679Y-105469540D01*
X109998544Y-105270328D01*
X110125941Y-105049671D01*
X110219026Y-104812494D01*
X110219032Y-104812475D01*
X110275724Y-104564086D01*
X110275725Y-104564079D01*
X110276032Y-104560000D01*
X109138482Y-104560000D01*
X109149111Y-104541591D01*
X109190000Y-104388991D01*
X109190000Y-104231009D01*
X109149111Y-104078409D01*
X109138482Y-104060000D01*
X110276031Y-104060000D01*
X117453968Y-104060000D01*
X118591518Y-104060000D01*
X118580889Y-104078409D01*
X118540000Y-104231009D01*
X118540000Y-104388991D01*
X118580889Y-104541591D01*
X118591518Y-104560000D01*
X117453968Y-104560000D01*
X117454274Y-104564079D01*
X117454275Y-104564086D01*
X117510967Y-104812475D01*
X117510973Y-104812494D01*
X117604058Y-105049671D01*
X117604057Y-105049671D01*
X117731455Y-105270328D01*
X117890320Y-105469540D01*
X118077097Y-105642842D01*
X118287616Y-105786371D01*
X118287624Y-105786376D01*
X118517176Y-105896921D01*
X118517174Y-105896921D01*
X118760652Y-105972024D01*
X118760660Y-105972026D01*
X118890000Y-105991520D01*
X118890000Y-104858482D01*
X118908409Y-104869111D01*
X119061009Y-104910000D01*
X119218991Y-104910000D01*
X119371591Y-104869111D01*
X119390000Y-104858482D01*
X119390000Y-105991519D01*
X119519339Y-105972026D01*
X119519347Y-105972024D01*
X119762824Y-105896921D01*
X119992376Y-105786376D01*
X119992377Y-105786375D01*
X120202905Y-105642840D01*
X120389679Y-105469540D01*
X120548544Y-105270328D01*
X120675941Y-105049671D01*
X120769026Y-104812494D01*
X120769032Y-104812475D01*
X120817527Y-104599998D01*
X125184532Y-104599998D01*
X125184532Y-104600001D01*
X125204364Y-104826686D01*
X125204366Y-104826697D01*
X125263258Y-105046488D01*
X125263261Y-105046497D01*
X125359431Y-105252732D01*
X125359432Y-105252734D01*
X125489954Y-105439141D01*
X125650858Y-105600045D01*
X125650861Y-105600047D01*
X125837266Y-105730568D01*
X126043504Y-105826739D01*
X126263308Y-105885635D01*
X126425230Y-105899801D01*
X126489998Y-105905468D01*
X126490000Y-105905468D01*
X126490002Y-105905468D01*
X126546673Y-105900509D01*
X126716692Y-105885635D01*
X126936496Y-105826739D01*
X127142734Y-105730568D01*
X127329139Y-105600047D01*
X127490047Y-105439139D01*
X127620568Y-105252734D01*
X127716739Y-105046496D01*
X127775635Y-104826692D01*
X127795468Y-104600000D01*
X127791968Y-104560000D01*
X127779031Y-104412128D01*
X127775635Y-104373308D01*
X127716739Y-104153504D01*
X127620568Y-103947266D01*
X127490047Y-103760861D01*
X127490045Y-103760858D01*
X127329141Y-103599954D01*
X127142734Y-103469432D01*
X127142732Y-103469431D01*
X126936497Y-103373261D01*
X126936488Y-103373258D01*
X126716697Y-103314366D01*
X126716693Y-103314365D01*
X126716692Y-103314365D01*
X126716691Y-103314364D01*
X126716686Y-103314364D01*
X126490002Y-103294532D01*
X126489998Y-103294532D01*
X126263313Y-103314364D01*
X126263302Y-103314366D01*
X126043511Y-103373258D01*
X126043502Y-103373261D01*
X125837267Y-103469431D01*
X125837265Y-103469432D01*
X125650858Y-103599954D01*
X125489954Y-103760858D01*
X125359432Y-103947265D01*
X125359431Y-103947267D01*
X125263261Y-104153502D01*
X125263258Y-104153511D01*
X125204366Y-104373302D01*
X125204364Y-104373313D01*
X125184532Y-104599998D01*
X120817527Y-104599998D01*
X120825724Y-104564086D01*
X120825725Y-104564079D01*
X120826032Y-104560000D01*
X119688482Y-104560000D01*
X119699111Y-104541591D01*
X119740000Y-104388991D01*
X119740000Y-104231009D01*
X119699111Y-104078409D01*
X119688482Y-104060000D01*
X120826031Y-104060000D01*
X120825725Y-104055920D01*
X120825724Y-104055913D01*
X120769032Y-103807524D01*
X120769026Y-103807505D01*
X120675941Y-103570328D01*
X120675942Y-103570328D01*
X120548544Y-103349671D01*
X120389679Y-103150459D01*
X120202905Y-102977159D01*
X119992377Y-102833624D01*
X119992376Y-102833623D01*
X119762823Y-102723078D01*
X119762825Y-102723078D01*
X119519354Y-102647977D01*
X119519348Y-102647976D01*
X119390000Y-102628479D01*
X119390000Y-103761517D01*
X119371591Y-103750889D01*
X119218991Y-103710000D01*
X119061009Y-103710000D01*
X118908409Y-103750889D01*
X118890000Y-103761517D01*
X118890000Y-102628479D01*
X118760651Y-102647976D01*
X118760645Y-102647977D01*
X118517175Y-102723078D01*
X118287624Y-102833623D01*
X118287616Y-102833628D01*
X118077097Y-102977157D01*
X117890320Y-103150459D01*
X117731455Y-103349671D01*
X117604058Y-103570328D01*
X117510973Y-103807505D01*
X117510967Y-103807524D01*
X117454275Y-104055913D01*
X117454274Y-104055920D01*
X117453968Y-104060000D01*
X110276031Y-104060000D01*
X110275725Y-104055920D01*
X110275724Y-104055913D01*
X110219032Y-103807524D01*
X110219026Y-103807505D01*
X110125941Y-103570328D01*
X110125942Y-103570328D01*
X109998544Y-103349671D01*
X109839679Y-103150459D01*
X109652905Y-102977159D01*
X109442377Y-102833624D01*
X109442376Y-102833623D01*
X109212823Y-102723078D01*
X109212825Y-102723078D01*
X108969354Y-102647977D01*
X108969348Y-102647976D01*
X108840000Y-102628479D01*
X108840000Y-103761517D01*
X108821591Y-103750889D01*
X108668991Y-103710000D01*
X108511009Y-103710000D01*
X108358409Y-103750889D01*
X108340000Y-103761517D01*
X108340000Y-102628479D01*
X108210651Y-102647976D01*
X108210645Y-102647977D01*
X107967175Y-102723078D01*
X107737624Y-102833623D01*
X107737616Y-102833628D01*
X107527097Y-102977157D01*
X107340320Y-103150459D01*
X107181455Y-103349671D01*
X107054058Y-103570328D01*
X106960973Y-103807505D01*
X106960967Y-103807524D01*
X106904275Y-104055913D01*
X106904274Y-104055920D01*
X106903968Y-104060000D01*
X101000000Y-104060000D01*
X101000000Y-103099167D01*
X101000427Y-103091188D01*
X101000322Y-103091183D01*
X101000497Y-103087898D01*
X101000500Y-103087873D01*
X101000500Y-102039998D01*
X128154532Y-102039998D01*
X128154532Y-102040001D01*
X128174364Y-102266686D01*
X128174366Y-102266697D01*
X128233258Y-102486488D01*
X128233261Y-102486497D01*
X128329431Y-102692732D01*
X128329432Y-102692734D01*
X128459954Y-102879141D01*
X128620858Y-103040045D01*
X128620861Y-103040047D01*
X128807266Y-103170568D01*
X129013504Y-103266739D01*
X129233308Y-103325635D01*
X129395230Y-103339801D01*
X129459998Y-103345468D01*
X129460000Y-103345468D01*
X129460002Y-103345468D01*
X129516673Y-103340509D01*
X129686692Y-103325635D01*
X129906496Y-103266739D01*
X130112734Y-103170568D01*
X130299139Y-103040047D01*
X130460047Y-102879139D01*
X130590568Y-102692734D01*
X130686739Y-102486496D01*
X130745635Y-102266692D01*
X130765468Y-102040000D01*
X130765468Y-102039998D01*
X135774532Y-102039998D01*
X135774532Y-102040001D01*
X135794364Y-102266686D01*
X135794366Y-102266697D01*
X135853258Y-102486488D01*
X135853261Y-102486497D01*
X135949431Y-102692732D01*
X135949432Y-102692734D01*
X136079954Y-102879141D01*
X136240858Y-103040045D01*
X136240861Y-103040047D01*
X136427266Y-103170568D01*
X136633504Y-103266739D01*
X136853308Y-103325635D01*
X137015230Y-103339801D01*
X137079998Y-103345468D01*
X137080000Y-103345468D01*
X137080002Y-103345468D01*
X137136673Y-103340509D01*
X137306692Y-103325635D01*
X137526496Y-103266739D01*
X137732734Y-103170568D01*
X137919139Y-103040047D01*
X138080047Y-102879139D01*
X138210568Y-102692734D01*
X138306739Y-102486496D01*
X138365635Y-102266692D01*
X138385468Y-102040000D01*
X138365635Y-101813308D01*
X138306739Y-101593504D01*
X138210568Y-101387266D01*
X138080047Y-101200861D01*
X138080045Y-101200858D01*
X137919141Y-101039954D01*
X137732734Y-100909432D01*
X137732732Y-100909431D01*
X137526497Y-100813261D01*
X137526488Y-100813258D01*
X137306697Y-100754366D01*
X137306693Y-100754365D01*
X137306692Y-100754365D01*
X137306691Y-100754364D01*
X137306686Y-100754364D01*
X137080002Y-100734532D01*
X137079998Y-100734532D01*
X136853313Y-100754364D01*
X136853302Y-100754366D01*
X136633511Y-100813258D01*
X136633502Y-100813261D01*
X136427267Y-100909431D01*
X136427265Y-100909432D01*
X136240858Y-101039954D01*
X136079954Y-101200858D01*
X135949432Y-101387265D01*
X135949431Y-101387267D01*
X135853261Y-101593502D01*
X135853258Y-101593511D01*
X135794366Y-101813302D01*
X135794364Y-101813313D01*
X135774532Y-102039998D01*
X130765468Y-102039998D01*
X130745635Y-101813308D01*
X130686739Y-101593504D01*
X130590568Y-101387266D01*
X130460047Y-101200861D01*
X130460045Y-101200858D01*
X130299141Y-101039954D01*
X130112734Y-100909432D01*
X130112732Y-100909431D01*
X129906497Y-100813261D01*
X129906488Y-100813258D01*
X129686697Y-100754366D01*
X129686693Y-100754365D01*
X129686692Y-100754365D01*
X129686691Y-100754364D01*
X129686686Y-100754364D01*
X129460002Y-100734532D01*
X129459998Y-100734532D01*
X129233313Y-100754364D01*
X129233302Y-100754366D01*
X129013511Y-100813258D01*
X129013502Y-100813261D01*
X128807267Y-100909431D01*
X128807265Y-100909432D01*
X128620858Y-101039954D01*
X128459954Y-101200858D01*
X128329432Y-101387265D01*
X128329431Y-101387267D01*
X128233261Y-101593502D01*
X128233258Y-101593511D01*
X128174366Y-101813302D01*
X128174364Y-101813313D01*
X128154532Y-102039998D01*
X101000500Y-102039998D01*
X101000499Y-100452128D01*
X101000498Y-100452127D01*
X101000321Y-100448804D01*
X101000426Y-100448798D01*
X101000000Y-100440836D01*
X101000000Y-99139167D01*
X101000427Y-99131188D01*
X101000322Y-99131183D01*
X101000497Y-99127898D01*
X101000500Y-99127873D01*
X101000499Y-97029994D01*
X128584859Y-97029994D01*
X128584859Y-97030005D01*
X128605385Y-97277729D01*
X128605387Y-97277738D01*
X128666412Y-97518717D01*
X128766267Y-97746367D01*
X128866562Y-97899881D01*
X129566212Y-97200233D01*
X129577482Y-97242292D01*
X129649890Y-97367708D01*
X129752292Y-97470110D01*
X129877708Y-97542518D01*
X129919766Y-97553787D01*
X129219943Y-98253609D01*
X129266768Y-98290055D01*
X129266771Y-98290057D01*
X129485385Y-98408364D01*
X129485396Y-98408369D01*
X129720506Y-98489083D01*
X129965707Y-98530000D01*
X130214293Y-98530000D01*
X130459493Y-98489083D01*
X130694603Y-98408369D01*
X130694614Y-98408364D01*
X130913230Y-98290056D01*
X130913236Y-98290051D01*
X130960055Y-98253610D01*
X130960056Y-98253609D01*
X130260233Y-97553787D01*
X130302292Y-97542518D01*
X130427708Y-97470110D01*
X130530110Y-97367708D01*
X130602518Y-97242292D01*
X130613787Y-97200234D01*
X131313435Y-97899882D01*
X131413733Y-97746364D01*
X131513587Y-97518717D01*
X131574612Y-97277738D01*
X131574614Y-97277729D01*
X131595141Y-97030005D01*
X131595141Y-97029994D01*
X135084859Y-97029994D01*
X135084859Y-97030005D01*
X135105385Y-97277729D01*
X135105387Y-97277738D01*
X135166412Y-97518717D01*
X135266267Y-97746367D01*
X135366562Y-97899881D01*
X136066212Y-97200233D01*
X136077482Y-97242292D01*
X136149890Y-97367708D01*
X136252292Y-97470110D01*
X136377708Y-97542518D01*
X136419766Y-97553787D01*
X135719943Y-98253609D01*
X135766768Y-98290055D01*
X135766771Y-98290057D01*
X135985385Y-98408364D01*
X135985396Y-98408369D01*
X136220506Y-98489083D01*
X136465707Y-98530000D01*
X136714293Y-98530000D01*
X136959493Y-98489083D01*
X137194603Y-98408369D01*
X137194614Y-98408364D01*
X137413230Y-98290056D01*
X137413236Y-98290051D01*
X137460055Y-98253610D01*
X137460056Y-98253609D01*
X136760233Y-97553787D01*
X136802292Y-97542518D01*
X136927708Y-97470110D01*
X137030110Y-97367708D01*
X137102518Y-97242292D01*
X137113787Y-97200234D01*
X137813435Y-97899882D01*
X137913733Y-97746364D01*
X138013587Y-97518717D01*
X138074612Y-97277738D01*
X138074614Y-97277729D01*
X138095141Y-97030005D01*
X138095141Y-97029994D01*
X138074614Y-96782270D01*
X138074612Y-96782261D01*
X138013587Y-96541282D01*
X137913732Y-96313632D01*
X137813435Y-96160116D01*
X137113787Y-96859765D01*
X137102518Y-96817708D01*
X137030110Y-96692292D01*
X136927708Y-96589890D01*
X136802292Y-96517482D01*
X136760233Y-96506212D01*
X137460055Y-95806389D01*
X137460055Y-95806388D01*
X137413236Y-95769947D01*
X137413231Y-95769944D01*
X137194614Y-95651635D01*
X137194603Y-95651630D01*
X136959493Y-95570916D01*
X136714293Y-95530000D01*
X136465707Y-95530000D01*
X136220506Y-95570916D01*
X135985396Y-95651630D01*
X135985385Y-95651635D01*
X135766770Y-95769943D01*
X135719943Y-95806389D01*
X136419766Y-96506212D01*
X136377708Y-96517482D01*
X136252292Y-96589890D01*
X136149890Y-96692292D01*
X136077482Y-96817708D01*
X136066212Y-96859766D01*
X135366563Y-96160117D01*
X135266267Y-96313633D01*
X135266265Y-96313637D01*
X135166412Y-96541282D01*
X135105387Y-96782261D01*
X135105385Y-96782270D01*
X135084859Y-97029994D01*
X131595141Y-97029994D01*
X131574614Y-96782270D01*
X131574612Y-96782261D01*
X131513587Y-96541282D01*
X131413732Y-96313632D01*
X131313435Y-96160116D01*
X130613787Y-96859765D01*
X130602518Y-96817708D01*
X130530110Y-96692292D01*
X130427708Y-96589890D01*
X130302292Y-96517482D01*
X130260233Y-96506212D01*
X130960055Y-95806389D01*
X130960055Y-95806388D01*
X130913236Y-95769947D01*
X130913231Y-95769944D01*
X130694614Y-95651635D01*
X130694603Y-95651630D01*
X130459493Y-95570916D01*
X130214293Y-95530000D01*
X129965707Y-95530000D01*
X129720506Y-95570916D01*
X129485396Y-95651630D01*
X129485385Y-95651635D01*
X129266770Y-95769943D01*
X129219943Y-95806389D01*
X129919766Y-96506212D01*
X129877708Y-96517482D01*
X129752292Y-96589890D01*
X129649890Y-96692292D01*
X129577482Y-96817708D01*
X129566212Y-96859766D01*
X128866563Y-96160117D01*
X128766267Y-96313633D01*
X128766265Y-96313637D01*
X128666412Y-96541282D01*
X128605387Y-96782261D01*
X128605385Y-96782270D01*
X128584859Y-97029994D01*
X101000499Y-97029994D01*
X101000499Y-96492128D01*
X101000498Y-96492127D01*
X101000321Y-96488804D01*
X101000426Y-96488798D01*
X101000000Y-96480836D01*
X101000000Y-95179167D01*
X101000427Y-95171188D01*
X101000322Y-95171183D01*
X101000497Y-95167898D01*
X101000500Y-95167873D01*
X101000499Y-92532128D01*
X101000498Y-92532127D01*
X101000384Y-92529994D01*
X128584357Y-92529994D01*
X128584357Y-92530005D01*
X128604890Y-92777812D01*
X128604892Y-92777824D01*
X128665936Y-93018881D01*
X128765826Y-93246606D01*
X128901833Y-93454782D01*
X128901836Y-93454785D01*
X129070256Y-93637738D01*
X129266491Y-93790474D01*
X129485190Y-93908828D01*
X129720386Y-93989571D01*
X129965665Y-94030500D01*
X130214335Y-94030500D01*
X130459614Y-93989571D01*
X130694810Y-93908828D01*
X130913509Y-93790474D01*
X131109744Y-93637738D01*
X131278164Y-93454785D01*
X131414173Y-93246607D01*
X131514063Y-93018881D01*
X131575108Y-92777821D01*
X131578445Y-92737547D01*
X131595643Y-92530005D01*
X131595643Y-92529994D01*
X135084357Y-92529994D01*
X135084357Y-92530005D01*
X135104890Y-92777812D01*
X135104892Y-92777824D01*
X135165936Y-93018881D01*
X135265826Y-93246606D01*
X135401833Y-93454782D01*
X135401836Y-93454785D01*
X135570256Y-93637738D01*
X135766491Y-93790474D01*
X135985190Y-93908828D01*
X136220386Y-93989571D01*
X136465665Y-94030500D01*
X136714335Y-94030500D01*
X136959614Y-93989571D01*
X137194810Y-93908828D01*
X137413509Y-93790474D01*
X137609744Y-93637738D01*
X137778164Y-93454785D01*
X137914173Y-93246607D01*
X138014063Y-93018881D01*
X138075108Y-92777821D01*
X138078445Y-92737547D01*
X138095643Y-92530005D01*
X138095643Y-92529994D01*
X138075109Y-92282187D01*
X138075107Y-92282175D01*
X138014063Y-92041118D01*
X137914173Y-91813393D01*
X137778166Y-91605217D01*
X137756557Y-91581744D01*
X137609744Y-91422262D01*
X137413509Y-91269526D01*
X137413507Y-91269525D01*
X137413506Y-91269524D01*
X137194811Y-91151172D01*
X137194802Y-91151169D01*
X136959616Y-91070429D01*
X136714335Y-91029500D01*
X136465665Y-91029500D01*
X136220383Y-91070429D01*
X135985197Y-91151169D01*
X135985188Y-91151172D01*
X135766493Y-91269524D01*
X135570257Y-91422261D01*
X135401833Y-91605217D01*
X135265826Y-91813393D01*
X135165936Y-92041118D01*
X135104892Y-92282175D01*
X135104890Y-92282187D01*
X135084357Y-92529994D01*
X131595643Y-92529994D01*
X131575109Y-92282187D01*
X131575107Y-92282175D01*
X131514063Y-92041118D01*
X131414173Y-91813393D01*
X131278166Y-91605217D01*
X131256557Y-91581744D01*
X131109744Y-91422262D01*
X130913509Y-91269526D01*
X130913507Y-91269525D01*
X130913506Y-91269524D01*
X130694811Y-91151172D01*
X130694802Y-91151169D01*
X130459616Y-91070429D01*
X130214335Y-91029500D01*
X129965665Y-91029500D01*
X129720383Y-91070429D01*
X129485197Y-91151169D01*
X129485188Y-91151172D01*
X129266493Y-91269524D01*
X129070257Y-91422261D01*
X128901833Y-91605217D01*
X128765826Y-91813393D01*
X128665936Y-92041118D01*
X128604892Y-92282175D01*
X128604890Y-92282187D01*
X128584357Y-92529994D01*
X101000384Y-92529994D01*
X101000321Y-92528804D01*
X101000426Y-92528798D01*
X101000000Y-92520836D01*
X101000000Y-91219167D01*
X101000427Y-91211188D01*
X101000322Y-91211183D01*
X101000497Y-91207898D01*
X101000500Y-91207873D01*
X101000499Y-88572128D01*
X101000498Y-88572127D01*
X101000321Y-88568804D01*
X101000426Y-88568798D01*
X101000000Y-88560836D01*
X101000000Y-87259167D01*
X101000427Y-87251188D01*
X101000322Y-87251183D01*
X101000497Y-87247898D01*
X101000500Y-87247873D01*
X101000499Y-84612128D01*
X101000498Y-84612127D01*
X101000321Y-84608804D01*
X101000426Y-84608798D01*
X101000000Y-84600836D01*
X101000000Y-79339167D01*
X101000427Y-79331188D01*
X101000322Y-79331183D01*
X101000497Y-79327898D01*
X101000500Y-79327873D01*
X101000499Y-76692128D01*
X101000498Y-76692127D01*
X101000321Y-76688804D01*
X101000426Y-76688798D01*
X101000000Y-76680836D01*
X101000000Y-75417155D01*
X128272500Y-75417155D01*
X128272500Y-76015000D01*
X129256814Y-76015000D01*
X129252420Y-76019394D01*
X129199759Y-76110606D01*
X129172500Y-76212339D01*
X129172500Y-76317661D01*
X129199759Y-76419394D01*
X129252420Y-76510606D01*
X129256814Y-76515000D01*
X128272500Y-76515000D01*
X128272500Y-77112844D01*
X128278901Y-77172372D01*
X128278903Y-77172379D01*
X128329145Y-77307086D01*
X128329149Y-77307093D01*
X128415309Y-77422187D01*
X128415312Y-77422190D01*
X128530406Y-77508350D01*
X128530413Y-77508354D01*
X128665120Y-77558596D01*
X128701475Y-77562505D01*
X128766026Y-77589243D01*
X128805875Y-77646635D01*
X128808369Y-77716460D01*
X128772718Y-77776549D01*
X128759347Y-77787368D01*
X128733682Y-77805339D01*
X128572842Y-77966179D01*
X128442365Y-78152517D01*
X128346234Y-78358673D01*
X128346230Y-78358682D01*
X128293627Y-78554999D01*
X128293628Y-78555000D01*
X129256814Y-78555000D01*
X129252420Y-78559394D01*
X129199759Y-78650606D01*
X129172500Y-78752339D01*
X129172500Y-78857661D01*
X129199759Y-78959394D01*
X129252420Y-79050606D01*
X129256814Y-79055000D01*
X128293628Y-79055000D01*
X128346230Y-79251317D01*
X128346234Y-79251326D01*
X128442365Y-79457482D01*
X128572842Y-79643820D01*
X128733679Y-79804657D01*
X128920017Y-79935134D01*
X128978957Y-79962618D01*
X129031396Y-80008790D01*
X129050548Y-80075984D01*
X129030332Y-80142865D01*
X128978957Y-80187382D01*
X128920017Y-80214865D01*
X128733679Y-80345342D01*
X128572842Y-80506179D01*
X128442365Y-80692517D01*
X128346234Y-80898673D01*
X128346230Y-80898682D01*
X128293627Y-81094999D01*
X128293628Y-81095000D01*
X129256814Y-81095000D01*
X129252420Y-81099394D01*
X129199759Y-81190606D01*
X129172500Y-81292339D01*
X129172500Y-81397661D01*
X129199759Y-81499394D01*
X129252420Y-81590606D01*
X129256814Y-81595000D01*
X128293628Y-81595000D01*
X128346230Y-81791317D01*
X128346234Y-81791326D01*
X128442365Y-81997482D01*
X128572842Y-82183820D01*
X128733679Y-82344657D01*
X128920017Y-82475134D01*
X128978957Y-82502618D01*
X129031396Y-82548790D01*
X129050548Y-82615984D01*
X129030332Y-82682865D01*
X128978957Y-82727382D01*
X128920017Y-82754865D01*
X128733679Y-82885342D01*
X128572842Y-83046179D01*
X128442365Y-83232517D01*
X128346234Y-83438673D01*
X128346230Y-83438682D01*
X128293627Y-83634999D01*
X128293628Y-83635000D01*
X129256814Y-83635000D01*
X129252420Y-83639394D01*
X129199759Y-83730606D01*
X129172500Y-83832339D01*
X129172500Y-83937661D01*
X129199759Y-84039394D01*
X129252420Y-84130606D01*
X129256814Y-84135000D01*
X128293628Y-84135000D01*
X128346230Y-84331317D01*
X128346234Y-84331326D01*
X128442365Y-84537482D01*
X128572842Y-84723820D01*
X128733679Y-84884657D01*
X128920017Y-85015134D01*
X128978957Y-85042618D01*
X129031396Y-85088790D01*
X129050548Y-85155984D01*
X129030332Y-85222865D01*
X128978957Y-85267382D01*
X128920017Y-85294865D01*
X128733679Y-85425342D01*
X128572842Y-85586179D01*
X128442365Y-85772517D01*
X128346234Y-85978673D01*
X128346230Y-85978682D01*
X128293627Y-86174999D01*
X128293628Y-86175000D01*
X129256814Y-86175000D01*
X129252420Y-86179394D01*
X129199759Y-86270606D01*
X129172500Y-86372339D01*
X129172500Y-86477661D01*
X129199759Y-86579394D01*
X129252420Y-86670606D01*
X129256814Y-86675000D01*
X128293628Y-86675000D01*
X128346230Y-86871317D01*
X128346234Y-86871326D01*
X128442365Y-87077482D01*
X128572842Y-87263820D01*
X128733679Y-87424657D01*
X128920017Y-87555134D01*
X129126173Y-87651265D01*
X129126182Y-87651269D01*
X129322499Y-87703872D01*
X129322500Y-87703871D01*
X129322500Y-86740686D01*
X129326894Y-86745080D01*
X129418106Y-86797741D01*
X129519839Y-86825000D01*
X129625161Y-86825000D01*
X129726894Y-86797741D01*
X129818106Y-86745080D01*
X129822500Y-86740686D01*
X129822500Y-87703872D01*
X130018817Y-87651269D01*
X130018826Y-87651265D01*
X130224982Y-87555134D01*
X130411320Y-87424657D01*
X130572157Y-87263820D01*
X130702634Y-87077482D01*
X130798765Y-86871326D01*
X130798769Y-86871317D01*
X130851372Y-86675000D01*
X129888186Y-86675000D01*
X129892580Y-86670606D01*
X129945241Y-86579394D01*
X129972500Y-86477661D01*
X129972500Y-86372339D01*
X129945241Y-86270606D01*
X129892580Y-86179394D01*
X129888186Y-86175000D01*
X130851372Y-86175000D01*
X130851372Y-86174999D01*
X130798769Y-85978682D01*
X130798765Y-85978673D01*
X130702634Y-85772517D01*
X130572157Y-85586179D01*
X130411320Y-85425342D01*
X130224981Y-85294865D01*
X130224979Y-85294864D01*
X130166043Y-85267382D01*
X130113603Y-85221210D01*
X130094451Y-85154017D01*
X130114666Y-85087136D01*
X130166043Y-85042618D01*
X130224979Y-85015135D01*
X130224981Y-85015134D01*
X130411320Y-84884657D01*
X130572157Y-84723820D01*
X130702634Y-84537482D01*
X130798765Y-84331326D01*
X130798769Y-84331317D01*
X130851372Y-84135000D01*
X129888186Y-84135000D01*
X129892580Y-84130606D01*
X129945241Y-84039394D01*
X129972500Y-83937661D01*
X129972500Y-83832339D01*
X129945241Y-83730606D01*
X129892580Y-83639394D01*
X129888186Y-83635000D01*
X130851372Y-83635000D01*
X130851372Y-83634999D01*
X130798769Y-83438682D01*
X130798765Y-83438673D01*
X130702634Y-83232517D01*
X130572157Y-83046179D01*
X130411320Y-82885342D01*
X130224981Y-82754865D01*
X130224979Y-82754864D01*
X130166043Y-82727382D01*
X130113603Y-82681210D01*
X130094451Y-82614017D01*
X130114666Y-82547136D01*
X130166043Y-82502618D01*
X130224979Y-82475135D01*
X130224981Y-82475134D01*
X130411320Y-82344657D01*
X130572157Y-82183820D01*
X130702634Y-81997482D01*
X130798765Y-81791326D01*
X130798769Y-81791317D01*
X130851372Y-81595000D01*
X129888186Y-81595000D01*
X129892580Y-81590606D01*
X129945241Y-81499394D01*
X129972500Y-81397661D01*
X129972500Y-81292339D01*
X129945241Y-81190606D01*
X129892580Y-81099394D01*
X129888186Y-81095000D01*
X130851372Y-81095000D01*
X130851372Y-81094999D01*
X130798769Y-80898682D01*
X130798765Y-80898673D01*
X130702634Y-80692517D01*
X130572157Y-80506179D01*
X130411320Y-80345342D01*
X130224981Y-80214865D01*
X130224979Y-80214864D01*
X130166043Y-80187382D01*
X130113603Y-80141210D01*
X130094451Y-80074017D01*
X130114666Y-80007136D01*
X130166043Y-79962618D01*
X130224979Y-79935135D01*
X130224981Y-79935134D01*
X130411320Y-79804657D01*
X130572157Y-79643820D01*
X130702634Y-79457482D01*
X130798765Y-79251326D01*
X130798769Y-79251317D01*
X130851372Y-79055000D01*
X129888186Y-79055000D01*
X129892580Y-79050606D01*
X129945241Y-78959394D01*
X129972500Y-78857661D01*
X129972500Y-78752339D01*
X129945241Y-78650606D01*
X129892580Y-78559394D01*
X129888186Y-78555000D01*
X130851372Y-78555000D01*
X130851372Y-78554999D01*
X130798769Y-78358682D01*
X130798765Y-78358673D01*
X130702634Y-78152517D01*
X130572157Y-77966179D01*
X130411318Y-77805340D01*
X130385653Y-77787369D01*
X130342029Y-77732792D01*
X130334837Y-77663293D01*
X130366360Y-77600939D01*
X130426590Y-77565526D01*
X130443524Y-77562505D01*
X130479879Y-77558596D01*
X130614586Y-77508354D01*
X130614593Y-77508350D01*
X130729687Y-77422190D01*
X130729690Y-77422187D01*
X130815850Y-77307093D01*
X130815854Y-77307086D01*
X130866096Y-77172379D01*
X130866098Y-77172372D01*
X130872499Y-77112844D01*
X130872500Y-77112827D01*
X130872500Y-76515000D01*
X129888186Y-76515000D01*
X129892580Y-76510606D01*
X129945241Y-76419394D01*
X129972500Y-76317661D01*
X129972500Y-76264998D01*
X135887032Y-76264998D01*
X135887032Y-76265001D01*
X135906864Y-76491686D01*
X135906866Y-76491697D01*
X135965758Y-76711488D01*
X135965761Y-76711497D01*
X136061931Y-76917732D01*
X136061932Y-76917734D01*
X136192454Y-77104141D01*
X136353358Y-77265045D01*
X136353361Y-77265047D01*
X136539766Y-77395568D01*
X136596857Y-77422190D01*
X136597775Y-77422618D01*
X136650214Y-77468791D01*
X136669366Y-77535984D01*
X136649150Y-77602865D01*
X136597775Y-77647382D01*
X136539767Y-77674431D01*
X136539765Y-77674432D01*
X136353358Y-77804954D01*
X136192454Y-77965858D01*
X136061932Y-78152265D01*
X136061931Y-78152267D01*
X135965761Y-78358502D01*
X135965758Y-78358511D01*
X135906866Y-78578302D01*
X135906864Y-78578313D01*
X135887032Y-78804998D01*
X135887032Y-78805001D01*
X135906864Y-79031686D01*
X135906866Y-79031697D01*
X135965758Y-79251488D01*
X135965761Y-79251497D01*
X136061931Y-79457732D01*
X136061932Y-79457734D01*
X136192454Y-79644141D01*
X136353358Y-79805045D01*
X136353361Y-79805047D01*
X136539766Y-79935568D01*
X136593383Y-79960570D01*
X136597775Y-79962618D01*
X136650214Y-80008791D01*
X136669366Y-80075984D01*
X136649150Y-80142865D01*
X136597775Y-80187382D01*
X136539767Y-80214431D01*
X136539765Y-80214432D01*
X136353358Y-80344954D01*
X136192454Y-80505858D01*
X136061932Y-80692265D01*
X136061931Y-80692267D01*
X135965761Y-80898502D01*
X135965758Y-80898511D01*
X135906866Y-81118302D01*
X135906864Y-81118313D01*
X135887032Y-81344998D01*
X135887032Y-81345001D01*
X135906864Y-81571686D01*
X135906866Y-81571697D01*
X135965758Y-81791488D01*
X135965761Y-81791497D01*
X136061931Y-81997732D01*
X136061932Y-81997734D01*
X136192454Y-82184141D01*
X136353358Y-82345045D01*
X136353361Y-82345047D01*
X136539766Y-82475568D01*
X136593383Y-82500570D01*
X136597775Y-82502618D01*
X136650214Y-82548791D01*
X136669366Y-82615984D01*
X136649150Y-82682865D01*
X136597775Y-82727382D01*
X136539767Y-82754431D01*
X136539765Y-82754432D01*
X136353358Y-82884954D01*
X136192454Y-83045858D01*
X136061932Y-83232265D01*
X136061931Y-83232267D01*
X135965761Y-83438502D01*
X135965758Y-83438511D01*
X135906866Y-83658302D01*
X135906864Y-83658313D01*
X135887032Y-83884998D01*
X135887032Y-83885001D01*
X135906864Y-84111686D01*
X135906866Y-84111697D01*
X135965758Y-84331488D01*
X135965761Y-84331497D01*
X136061931Y-84537732D01*
X136061932Y-84537734D01*
X136192454Y-84724141D01*
X136353358Y-84885045D01*
X136353361Y-84885047D01*
X136539766Y-85015568D01*
X136593383Y-85040570D01*
X136597775Y-85042618D01*
X136650214Y-85088791D01*
X136669366Y-85155984D01*
X136649150Y-85222865D01*
X136597775Y-85267382D01*
X136539767Y-85294431D01*
X136539765Y-85294432D01*
X136353358Y-85424954D01*
X136192454Y-85585858D01*
X136061932Y-85772265D01*
X136061931Y-85772267D01*
X135965761Y-85978502D01*
X135965758Y-85978511D01*
X135906866Y-86198302D01*
X135906864Y-86198313D01*
X135887032Y-86424998D01*
X135887032Y-86425001D01*
X135906864Y-86651686D01*
X135906866Y-86651697D01*
X135965758Y-86871488D01*
X135965761Y-86871497D01*
X136061931Y-87077732D01*
X136061932Y-87077734D01*
X136192454Y-87264141D01*
X136353358Y-87425045D01*
X136353361Y-87425047D01*
X136539766Y-87555568D01*
X136746004Y-87651739D01*
X136746009Y-87651740D01*
X136746011Y-87651741D01*
X136753662Y-87653791D01*
X136965808Y-87710635D01*
X137127730Y-87724801D01*
X137192498Y-87730468D01*
X137192500Y-87730468D01*
X137192502Y-87730468D01*
X137249173Y-87725509D01*
X137419192Y-87710635D01*
X137638996Y-87651739D01*
X137845234Y-87555568D01*
X138031639Y-87425047D01*
X138192547Y-87264139D01*
X138323068Y-87077734D01*
X138419239Y-86871496D01*
X138478135Y-86651692D01*
X138497968Y-86425000D01*
X138478135Y-86198308D01*
X138419239Y-85978504D01*
X138323068Y-85772266D01*
X138192547Y-85585861D01*
X138192545Y-85585858D01*
X138031641Y-85424954D01*
X137845234Y-85294432D01*
X137845228Y-85294429D01*
X137817538Y-85281517D01*
X137787224Y-85267381D01*
X137734785Y-85221210D01*
X137715633Y-85154017D01*
X137735848Y-85087135D01*
X137787225Y-85042618D01*
X137791617Y-85040570D01*
X137845234Y-85015568D01*
X138031639Y-84885047D01*
X138192547Y-84724139D01*
X138323068Y-84537734D01*
X138419239Y-84331496D01*
X138478135Y-84111692D01*
X138497968Y-83885000D01*
X138478135Y-83658308D01*
X138419239Y-83438504D01*
X138323068Y-83232266D01*
X138192547Y-83045861D01*
X138192545Y-83045858D01*
X138031641Y-82884954D01*
X137845234Y-82754432D01*
X137845228Y-82754429D01*
X137817538Y-82741517D01*
X137787224Y-82727381D01*
X137734785Y-82681210D01*
X137715633Y-82614017D01*
X137735848Y-82547135D01*
X137787225Y-82502618D01*
X137791617Y-82500570D01*
X137845234Y-82475568D01*
X138031639Y-82345047D01*
X138192547Y-82184139D01*
X138323068Y-81997734D01*
X138419239Y-81791496D01*
X138478135Y-81571692D01*
X138497968Y-81345000D01*
X138478135Y-81118308D01*
X138419239Y-80898504D01*
X138323068Y-80692266D01*
X138192547Y-80505861D01*
X138192545Y-80505858D01*
X138031641Y-80344954D01*
X137845234Y-80214432D01*
X137845228Y-80214429D01*
X137817538Y-80201517D01*
X137787224Y-80187381D01*
X137734785Y-80141210D01*
X137715633Y-80074017D01*
X137735848Y-80007135D01*
X137787225Y-79962618D01*
X137791617Y-79960570D01*
X137845234Y-79935568D01*
X138031639Y-79805047D01*
X138192547Y-79644139D01*
X138323068Y-79457734D01*
X138419239Y-79251496D01*
X138478135Y-79031692D01*
X138497968Y-78805000D01*
X138478135Y-78578308D01*
X138419239Y-78358504D01*
X138323068Y-78152266D01*
X138192547Y-77965861D01*
X138192545Y-77965858D01*
X138031641Y-77804954D01*
X137845234Y-77674432D01*
X137845228Y-77674429D01*
X137817538Y-77661517D01*
X137787224Y-77647381D01*
X137734785Y-77601210D01*
X137715633Y-77534017D01*
X137735848Y-77467135D01*
X137787225Y-77422618D01*
X137788143Y-77422190D01*
X137845234Y-77395568D01*
X138031639Y-77265047D01*
X138192547Y-77104139D01*
X138323068Y-76917734D01*
X138419239Y-76711496D01*
X138478135Y-76491692D01*
X138497968Y-76265000D01*
X138478135Y-76038308D01*
X138419239Y-75818504D01*
X138323068Y-75612266D01*
X138192547Y-75425861D01*
X138192545Y-75425858D01*
X138031641Y-75264954D01*
X137845234Y-75134432D01*
X137845232Y-75134431D01*
X137638997Y-75038261D01*
X137638988Y-75038258D01*
X137419197Y-74979366D01*
X137419193Y-74979365D01*
X137419192Y-74979365D01*
X137419191Y-74979364D01*
X137419186Y-74979364D01*
X137192502Y-74959532D01*
X137192498Y-74959532D01*
X136965813Y-74979364D01*
X136965802Y-74979366D01*
X136746011Y-75038258D01*
X136746002Y-75038261D01*
X136539767Y-75134431D01*
X136539765Y-75134432D01*
X136353358Y-75264954D01*
X136192454Y-75425858D01*
X136061932Y-75612265D01*
X136061931Y-75612267D01*
X135965761Y-75818502D01*
X135965758Y-75818511D01*
X135906866Y-76038302D01*
X135906864Y-76038313D01*
X135887032Y-76264998D01*
X129972500Y-76264998D01*
X129972500Y-76212339D01*
X129945241Y-76110606D01*
X129892580Y-76019394D01*
X129888186Y-76015000D01*
X130872500Y-76015000D01*
X130872500Y-75417172D01*
X130872499Y-75417155D01*
X130866098Y-75357627D01*
X130866096Y-75357620D01*
X130815854Y-75222913D01*
X130815850Y-75222906D01*
X130729690Y-75107812D01*
X130729687Y-75107809D01*
X130614593Y-75021649D01*
X130614586Y-75021645D01*
X130479879Y-74971403D01*
X130479872Y-74971401D01*
X130420344Y-74965000D01*
X129822500Y-74965000D01*
X129822500Y-75949314D01*
X129818106Y-75944920D01*
X129726894Y-75892259D01*
X129625161Y-75865000D01*
X129519839Y-75865000D01*
X129418106Y-75892259D01*
X129326894Y-75944920D01*
X129322500Y-75949314D01*
X129322500Y-74965000D01*
X128724655Y-74965000D01*
X128665127Y-74971401D01*
X128665120Y-74971403D01*
X128530413Y-75021645D01*
X128530406Y-75021649D01*
X128415312Y-75107809D01*
X128415309Y-75107812D01*
X128329149Y-75222906D01*
X128329145Y-75222913D01*
X128278903Y-75357620D01*
X128278901Y-75357627D01*
X128272500Y-75417155D01*
X101000000Y-75417155D01*
X101000000Y-75379167D01*
X101000427Y-75371188D01*
X101000322Y-75371183D01*
X101000497Y-75367898D01*
X101000500Y-75367873D01*
X101000499Y-72732128D01*
X101000499Y-72732124D01*
X101000321Y-72728804D01*
X101000426Y-72728798D01*
X101000000Y-72720836D01*
X101000000Y-68024500D01*
X101019685Y-67957461D01*
X101072489Y-67911706D01*
X101124000Y-67900500D01*
X101686038Y-67900500D01*
X101686045Y-67900500D01*
X101916149Y-67870206D01*
X102140330Y-67810137D01*
X102354752Y-67721320D01*
X102555748Y-67605276D01*
X102739877Y-67463989D01*
X102903989Y-67299877D01*
X103045276Y-67115748D01*
X103161320Y-66914752D01*
X103250137Y-66700330D01*
X103310206Y-66476149D01*
X103340500Y-66246045D01*
X103340500Y-66013955D01*
X103310206Y-65783851D01*
X103278015Y-65663713D01*
X135219500Y-65663713D01*
X135219500Y-72266286D01*
X135240879Y-72401271D01*
X135252754Y-72476243D01*
X135298667Y-72617549D01*
X135318444Y-72678414D01*
X135414951Y-72867820D01*
X135539890Y-73039786D01*
X135690213Y-73190109D01*
X135862179Y-73315048D01*
X135862181Y-73315049D01*
X135862184Y-73315051D01*
X136051588Y-73411557D01*
X136253757Y-73477246D01*
X136463713Y-73510500D01*
X136463714Y-73510500D01*
X136676286Y-73510500D01*
X136676287Y-73510500D01*
X136886243Y-73477246D01*
X137088412Y-73411557D01*
X137277816Y-73315051D01*
X137317338Y-73286337D01*
X137449786Y-73190109D01*
X137449788Y-73190106D01*
X137449792Y-73190104D01*
X137600104Y-73039792D01*
X137600106Y-73039788D01*
X137600109Y-73039786D01*
X137725048Y-72867820D01*
X137725047Y-72867820D01*
X137725051Y-72867816D01*
X137790996Y-72738391D01*
X139634500Y-72738391D01*
X139634500Y-97911611D01*
X139658535Y-98032444D01*
X139658540Y-98032461D01*
X139705685Y-98146280D01*
X139705690Y-98146289D01*
X139739914Y-98197507D01*
X139739915Y-98197509D01*
X139774140Y-98248731D01*
X139774141Y-98248732D01*
X139774142Y-98248733D01*
X139861267Y-98335858D01*
X139861268Y-98335858D01*
X139868335Y-98342925D01*
X139868334Y-98342925D01*
X139868338Y-98342928D01*
X141708181Y-100182771D01*
X141741666Y-100244094D01*
X141744500Y-100270452D01*
X141744500Y-126765811D01*
X141724815Y-126832850D01*
X141691623Y-126867386D01*
X141530859Y-126979953D01*
X141369954Y-127140858D01*
X141239432Y-127327265D01*
X141239431Y-127327267D01*
X141143261Y-127533502D01*
X141143258Y-127533511D01*
X141084366Y-127753302D01*
X141084364Y-127753313D01*
X141064532Y-127979998D01*
X141064532Y-127980001D01*
X141084364Y-128206686D01*
X141084366Y-128206697D01*
X141143258Y-128426488D01*
X141143261Y-128426497D01*
X141239431Y-128632732D01*
X141239432Y-128632734D01*
X141369954Y-128819141D01*
X141530858Y-128980045D01*
X141530861Y-128980047D01*
X141717266Y-129110568D01*
X141923504Y-129206739D01*
X142143308Y-129265635D01*
X142305230Y-129279801D01*
X142369998Y-129285468D01*
X142370000Y-129285468D01*
X142370002Y-129285468D01*
X142426673Y-129280509D01*
X142596692Y-129265635D01*
X142816496Y-129206739D01*
X143022734Y-129110568D01*
X143209139Y-128980047D01*
X143370047Y-128819139D01*
X143500568Y-128632734D01*
X143596739Y-128426496D01*
X143655635Y-128206692D01*
X143675468Y-127980000D01*
X143655635Y-127753308D01*
X143596739Y-127533504D01*
X143500568Y-127327266D01*
X143370047Y-127140861D01*
X143370045Y-127140858D01*
X143209140Y-126979953D01*
X143048377Y-126867386D01*
X143004752Y-126812809D01*
X142995500Y-126765811D01*
X142995500Y-100027741D01*
X142995501Y-100027720D01*
X142995501Y-99898391D01*
X142971464Y-99777555D01*
X142971463Y-99777549D01*
X142924312Y-99663715D01*
X142855858Y-99561267D01*
X142855855Y-99561263D01*
X140921819Y-97627227D01*
X140888334Y-97565904D01*
X140885500Y-97539546D01*
X140885500Y-76289998D01*
X142324532Y-76289998D01*
X142324532Y-76290001D01*
X142344364Y-76516686D01*
X142344366Y-76516697D01*
X142403258Y-76736488D01*
X142403261Y-76736497D01*
X142499431Y-76942732D01*
X142499432Y-76942734D01*
X142629954Y-77129141D01*
X142790858Y-77290045D01*
X142790861Y-77290047D01*
X142977266Y-77420568D01*
X143035275Y-77447618D01*
X143087714Y-77493791D01*
X143106866Y-77560984D01*
X143086650Y-77627865D01*
X143035275Y-77672381D01*
X143018272Y-77680310D01*
X142977267Y-77699431D01*
X142977265Y-77699432D01*
X142790858Y-77829954D01*
X142629954Y-77990858D01*
X142499432Y-78177265D01*
X142499431Y-78177267D01*
X142403261Y-78383502D01*
X142403258Y-78383511D01*
X142344366Y-78603302D01*
X142344364Y-78603313D01*
X142324532Y-78829998D01*
X142324532Y-78830001D01*
X142344364Y-79056686D01*
X142344366Y-79056697D01*
X142403258Y-79276488D01*
X142403261Y-79276497D01*
X142499431Y-79482732D01*
X142499432Y-79482734D01*
X142629954Y-79669141D01*
X142790858Y-79830045D01*
X142790861Y-79830047D01*
X142977266Y-79960568D01*
X143035275Y-79987618D01*
X143087714Y-80033791D01*
X143106866Y-80100984D01*
X143086650Y-80167865D01*
X143035275Y-80212381D01*
X143029952Y-80214864D01*
X142977267Y-80239431D01*
X142977265Y-80239432D01*
X142790858Y-80369954D01*
X142629954Y-80530858D01*
X142499432Y-80717265D01*
X142499431Y-80717267D01*
X142403261Y-80923502D01*
X142403258Y-80923511D01*
X142344366Y-81143302D01*
X142344364Y-81143313D01*
X142324532Y-81369998D01*
X142324532Y-81370001D01*
X142344364Y-81596686D01*
X142344366Y-81596697D01*
X142403258Y-81816488D01*
X142403261Y-81816497D01*
X142499431Y-82022732D01*
X142499432Y-82022734D01*
X142629954Y-82209141D01*
X142790858Y-82370045D01*
X142790861Y-82370047D01*
X142977266Y-82500568D01*
X143035275Y-82527618D01*
X143087714Y-82573791D01*
X143106866Y-82640984D01*
X143086650Y-82707865D01*
X143035275Y-82752381D01*
X143029952Y-82754864D01*
X142977267Y-82779431D01*
X142977265Y-82779432D01*
X142790858Y-82909954D01*
X142629954Y-83070858D01*
X142499432Y-83257265D01*
X142499431Y-83257267D01*
X142403261Y-83463502D01*
X142403258Y-83463511D01*
X142344366Y-83683302D01*
X142344364Y-83683313D01*
X142324532Y-83909998D01*
X142324532Y-83910001D01*
X142344364Y-84136686D01*
X142344366Y-84136697D01*
X142403258Y-84356488D01*
X142403261Y-84356497D01*
X142499431Y-84562732D01*
X142499432Y-84562734D01*
X142629954Y-84749141D01*
X142790858Y-84910045D01*
X142790861Y-84910047D01*
X142977266Y-85040568D01*
X143035275Y-85067618D01*
X143087714Y-85113791D01*
X143106866Y-85180984D01*
X143086650Y-85247865D01*
X143035275Y-85292381D01*
X143029952Y-85294864D01*
X142977267Y-85319431D01*
X142977265Y-85319432D01*
X142790858Y-85449954D01*
X142629954Y-85610858D01*
X142499432Y-85797265D01*
X142499431Y-85797267D01*
X142403261Y-86003502D01*
X142403258Y-86003511D01*
X142344366Y-86223302D01*
X142344364Y-86223313D01*
X142324532Y-86449998D01*
X142324532Y-86450001D01*
X142344364Y-86676686D01*
X142344366Y-86676697D01*
X142403258Y-86896488D01*
X142403261Y-86896497D01*
X142499431Y-87102732D01*
X142499432Y-87102734D01*
X142629954Y-87289141D01*
X142790858Y-87450045D01*
X142790861Y-87450047D01*
X142977266Y-87580568D01*
X143035275Y-87607618D01*
X143087714Y-87653791D01*
X143106866Y-87720984D01*
X143086650Y-87787865D01*
X143035275Y-87832382D01*
X142977267Y-87859431D01*
X142977265Y-87859432D01*
X142790858Y-87989954D01*
X142629954Y-88150858D01*
X142499432Y-88337265D01*
X142499431Y-88337267D01*
X142403261Y-88543502D01*
X142403258Y-88543511D01*
X142344366Y-88763302D01*
X142344364Y-88763313D01*
X142324532Y-88989998D01*
X142324532Y-88990001D01*
X142344364Y-89216686D01*
X142344366Y-89216697D01*
X142403258Y-89436488D01*
X142403261Y-89436497D01*
X142499431Y-89642732D01*
X142499432Y-89642734D01*
X142629954Y-89829141D01*
X142790858Y-89990045D01*
X142790861Y-89990047D01*
X142977266Y-90120568D01*
X143035275Y-90147618D01*
X143087714Y-90193791D01*
X143106866Y-90260984D01*
X143086650Y-90327865D01*
X143035275Y-90372382D01*
X142977267Y-90399431D01*
X142977265Y-90399432D01*
X142790858Y-90529954D01*
X142629954Y-90690858D01*
X142499432Y-90877265D01*
X142499431Y-90877267D01*
X142403261Y-91083502D01*
X142403258Y-91083511D01*
X142344366Y-91303302D01*
X142344364Y-91303313D01*
X142324532Y-91529998D01*
X142324532Y-91530001D01*
X142344364Y-91756686D01*
X142344366Y-91756697D01*
X142403258Y-91976488D01*
X142403261Y-91976497D01*
X142499431Y-92182732D01*
X142499432Y-92182734D01*
X142629954Y-92369141D01*
X142790858Y-92530045D01*
X142790861Y-92530047D01*
X142977266Y-92660568D01*
X143183504Y-92756739D01*
X143403308Y-92815635D01*
X143565230Y-92829801D01*
X143629998Y-92835468D01*
X143630000Y-92835468D01*
X143630002Y-92835468D01*
X143686673Y-92830509D01*
X143856692Y-92815635D01*
X144076496Y-92756739D01*
X144282734Y-92660568D01*
X144469139Y-92530047D01*
X144630047Y-92369139D01*
X144760568Y-92182734D01*
X144856739Y-91976496D01*
X144915635Y-91756692D01*
X144935468Y-91530000D01*
X144915635Y-91303308D01*
X144856739Y-91083504D01*
X144760568Y-90877266D01*
X144630047Y-90690861D01*
X144630045Y-90690858D01*
X144469141Y-90529954D01*
X144282734Y-90399432D01*
X144282728Y-90399429D01*
X144224725Y-90372382D01*
X144172285Y-90326210D01*
X144153133Y-90259017D01*
X144173348Y-90192135D01*
X144224725Y-90147618D01*
X144282734Y-90120568D01*
X144469139Y-89990047D01*
X144630047Y-89829139D01*
X144760568Y-89642734D01*
X144856739Y-89436496D01*
X144915635Y-89216692D01*
X144935468Y-88990000D01*
X144915635Y-88763308D01*
X144863518Y-88568804D01*
X144856741Y-88543511D01*
X144856738Y-88543502D01*
X144760568Y-88337267D01*
X144760567Y-88337265D01*
X144630045Y-88150858D01*
X144469141Y-87989954D01*
X144282734Y-87859432D01*
X144282728Y-87859429D01*
X144224725Y-87832382D01*
X144172285Y-87786210D01*
X144153133Y-87719017D01*
X144173348Y-87652135D01*
X144224725Y-87607618D01*
X144282734Y-87580568D01*
X144469139Y-87450047D01*
X144630047Y-87289139D01*
X144760568Y-87102734D01*
X144856739Y-86896496D01*
X144915635Y-86676692D01*
X144935468Y-86450000D01*
X144915635Y-86223308D01*
X144856739Y-86003504D01*
X144760568Y-85797266D01*
X144630047Y-85610861D01*
X144630045Y-85610858D01*
X144469141Y-85449954D01*
X144282734Y-85319432D01*
X144282728Y-85319429D01*
X144230048Y-85294864D01*
X144224724Y-85292381D01*
X144172285Y-85246210D01*
X144153133Y-85179017D01*
X144173348Y-85112135D01*
X144224725Y-85067618D01*
X144282734Y-85040568D01*
X144469139Y-84910047D01*
X144630047Y-84749139D01*
X144760568Y-84562734D01*
X144856739Y-84356496D01*
X144915635Y-84136692D01*
X144935468Y-83910000D01*
X144915635Y-83683308D01*
X144856739Y-83463504D01*
X144760568Y-83257266D01*
X144630047Y-83070861D01*
X144630045Y-83070858D01*
X144469141Y-82909954D01*
X144282734Y-82779432D01*
X144282728Y-82779429D01*
X144230048Y-82754864D01*
X144224724Y-82752381D01*
X144172285Y-82706210D01*
X144153133Y-82639017D01*
X144173348Y-82572135D01*
X144224725Y-82527618D01*
X144282734Y-82500568D01*
X144469139Y-82370047D01*
X144630047Y-82209139D01*
X144760568Y-82022734D01*
X144856739Y-81816496D01*
X144915635Y-81596692D01*
X144935468Y-81370000D01*
X144915635Y-81143308D01*
X144856739Y-80923504D01*
X144760568Y-80717266D01*
X144630047Y-80530861D01*
X144630045Y-80530858D01*
X144469141Y-80369954D01*
X144282734Y-80239432D01*
X144282728Y-80239429D01*
X144230048Y-80214864D01*
X144224724Y-80212381D01*
X144172285Y-80166210D01*
X144153133Y-80099017D01*
X144173348Y-80032135D01*
X144224725Y-79987618D01*
X144282734Y-79960568D01*
X144469139Y-79830047D01*
X144630047Y-79669139D01*
X144760568Y-79482734D01*
X144856739Y-79276496D01*
X144915635Y-79056692D01*
X144935468Y-78830000D01*
X144915635Y-78603308D01*
X144856739Y-78383504D01*
X144760568Y-78177266D01*
X144630047Y-77990861D01*
X144630045Y-77990858D01*
X144469141Y-77829954D01*
X144282734Y-77699432D01*
X144282728Y-77699429D01*
X144255038Y-77686517D01*
X144224724Y-77672381D01*
X144172285Y-77626210D01*
X144153133Y-77559017D01*
X144173348Y-77492135D01*
X144224725Y-77447618D01*
X144282734Y-77420568D01*
X144469139Y-77290047D01*
X144630047Y-77129139D01*
X144760568Y-76942734D01*
X144856739Y-76736496D01*
X144915635Y-76516692D01*
X144935468Y-76290000D01*
X144915635Y-76063308D01*
X144856739Y-75843504D01*
X144760568Y-75637266D01*
X144630047Y-75450861D01*
X144630045Y-75450858D01*
X144469143Y-75289956D01*
X144444536Y-75272726D01*
X144400912Y-75218149D01*
X144393719Y-75148650D01*
X144425241Y-75086296D01*
X144485471Y-75050882D01*
X144502404Y-75047861D01*
X144537483Y-75044091D01*
X144672331Y-74993796D01*
X144787546Y-74907546D01*
X144873796Y-74792331D01*
X144924091Y-74657483D01*
X144930500Y-74597873D01*
X144930499Y-72902128D01*
X144924091Y-72842517D01*
X144882918Y-72732127D01*
X144873797Y-72707671D01*
X144873793Y-72707664D01*
X144787547Y-72592455D01*
X144787544Y-72592452D01*
X144672335Y-72506206D01*
X144672328Y-72506202D01*
X144537482Y-72455908D01*
X144537483Y-72455908D01*
X144477883Y-72449501D01*
X144477881Y-72449500D01*
X144477873Y-72449500D01*
X144477864Y-72449500D01*
X142782129Y-72449500D01*
X142782123Y-72449501D01*
X142722516Y-72455908D01*
X142587671Y-72506202D01*
X142587664Y-72506206D01*
X142472455Y-72592452D01*
X142472452Y-72592455D01*
X142386206Y-72707664D01*
X142386202Y-72707671D01*
X142335908Y-72842517D01*
X142329501Y-72902116D01*
X142329501Y-72902123D01*
X142329500Y-72902135D01*
X142329500Y-74597870D01*
X142329501Y-74597876D01*
X142335908Y-74657483D01*
X142386202Y-74792328D01*
X142386206Y-74792335D01*
X142472452Y-74907544D01*
X142472455Y-74907547D01*
X142587664Y-74993793D01*
X142587671Y-74993797D01*
X142632618Y-75010561D01*
X142722517Y-75044091D01*
X142757596Y-75047862D01*
X142822144Y-75074599D01*
X142861993Y-75131991D01*
X142864488Y-75201816D01*
X142828836Y-75261905D01*
X142815464Y-75272725D01*
X142790858Y-75289954D01*
X142629954Y-75450858D01*
X142499432Y-75637265D01*
X142499431Y-75637267D01*
X142403261Y-75843502D01*
X142403258Y-75843511D01*
X142344366Y-76063302D01*
X142344364Y-76063313D01*
X142324532Y-76289998D01*
X140885500Y-76289998D01*
X140885500Y-73110452D01*
X140905185Y-73043413D01*
X140921819Y-73022771D01*
X142072772Y-71871819D01*
X142134095Y-71838334D01*
X142160453Y-71835500D01*
X147704773Y-71835500D01*
X147771812Y-71855185D01*
X147806348Y-71888377D01*
X147941501Y-72081396D01*
X147941506Y-72081402D01*
X148108597Y-72248493D01*
X148108603Y-72248498D01*
X148294158Y-72378425D01*
X148337783Y-72433002D01*
X148344977Y-72502500D01*
X148313454Y-72564855D01*
X148294158Y-72581575D01*
X148108597Y-72711505D01*
X147941505Y-72878597D01*
X147805965Y-73072169D01*
X147805964Y-73072171D01*
X147706098Y-73286335D01*
X147706094Y-73286344D01*
X147644938Y-73514586D01*
X147644936Y-73514596D01*
X147624341Y-73749999D01*
X147624341Y-73750000D01*
X147644936Y-73985403D01*
X147644938Y-73985413D01*
X147706094Y-74213655D01*
X147706096Y-74213659D01*
X147706097Y-74213663D01*
X147805965Y-74427830D01*
X147805967Y-74427834D01*
X147941501Y-74621395D01*
X147941506Y-74621402D01*
X148108597Y-74788493D01*
X148108603Y-74788498D01*
X148294158Y-74918425D01*
X148337783Y-74973002D01*
X148344977Y-75042500D01*
X148313454Y-75104855D01*
X148294158Y-75121575D01*
X148108597Y-75251505D01*
X147941505Y-75418597D01*
X147805965Y-75612169D01*
X147805964Y-75612171D01*
X147706098Y-75826335D01*
X147706094Y-75826344D01*
X147644938Y-76054586D01*
X147644936Y-76054596D01*
X147624341Y-76289999D01*
X147624341Y-76290000D01*
X147644936Y-76525403D01*
X147644938Y-76525413D01*
X147706094Y-76753655D01*
X147706096Y-76753659D01*
X147706097Y-76753663D01*
X147782604Y-76917732D01*
X147805965Y-76967830D01*
X147805967Y-76967834D01*
X147941501Y-77161395D01*
X147941506Y-77161402D01*
X148108597Y-77328493D01*
X148108603Y-77328498D01*
X148294158Y-77458425D01*
X148337783Y-77513002D01*
X148344977Y-77582500D01*
X148313454Y-77644855D01*
X148294158Y-77661575D01*
X148108597Y-77791505D01*
X147941505Y-77958597D01*
X147805965Y-78152169D01*
X147805964Y-78152171D01*
X147706098Y-78366335D01*
X147706094Y-78366344D01*
X147644938Y-78594586D01*
X147644936Y-78594596D01*
X147624341Y-78829999D01*
X147624341Y-78830000D01*
X147644936Y-79065403D01*
X147644938Y-79065413D01*
X147706094Y-79293655D01*
X147706096Y-79293659D01*
X147706097Y-79293663D01*
X147724218Y-79332523D01*
X147805965Y-79507830D01*
X147805967Y-79507834D01*
X147941501Y-79701395D01*
X147941506Y-79701402D01*
X148108597Y-79868493D01*
X148108603Y-79868498D01*
X148294158Y-79998425D01*
X148337783Y-80053002D01*
X148344977Y-80122500D01*
X148313454Y-80184855D01*
X148294158Y-80201575D01*
X148108597Y-80331505D01*
X147941505Y-80498597D01*
X147805965Y-80692169D01*
X147805964Y-80692171D01*
X147706098Y-80906335D01*
X147706094Y-80906344D01*
X147644938Y-81134586D01*
X147644936Y-81134596D01*
X147624341Y-81369999D01*
X147624341Y-81370000D01*
X147644936Y-81605403D01*
X147644938Y-81605413D01*
X147706094Y-81833655D01*
X147706096Y-81833659D01*
X147706097Y-81833663D01*
X147782487Y-81997482D01*
X147805965Y-82047830D01*
X147805967Y-82047834D01*
X147941501Y-82241395D01*
X147941506Y-82241402D01*
X148108597Y-82408493D01*
X148108603Y-82408498D01*
X148294158Y-82538425D01*
X148337783Y-82593002D01*
X148344977Y-82662500D01*
X148313454Y-82724855D01*
X148294158Y-82741575D01*
X148108597Y-82871505D01*
X147941505Y-83038597D01*
X147805965Y-83232169D01*
X147805964Y-83232171D01*
X147706098Y-83446335D01*
X147706094Y-83446344D01*
X147644938Y-83674586D01*
X147644936Y-83674596D01*
X147624341Y-83909999D01*
X147624341Y-83910000D01*
X147644936Y-84145403D01*
X147644938Y-84145413D01*
X147706094Y-84373655D01*
X147706096Y-84373659D01*
X147706097Y-84373663D01*
X147782487Y-84537482D01*
X147805965Y-84587830D01*
X147805967Y-84587834D01*
X147941501Y-84781395D01*
X147941506Y-84781402D01*
X148108597Y-84948493D01*
X148108603Y-84948498D01*
X148294158Y-85078425D01*
X148337783Y-85133002D01*
X148344977Y-85202500D01*
X148313454Y-85264855D01*
X148294158Y-85281575D01*
X148108597Y-85411505D01*
X147941505Y-85578597D01*
X147805965Y-85772169D01*
X147805964Y-85772171D01*
X147706098Y-85986335D01*
X147706094Y-85986344D01*
X147644938Y-86214586D01*
X147644936Y-86214596D01*
X147624341Y-86449999D01*
X147624341Y-86450000D01*
X147644936Y-86685403D01*
X147644938Y-86685413D01*
X147706094Y-86913655D01*
X147706096Y-86913659D01*
X147706097Y-86913663D01*
X147782487Y-87077482D01*
X147805965Y-87127830D01*
X147805967Y-87127834D01*
X147941501Y-87321395D01*
X147941506Y-87321402D01*
X148108597Y-87488493D01*
X148108603Y-87488498D01*
X148294158Y-87618425D01*
X148337783Y-87673002D01*
X148344977Y-87742500D01*
X148313454Y-87804855D01*
X148294158Y-87821575D01*
X148108597Y-87951505D01*
X147941505Y-88118597D01*
X147805965Y-88312169D01*
X147805964Y-88312171D01*
X147706098Y-88526335D01*
X147706094Y-88526344D01*
X147644938Y-88754586D01*
X147644936Y-88754596D01*
X147624341Y-88989999D01*
X147624341Y-88990000D01*
X147644936Y-89225403D01*
X147644938Y-89225413D01*
X147706094Y-89453655D01*
X147706096Y-89453659D01*
X147706097Y-89453663D01*
X147794262Y-89642732D01*
X147805965Y-89667830D01*
X147805967Y-89667834D01*
X147914281Y-89822521D01*
X147941501Y-89861396D01*
X147941506Y-89861402D01*
X148063430Y-89983326D01*
X148096915Y-90044649D01*
X148091931Y-90114341D01*
X148050059Y-90170274D01*
X148019083Y-90187189D01*
X147887669Y-90236203D01*
X147887664Y-90236206D01*
X147772455Y-90322452D01*
X147772452Y-90322455D01*
X147686206Y-90437664D01*
X147686202Y-90437671D01*
X147635908Y-90572517D01*
X147629501Y-90632116D01*
X147629501Y-90632123D01*
X147629500Y-90632135D01*
X147629500Y-92427870D01*
X147629501Y-92427876D01*
X147635908Y-92487483D01*
X147686202Y-92622328D01*
X147686206Y-92622335D01*
X147772452Y-92737544D01*
X147772455Y-92737547D01*
X147887664Y-92823793D01*
X147887671Y-92823797D01*
X148022517Y-92874091D01*
X148022516Y-92874091D01*
X148029444Y-92874835D01*
X148082127Y-92880500D01*
X149877872Y-92880499D01*
X149937483Y-92874091D01*
X150072331Y-92823796D01*
X150187546Y-92737546D01*
X150273796Y-92622331D01*
X150324091Y-92487483D01*
X150330500Y-92427873D01*
X150330499Y-90632128D01*
X150324091Y-90572517D01*
X150273796Y-90437669D01*
X150273795Y-90437668D01*
X150273793Y-90437664D01*
X150187547Y-90322455D01*
X150187544Y-90322452D01*
X150072335Y-90236206D01*
X150072328Y-90236202D01*
X149940917Y-90187189D01*
X149884983Y-90145318D01*
X149860566Y-90079853D01*
X149875418Y-90011580D01*
X149896563Y-89983332D01*
X150018495Y-89861401D01*
X150154035Y-89667830D01*
X150253903Y-89453663D01*
X150315063Y-89225408D01*
X150335659Y-88990000D01*
X150315063Y-88754592D01*
X150253903Y-88526337D01*
X150154035Y-88312171D01*
X150018495Y-88118599D01*
X150018494Y-88118597D01*
X149851402Y-87951506D01*
X149851396Y-87951501D01*
X149665842Y-87821575D01*
X149622217Y-87766998D01*
X149615023Y-87697500D01*
X149646546Y-87635145D01*
X149665842Y-87618425D01*
X149755612Y-87555567D01*
X149851401Y-87488495D01*
X150018495Y-87321401D01*
X150154035Y-87127830D01*
X150253903Y-86913663D01*
X150315063Y-86685408D01*
X150335659Y-86450000D01*
X150315063Y-86214592D01*
X150253903Y-85986337D01*
X150154035Y-85772171D01*
X150018495Y-85578599D01*
X150018494Y-85578597D01*
X149851402Y-85411506D01*
X149851396Y-85411501D01*
X149665842Y-85281575D01*
X149622217Y-85226998D01*
X149615023Y-85157500D01*
X149646546Y-85095145D01*
X149665842Y-85078425D01*
X149688026Y-85062891D01*
X149851401Y-84948495D01*
X150018495Y-84781401D01*
X150154035Y-84587830D01*
X150253903Y-84373663D01*
X150315063Y-84145408D01*
X150335659Y-83910000D01*
X150315063Y-83674592D01*
X150253903Y-83446337D01*
X150154035Y-83232171D01*
X150018495Y-83038599D01*
X150018494Y-83038597D01*
X149851402Y-82871506D01*
X149851396Y-82871501D01*
X149665842Y-82741575D01*
X149622217Y-82686998D01*
X149615023Y-82617500D01*
X149646546Y-82555145D01*
X149665842Y-82538425D01*
X149688026Y-82522891D01*
X149851401Y-82408495D01*
X150018495Y-82241401D01*
X150154035Y-82047830D01*
X150253903Y-81833663D01*
X150315063Y-81605408D01*
X150335659Y-81370000D01*
X150315063Y-81134592D01*
X150253903Y-80906337D01*
X150154035Y-80692171D01*
X150018495Y-80498599D01*
X150018494Y-80498597D01*
X149851402Y-80331506D01*
X149851396Y-80331501D01*
X149665842Y-80201575D01*
X149622217Y-80146998D01*
X149615023Y-80077500D01*
X149646546Y-80015145D01*
X149665842Y-79998425D01*
X149688026Y-79982891D01*
X149851401Y-79868495D01*
X150018495Y-79701401D01*
X150154035Y-79507830D01*
X150253903Y-79293663D01*
X150315063Y-79065408D01*
X150335659Y-78830000D01*
X150315063Y-78594592D01*
X150253903Y-78366337D01*
X150154035Y-78152171D01*
X150018495Y-77958599D01*
X150018494Y-77958597D01*
X149851402Y-77791506D01*
X149851396Y-77791501D01*
X149665842Y-77661575D01*
X149622217Y-77606998D01*
X149615023Y-77537500D01*
X149646546Y-77475145D01*
X149665842Y-77458425D01*
X149688026Y-77442891D01*
X149851401Y-77328495D01*
X150018495Y-77161401D01*
X150154035Y-76967830D01*
X150253903Y-76753663D01*
X150315063Y-76525408D01*
X150335659Y-76290000D01*
X150315063Y-76054592D01*
X150253903Y-75826337D01*
X150154035Y-75612171D01*
X150018495Y-75418599D01*
X150018494Y-75418597D01*
X149851402Y-75251506D01*
X149851396Y-75251501D01*
X149665842Y-75121575D01*
X149622217Y-75066998D01*
X149615023Y-74997500D01*
X149646546Y-74935145D01*
X149665842Y-74918425D01*
X149688026Y-74902891D01*
X149851401Y-74788495D01*
X150018495Y-74621401D01*
X150154035Y-74427830D01*
X150253903Y-74213663D01*
X150315063Y-73985408D01*
X150335659Y-73750000D01*
X150315063Y-73514592D01*
X150253903Y-73286337D01*
X150154035Y-73072171D01*
X150034971Y-72902128D01*
X150018494Y-72878597D01*
X149851402Y-72711506D01*
X149851396Y-72711501D01*
X149665842Y-72581575D01*
X149622217Y-72526998D01*
X149615023Y-72457500D01*
X149646546Y-72395145D01*
X149665842Y-72378425D01*
X149825991Y-72266287D01*
X149851401Y-72248495D01*
X150018495Y-72081401D01*
X150154035Y-71887830D01*
X150253903Y-71673663D01*
X150315063Y-71445408D01*
X150335659Y-71210000D01*
X150315063Y-70974592D01*
X150253903Y-70746337D01*
X150154035Y-70532171D01*
X150153652Y-70531623D01*
X150018494Y-70338597D01*
X149851402Y-70171506D01*
X149851396Y-70171501D01*
X149665842Y-70041575D01*
X149622217Y-69986998D01*
X149615023Y-69917500D01*
X149646546Y-69855145D01*
X149665842Y-69838425D01*
X149688026Y-69822891D01*
X149851401Y-69708495D01*
X150018495Y-69541401D01*
X150154035Y-69347830D01*
X150253903Y-69133663D01*
X150315063Y-68905408D01*
X150335659Y-68670000D01*
X150315063Y-68434592D01*
X150253903Y-68206337D01*
X150154035Y-67992171D01*
X150018495Y-67798599D01*
X150018494Y-67798597D01*
X149851402Y-67631506D01*
X149851396Y-67631501D01*
X149665842Y-67501575D01*
X149622217Y-67446998D01*
X149615023Y-67377500D01*
X149646546Y-67315145D01*
X149665842Y-67298425D01*
X149688026Y-67282891D01*
X149851401Y-67168495D01*
X150018495Y-67001401D01*
X150154035Y-66807830D01*
X150253903Y-66593663D01*
X150315063Y-66365408D01*
X150335659Y-66130000D01*
X150315063Y-65894592D01*
X150253903Y-65666337D01*
X150154035Y-65452171D01*
X150079172Y-65345254D01*
X150018494Y-65258597D01*
X149851402Y-65091506D01*
X149851401Y-65091505D01*
X149665405Y-64961269D01*
X149621781Y-64906692D01*
X149614588Y-64837193D01*
X149646110Y-64774839D01*
X149665405Y-64758119D01*
X149851082Y-64628105D01*
X150018105Y-64461082D01*
X150153600Y-64267578D01*
X150253429Y-64053492D01*
X150253432Y-64053486D01*
X150310636Y-63840000D01*
X149413012Y-63840000D01*
X149445925Y-63782993D01*
X149480000Y-63655826D01*
X149480000Y-63524174D01*
X149445925Y-63397007D01*
X149413012Y-63340000D01*
X150310636Y-63340000D01*
X150310635Y-63339999D01*
X150253432Y-63126513D01*
X150253429Y-63126507D01*
X150153600Y-62912422D01*
X150153599Y-62912420D01*
X150018113Y-62718926D01*
X150018108Y-62718920D01*
X149851082Y-62551894D01*
X149657578Y-62416399D01*
X149443492Y-62316570D01*
X149443486Y-62316567D01*
X149230000Y-62259364D01*
X149230000Y-63156988D01*
X149172993Y-63124075D01*
X149045826Y-63090000D01*
X148914174Y-63090000D01*
X148787007Y-63124075D01*
X148730000Y-63156988D01*
X148730000Y-62259364D01*
X148729999Y-62259364D01*
X148516513Y-62316567D01*
X148516507Y-62316570D01*
X148302422Y-62416399D01*
X148302420Y-62416400D01*
X148108926Y-62551886D01*
X148108920Y-62551891D01*
X147941891Y-62718920D01*
X147941886Y-62718926D01*
X147806400Y-62912420D01*
X147806399Y-62912422D01*
X147706570Y-63126507D01*
X147706567Y-63126513D01*
X147649364Y-63339999D01*
X147649364Y-63340000D01*
X148546988Y-63340000D01*
X148514075Y-63397007D01*
X148480000Y-63524174D01*
X148480000Y-63655826D01*
X148514075Y-63782993D01*
X148546988Y-63840000D01*
X147649364Y-63840000D01*
X147706567Y-64053486D01*
X147706570Y-64053492D01*
X147806399Y-64267578D01*
X147941894Y-64461082D01*
X148108917Y-64628105D01*
X148294595Y-64758119D01*
X148338219Y-64812696D01*
X148345412Y-64882195D01*
X148313890Y-64944549D01*
X148294595Y-64961269D01*
X148108594Y-65091508D01*
X147941505Y-65258597D01*
X147805965Y-65452169D01*
X147805964Y-65452171D01*
X147706098Y-65666335D01*
X147706094Y-65666344D01*
X147644938Y-65894586D01*
X147644936Y-65894596D01*
X147624341Y-66129999D01*
X147624341Y-66130000D01*
X147644936Y-66365403D01*
X147644938Y-66365413D01*
X147706094Y-66593655D01*
X147706096Y-66593659D01*
X147706097Y-66593663D01*
X147755836Y-66700328D01*
X147805965Y-66807830D01*
X147805967Y-66807834D01*
X147941501Y-67001395D01*
X147941506Y-67001402D01*
X148108597Y-67168493D01*
X148108603Y-67168498D01*
X148294158Y-67298425D01*
X148337783Y-67353002D01*
X148344977Y-67422500D01*
X148313454Y-67484855D01*
X148294158Y-67501575D01*
X148108597Y-67631505D01*
X147941505Y-67798597D01*
X147805965Y-67992169D01*
X147805964Y-67992171D01*
X147706098Y-68206335D01*
X147706094Y-68206344D01*
X147644938Y-68434586D01*
X147644936Y-68434596D01*
X147624341Y-68669999D01*
X147624341Y-68670000D01*
X147644936Y-68905403D01*
X147644938Y-68905413D01*
X147706094Y-69133655D01*
X147706096Y-69133659D01*
X147706097Y-69133663D01*
X147730685Y-69186392D01*
X147805965Y-69347830D01*
X147805967Y-69347834D01*
X147941501Y-69541395D01*
X147941506Y-69541402D01*
X148108597Y-69708493D01*
X148108603Y-69708498D01*
X148294158Y-69838425D01*
X148337783Y-69893002D01*
X148344977Y-69962500D01*
X148313454Y-70024855D01*
X148294158Y-70041575D01*
X148108597Y-70171505D01*
X147941505Y-70338597D01*
X147806348Y-70531623D01*
X147751771Y-70575248D01*
X147704773Y-70584500D01*
X141917741Y-70584500D01*
X141917721Y-70584499D01*
X141911607Y-70584499D01*
X141788394Y-70584499D01*
X141687597Y-70604548D01*
X141687592Y-70604548D01*
X141667549Y-70608536D01*
X141667547Y-70608536D01*
X141620397Y-70628067D01*
X141553719Y-70655685D01*
X141553717Y-70655686D01*
X141451266Y-70724141D01*
X141451263Y-70724144D01*
X140094014Y-72081395D01*
X139861269Y-72314140D01*
X139861267Y-72314142D01*
X139817703Y-72357706D01*
X139774139Y-72401269D01*
X139774138Y-72401271D01*
X139741915Y-72449497D01*
X139741914Y-72449499D01*
X139705690Y-72503709D01*
X139705685Y-72503718D01*
X139658540Y-72617538D01*
X139658538Y-72617545D01*
X139658537Y-72617548D01*
X139658537Y-72617549D01*
X139636410Y-72728798D01*
X139635749Y-72732119D01*
X139635747Y-72732124D01*
X139634500Y-72738391D01*
X137790996Y-72738391D01*
X137821557Y-72678412D01*
X137887246Y-72476243D01*
X137920500Y-72266287D01*
X137920500Y-65663713D01*
X137887246Y-65453757D01*
X137821557Y-65251588D01*
X137725051Y-65062184D01*
X137725049Y-65062181D01*
X137725048Y-65062179D01*
X137600109Y-64890213D01*
X137449786Y-64739890D01*
X137277820Y-64614951D01*
X137088414Y-64518444D01*
X137088413Y-64518443D01*
X137088412Y-64518443D01*
X136886243Y-64452754D01*
X136886241Y-64452753D01*
X136886240Y-64452753D01*
X136724957Y-64427208D01*
X136676287Y-64419500D01*
X136463713Y-64419500D01*
X136415042Y-64427208D01*
X136253760Y-64452753D01*
X136051585Y-64518444D01*
X135862179Y-64614951D01*
X135690213Y-64739890D01*
X135539890Y-64890213D01*
X135414951Y-65062179D01*
X135318444Y-65251585D01*
X135252753Y-65453760D01*
X135219500Y-65663713D01*
X103278015Y-65663713D01*
X103250137Y-65559670D01*
X103161320Y-65345248D01*
X103111294Y-65258599D01*
X103045279Y-65144256D01*
X103045278Y-65144254D01*
X102903990Y-64960124D01*
X102903984Y-64960117D01*
X102739882Y-64796015D01*
X102739875Y-64796009D01*
X102555745Y-64654721D01*
X102555743Y-64654720D01*
X102354762Y-64538685D01*
X102354754Y-64538681D01*
X102354752Y-64538680D01*
X102354745Y-64538677D01*
X102140328Y-64449862D01*
X101998203Y-64411780D01*
X101916149Y-64389794D01*
X101887386Y-64386007D01*
X101686052Y-64359500D01*
X101686045Y-64359500D01*
X101124000Y-64359500D01*
X101056961Y-64339815D01*
X101011206Y-64287011D01*
X101000000Y-64235500D01*
X101000000Y-64064500D01*
X101019685Y-63997461D01*
X101072489Y-63951706D01*
X101124000Y-63940500D01*
X101636038Y-63940500D01*
X101636045Y-63940500D01*
X101866149Y-63910206D01*
X102090330Y-63850137D01*
X102304752Y-63761320D01*
X102505748Y-63645276D01*
X102689877Y-63503989D01*
X102853989Y-63339877D01*
X102995276Y-63155748D01*
X103111320Y-62954752D01*
X103200137Y-62740330D01*
X103260206Y-62516149D01*
X103290500Y-62286045D01*
X103290500Y-62053955D01*
X103260206Y-61823851D01*
X103200137Y-61599670D01*
X103111320Y-61385248D01*
X103111314Y-61385237D01*
X102995279Y-61184256D01*
X102995278Y-61184254D01*
X102853990Y-61000124D01*
X102853984Y-61000117D01*
X102689882Y-60836015D01*
X102689875Y-60836009D01*
X102505745Y-60694721D01*
X102505743Y-60694720D01*
X102304762Y-60578685D01*
X102304754Y-60578681D01*
X102304752Y-60578680D01*
X102090330Y-60489863D01*
X102090331Y-60489863D01*
X102090328Y-60489862D01*
X101948203Y-60451780D01*
X101866149Y-60429794D01*
X101837386Y-60426007D01*
X101636052Y-60399500D01*
X101636045Y-60399500D01*
X101124000Y-60399500D01*
X101056961Y-60379815D01*
X101011206Y-60327011D01*
X101000000Y-60275500D01*
X101000000Y-59539167D01*
X101000427Y-59531188D01*
X101000322Y-59531183D01*
X101000500Y-59527866D01*
X101000500Y-58354500D01*
X101020185Y-58287461D01*
X101072989Y-58241706D01*
X101124500Y-58230500D01*
X102081113Y-58230500D01*
X102081120Y-58230500D01*
X102341116Y-58196270D01*
X102594419Y-58128398D01*
X102836697Y-58028043D01*
X103063803Y-57896924D01*
X103271851Y-57737282D01*
X103271855Y-57737277D01*
X103271860Y-57737274D01*
X103457274Y-57551860D01*
X103457277Y-57551855D01*
X103457282Y-57551851D01*
X103616924Y-57343803D01*
X103748043Y-57116697D01*
X103848398Y-56874419D01*
X103916270Y-56621116D01*
X103950500Y-56361120D01*
X103950500Y-56098880D01*
X103916270Y-55838884D01*
X103848398Y-55585581D01*
X103848394Y-55585571D01*
X103748046Y-55343309D01*
X103748041Y-55343299D01*
X103616924Y-55116196D01*
X103457281Y-54908148D01*
X103457274Y-54908140D01*
X103271860Y-54722726D01*
X103271851Y-54722718D01*
X103063803Y-54563075D01*
X102836700Y-54431958D01*
X102836690Y-54431953D01*
X102594428Y-54331605D01*
X102594421Y-54331603D01*
X102594419Y-54331602D01*
X102341116Y-54263730D01*
X102283339Y-54256123D01*
X102081127Y-54229500D01*
X102081120Y-54229500D01*
X101124499Y-54229500D01*
X101057460Y-54209815D01*
X101011705Y-54157011D01*
X101000499Y-54105500D01*
X101000499Y-52932129D01*
X101000321Y-52928804D01*
X101000426Y-52928798D01*
X101000000Y-52920836D01*
X101000000Y-48429995D01*
X106884732Y-48429995D01*
X106884732Y-48430004D01*
X106903777Y-48684154D01*
X106903778Y-48684157D01*
X106960492Y-48932637D01*
X107053607Y-49169888D01*
X107181041Y-49390612D01*
X107339950Y-49589877D01*
X107526783Y-49763232D01*
X107737366Y-49906805D01*
X107737371Y-49906807D01*
X107737372Y-49906808D01*
X107737373Y-49906809D01*
X107859328Y-49965538D01*
X107966992Y-50017387D01*
X107966993Y-50017387D01*
X107966996Y-50017389D01*
X108210542Y-50092513D01*
X108462565Y-50130500D01*
X108717435Y-50130500D01*
X108969458Y-50092513D01*
X109213004Y-50017389D01*
X109442634Y-49906805D01*
X109653217Y-49763232D01*
X109840050Y-49589877D01*
X109998959Y-49390612D01*
X110126393Y-49169888D01*
X110219508Y-48932637D01*
X110276222Y-48684157D01*
X110295268Y-48430000D01*
X110295268Y-48429995D01*
X117434732Y-48429995D01*
X117434732Y-48430004D01*
X117453777Y-48684154D01*
X117453778Y-48684157D01*
X117510492Y-48932637D01*
X117603607Y-49169888D01*
X117731041Y-49390612D01*
X117889950Y-49589877D01*
X118076783Y-49763232D01*
X118287366Y-49906805D01*
X118287371Y-49906807D01*
X118287372Y-49906808D01*
X118287373Y-49906809D01*
X118409328Y-49965538D01*
X118516992Y-50017387D01*
X118516993Y-50017387D01*
X118516996Y-50017389D01*
X118760542Y-50092513D01*
X119012565Y-50130500D01*
X119267435Y-50130500D01*
X119519458Y-50092513D01*
X119763004Y-50017389D01*
X119992634Y-49906805D01*
X120203217Y-49763232D01*
X120390050Y-49589877D01*
X120548959Y-49390612D01*
X120676393Y-49169888D01*
X120769508Y-48932637D01*
X120826222Y-48684157D01*
X120845268Y-48430000D01*
X120826222Y-48175843D01*
X120769508Y-47927363D01*
X120676393Y-47690112D01*
X120548959Y-47469388D01*
X120390050Y-47270123D01*
X120203217Y-47096768D01*
X119992634Y-46953195D01*
X119992630Y-46953193D01*
X119992627Y-46953191D01*
X119992626Y-46953190D01*
X119763006Y-46842612D01*
X119763008Y-46842612D01*
X119519466Y-46767489D01*
X119519462Y-46767488D01*
X119519458Y-46767487D01*
X119398231Y-46749214D01*
X119267440Y-46729500D01*
X119267435Y-46729500D01*
X119012565Y-46729500D01*
X119012559Y-46729500D01*
X118855609Y-46753157D01*
X118760542Y-46767487D01*
X118760539Y-46767488D01*
X118760533Y-46767489D01*
X118516992Y-46842612D01*
X118287373Y-46953190D01*
X118287372Y-46953191D01*
X118076782Y-47096768D01*
X117889952Y-47270121D01*
X117889950Y-47270123D01*
X117731041Y-47469388D01*
X117603608Y-47690109D01*
X117510492Y-47927362D01*
X117510490Y-47927369D01*
X117453777Y-48175845D01*
X117434732Y-48429995D01*
X110295268Y-48429995D01*
X110276222Y-48175843D01*
X110219508Y-47927363D01*
X110126393Y-47690112D01*
X109998959Y-47469388D01*
X109840050Y-47270123D01*
X109653217Y-47096768D01*
X109442634Y-46953195D01*
X109442630Y-46953193D01*
X109442627Y-46953191D01*
X109442626Y-46953190D01*
X109213006Y-46842612D01*
X109213008Y-46842612D01*
X108969466Y-46767489D01*
X108969462Y-46767488D01*
X108969458Y-46767487D01*
X108848231Y-46749214D01*
X108717440Y-46729500D01*
X108717435Y-46729500D01*
X108462565Y-46729500D01*
X108462559Y-46729500D01*
X108305609Y-46753157D01*
X108210542Y-46767487D01*
X108210539Y-46767488D01*
X108210533Y-46767489D01*
X107966992Y-46842612D01*
X107737373Y-46953190D01*
X107737372Y-46953191D01*
X107526782Y-47096768D01*
X107339952Y-47270121D01*
X107339950Y-47270123D01*
X107181041Y-47469388D01*
X107053608Y-47690109D01*
X106960492Y-47927362D01*
X106960490Y-47927369D01*
X106903777Y-48175845D01*
X106884732Y-48429995D01*
X101000000Y-48429995D01*
X101000000Y-44184500D01*
X101019685Y-44117461D01*
X101072489Y-44071706D01*
X101124000Y-44060500D01*
X150785500Y-44060500D01*
X150852539Y-44080185D01*
G37*
%TD.AperFunction*%
%TD*%
%TA.AperFunction,Conductor*%
%TO.N,GND*%
G36*
X116153308Y-129220635D02*
G01*
X116315230Y-129234801D01*
X116379998Y-129240468D01*
X116380000Y-129240468D01*
X116380002Y-129240468D01*
X116436673Y-129235509D01*
X116606692Y-129220635D01*
X116683703Y-129200000D01*
X123696297Y-129200000D01*
X123773308Y-129220635D01*
X123935230Y-129234801D01*
X123999998Y-129240468D01*
X124000000Y-129240468D01*
X124000002Y-129240468D01*
X124056673Y-129235509D01*
X124226692Y-129220635D01*
X124303703Y-129200000D01*
X125470000Y-129200000D01*
X125470000Y-136830000D01*
X124303705Y-136830000D01*
X124226697Y-136809366D01*
X124226693Y-136809365D01*
X124226692Y-136809365D01*
X124226691Y-136809364D01*
X124226686Y-136809364D01*
X124000002Y-136789532D01*
X123999998Y-136789532D01*
X123773313Y-136809364D01*
X123773302Y-136809366D01*
X123696294Y-136830000D01*
X116683705Y-136830000D01*
X116606697Y-136809366D01*
X116606693Y-136809365D01*
X116606692Y-136809365D01*
X116606691Y-136809364D01*
X116606686Y-136809364D01*
X116380002Y-136789532D01*
X116379998Y-136789532D01*
X116153313Y-136809364D01*
X116153302Y-136809366D01*
X116076294Y-136830000D01*
X114810000Y-136830000D01*
X114830000Y-129200000D01*
X116076297Y-129200000D01*
X116153308Y-129220635D01*
G37*
%TD.AperFunction*%
%TD*%
M02*
