M48
METRIC,TZ
T1C0.400
T2C0.800
T3C0.900
T4C1.000
T5C1.100
T6C1.200
T7C1.300
%
G90
G05
T1
X101520Y-62170
X101570Y-66130
X101950Y-55430
X101950Y-56230
X101950Y-57040
X103030Y-46810
X103030Y-48310
X103030Y-49810
X136520Y-65720
X136530Y-66560
X136560Y-71320
X136570Y-72160
T2
X116370Y-145590
X116380Y-125395
X116380Y-127935
X116380Y-130475
X116380Y-133015
X116380Y-135555
X116380Y-138095
X116380Y-140635
X123990Y-145590
X124000Y-125395
X124000Y-127935
X124000Y-130475
X124000Y-133015
X124000Y-135555
X124000Y-138095
X124000Y-140635
X126490Y-104600
X126490Y-109600
X128220Y-121280
X128260Y-117600
X129460Y-102040
X129573Y-76265
X129573Y-78805
X129573Y-81345
X129573Y-83885
X129573Y-86425
X133220Y-121280
X133260Y-117600
X137080Y-102040
X137193Y-76265
X137193Y-78805
X137193Y-81345
X137193Y-83885
X137193Y-86425
X142370Y-127980
X142370Y-135600
X143630Y-73750
X143630Y-76290
X143630Y-78830
X143630Y-81370
X143630Y-83910
X143630Y-86450
X143630Y-88990
X143630Y-91530
T3
X131640Y-108480
X134180Y-108480
T4
X108000Y-125392
X108000Y-130392
X108000Y-136458
X108000Y-141458
X117850Y-116565
X122850Y-116565
X148980Y-63590
X148980Y-66130
X148980Y-68670
X148980Y-71210
X148980Y-73750
X148980Y-76290
X148980Y-78830
X148980Y-81370
X148980Y-83910
X148980Y-86450
X148980Y-88990
X148980Y-91530
T5
X130090Y-92530
X130090Y-97030
X136590Y-92530
X136590Y-97030
T6
X108590Y-48430
X108590Y-104310
X119140Y-48430
X119140Y-104310
T7
X130710Y-135620
X133210Y-125620
X135710Y-135620
M30
