M48
METRIC,TZ
T1C0.300
T2C0.800
%
G90
G05
T1
X168275Y-50292
X168275Y-68580
T2
X137200Y-50810
X137200Y-53350
X137200Y-55890
X137200Y-58430
X137200Y-60970
X137200Y-63510
X137200Y-66050
X137200Y-68590
X137200Y-71130
X137200Y-73670
X137200Y-76210
X137200Y-78750
X152440Y-50810
X152440Y-53350
X152440Y-55890
X152440Y-58430
X152440Y-60970
X152440Y-63510
X152440Y-66050
X152440Y-68590
X152440Y-71130
X152440Y-73670
X152440Y-76210
X152440Y-78750
X156840Y-50810
X156840Y-53350
X156840Y-55890
X156840Y-58430
X156840Y-60970
X156840Y-63510
X156840Y-66050
X156840Y-68590
X156840Y-71130
X156840Y-73670
X156840Y-76210
X156840Y-78750
X172080Y-50810
X172080Y-53350
X172080Y-55890
X172080Y-58430
X172080Y-60970
X172080Y-63510
X172080Y-66050
X172080Y-68590
X172080Y-71130
X172080Y-73670
X172080Y-76210
X172080Y-78750
X176480Y-50810
X176480Y-53350
X176480Y-55890
X176480Y-58430
X176480Y-60970
X176480Y-63510
X176480Y-66050
X176480Y-68590
X176480Y-71130
X176480Y-73670
X176480Y-76210
X176480Y-78750
X184100Y-50810
X184100Y-53350
X184100Y-55890
X184100Y-58430
X184100Y-60970
X184100Y-63510
X184100Y-66050
X184100Y-68590
X184100Y-71130
X184100Y-73670
X184100Y-76210
X184100Y-78750
M30
