%TF.GenerationSoftware,KiCad,Pcbnew,8.0.7*%
%TF.CreationDate,2025-03-21T13:40:33-04:00*%
%TF.ProjectId,TRS2_SOU_PATCH,54525332-5f53-44f5-955f-50415443482e,rev?*%
%TF.SameCoordinates,Original*%
%TF.FileFunction,Legend,Top*%
%TF.FilePolarity,Positive*%
%FSLAX46Y46*%
G04 Gerber Fmt 4.6, Leading zero omitted, Abs format (unit mm)*
G04 Created by KiCad (PCBNEW 8.0.7) date 2025-03-21 13:40:33*
%MOMM*%
%LPD*%
G01*
G04 APERTURE LIST*
%ADD10C,0.200000*%
%ADD11C,0.120000*%
G04 APERTURE END LIST*
D10*
X150920000Y-79502733D02*
X150120000Y-79502733D01*
X150520000Y-78102733D02*
X150520000Y-79502733D01*
X148853333Y-78102733D02*
X149320000Y-78769400D01*
X149653333Y-78102733D02*
X149653333Y-79502733D01*
X149653333Y-79502733D02*
X149120000Y-79502733D01*
X149120000Y-79502733D02*
X148986667Y-79436066D01*
X148986667Y-79436066D02*
X148920000Y-79369400D01*
X148920000Y-79369400D02*
X148853333Y-79236066D01*
X148853333Y-79236066D02*
X148853333Y-79036066D01*
X148853333Y-79036066D02*
X148920000Y-78902733D01*
X148920000Y-78902733D02*
X148986667Y-78836066D01*
X148986667Y-78836066D02*
X149120000Y-78769400D01*
X149120000Y-78769400D02*
X149653333Y-78769400D01*
X148320000Y-78169400D02*
X148120000Y-78102733D01*
X148120000Y-78102733D02*
X147786667Y-78102733D01*
X147786667Y-78102733D02*
X147653333Y-78169400D01*
X147653333Y-78169400D02*
X147586667Y-78236066D01*
X147586667Y-78236066D02*
X147520000Y-78369400D01*
X147520000Y-78369400D02*
X147520000Y-78502733D01*
X147520000Y-78502733D02*
X147586667Y-78636066D01*
X147586667Y-78636066D02*
X147653333Y-78702733D01*
X147653333Y-78702733D02*
X147786667Y-78769400D01*
X147786667Y-78769400D02*
X148053333Y-78836066D01*
X148053333Y-78836066D02*
X148186667Y-78902733D01*
X148186667Y-78902733D02*
X148253333Y-78969400D01*
X148253333Y-78969400D02*
X148320000Y-79102733D01*
X148320000Y-79102733D02*
X148320000Y-79236066D01*
X148320000Y-79236066D02*
X148253333Y-79369400D01*
X148253333Y-79369400D02*
X148186667Y-79436066D01*
X148186667Y-79436066D02*
X148053333Y-79502733D01*
X148053333Y-79502733D02*
X147720000Y-79502733D01*
X147720000Y-79502733D02*
X147520000Y-79436066D01*
X146986667Y-79369400D02*
X146920000Y-79436066D01*
X146920000Y-79436066D02*
X146786667Y-79502733D01*
X146786667Y-79502733D02*
X146453334Y-79502733D01*
X146453334Y-79502733D02*
X146320000Y-79436066D01*
X146320000Y-79436066D02*
X146253334Y-79369400D01*
X146253334Y-79369400D02*
X146186667Y-79236066D01*
X146186667Y-79236066D02*
X146186667Y-79102733D01*
X146186667Y-79102733D02*
X146253334Y-78902733D01*
X146253334Y-78902733D02*
X147053334Y-78102733D01*
X147053334Y-78102733D02*
X146186667Y-78102733D01*
X140386666Y-79502733D02*
X139519999Y-79502733D01*
X139519999Y-79502733D02*
X139986666Y-78969400D01*
X139986666Y-78969400D02*
X139786666Y-78969400D01*
X139786666Y-78969400D02*
X139653332Y-78902733D01*
X139653332Y-78902733D02*
X139586666Y-78836066D01*
X139586666Y-78836066D02*
X139519999Y-78702733D01*
X139519999Y-78702733D02*
X139519999Y-78369400D01*
X139519999Y-78369400D02*
X139586666Y-78236066D01*
X139586666Y-78236066D02*
X139653332Y-78169400D01*
X139653332Y-78169400D02*
X139786666Y-78102733D01*
X139786666Y-78102733D02*
X140186666Y-78102733D01*
X140186666Y-78102733D02*
X140319999Y-78169400D01*
X140319999Y-78169400D02*
X140386666Y-78236066D01*
X138919999Y-78102733D02*
X138919999Y-79502733D01*
X150153333Y-51308733D02*
X149686667Y-49908733D01*
X149686667Y-49908733D02*
X149220000Y-51308733D01*
X148486667Y-51308733D02*
X148220000Y-51308733D01*
X148220000Y-51308733D02*
X148086667Y-51242066D01*
X148086667Y-51242066D02*
X147953333Y-51108733D01*
X147953333Y-51108733D02*
X147886667Y-50842066D01*
X147886667Y-50842066D02*
X147886667Y-50375400D01*
X147886667Y-50375400D02*
X147953333Y-50108733D01*
X147953333Y-50108733D02*
X148086667Y-49975400D01*
X148086667Y-49975400D02*
X148220000Y-49908733D01*
X148220000Y-49908733D02*
X148486667Y-49908733D01*
X148486667Y-49908733D02*
X148620000Y-49975400D01*
X148620000Y-49975400D02*
X148753333Y-50108733D01*
X148753333Y-50108733D02*
X148820000Y-50375400D01*
X148820000Y-50375400D02*
X148820000Y-50842066D01*
X148820000Y-50842066D02*
X148753333Y-51108733D01*
X148753333Y-51108733D02*
X148620000Y-51242066D01*
X148620000Y-51242066D02*
X148486667Y-51308733D01*
X147286666Y-49908733D02*
X147286666Y-51308733D01*
X145553332Y-49908733D02*
X145553332Y-51308733D01*
X145553332Y-51308733D02*
X145019999Y-51308733D01*
X145019999Y-51308733D02*
X144886666Y-51242066D01*
X144886666Y-51242066D02*
X144819999Y-51175400D01*
X144819999Y-51175400D02*
X144753332Y-51042066D01*
X144753332Y-51042066D02*
X144753332Y-50842066D01*
X144753332Y-50842066D02*
X144819999Y-50708733D01*
X144819999Y-50708733D02*
X144886666Y-50642066D01*
X144886666Y-50642066D02*
X145019999Y-50575400D01*
X145019999Y-50575400D02*
X145553332Y-50575400D01*
X144219999Y-50308733D02*
X143553332Y-50308733D01*
X144353332Y-49908733D02*
X143886666Y-51308733D01*
X143886666Y-51308733D02*
X143419999Y-49908733D01*
X143153332Y-51308733D02*
X142353332Y-51308733D01*
X142753332Y-49908733D02*
X142753332Y-51308733D01*
X141086665Y-50042066D02*
X141153332Y-49975400D01*
X141153332Y-49975400D02*
X141353332Y-49908733D01*
X141353332Y-49908733D02*
X141486665Y-49908733D01*
X141486665Y-49908733D02*
X141686665Y-49975400D01*
X141686665Y-49975400D02*
X141819999Y-50108733D01*
X141819999Y-50108733D02*
X141886665Y-50242066D01*
X141886665Y-50242066D02*
X141953332Y-50508733D01*
X141953332Y-50508733D02*
X141953332Y-50708733D01*
X141953332Y-50708733D02*
X141886665Y-50975400D01*
X141886665Y-50975400D02*
X141819999Y-51108733D01*
X141819999Y-51108733D02*
X141686665Y-51242066D01*
X141686665Y-51242066D02*
X141486665Y-51308733D01*
X141486665Y-51308733D02*
X141353332Y-51308733D01*
X141353332Y-51308733D02*
X141153332Y-51242066D01*
X141153332Y-51242066D02*
X141086665Y-51175400D01*
X140486665Y-49908733D02*
X140486665Y-51308733D01*
X140486665Y-50642066D02*
X139686665Y-50642066D01*
X139686665Y-49908733D02*
X139686665Y-51308733D01*
D11*
%TO.C,U2*%
X138360000Y-49480000D02*
X138360000Y-80080000D01*
X138360000Y-80080000D02*
X143820000Y-80080000D01*
X145820000Y-80080000D02*
X151280000Y-80080000D01*
X151280000Y-49480000D02*
X138360000Y-49480000D01*
X151280000Y-80080000D02*
X151280000Y-49480000D01*
X143820000Y-80080000D02*
G75*
G02*
X145820000Y-80080000I1000000J0D01*
G01*
%TD*%
M02*
