%TF.GenerationSoftware,KiCad,Pcbnew,8.0.7*%
%TF.CreationDate,2025-03-21T13:40:33-04:00*%
%TF.ProjectId,TRS2_SOU_PATCH,54525332-5f53-44f5-955f-50415443482e,rev?*%
%TF.SameCoordinates,Original*%
%TF.FileFunction,Legend,Bot*%
%TF.FilePolarity,Positive*%
%FSLAX46Y46*%
G04 Gerber Fmt 4.6, Leading zero omitted, Abs format (unit mm)*
G04 Created by KiCad (PCBNEW 8.0.7) date 2025-03-21 13:40:33*
%MOMM*%
%LPD*%
G01*
G04 APERTURE LIST*
%ADD10C,0.200000*%
%ADD11C,0.120000*%
G04 APERTURE END LIST*
D10*
X182232500Y-69132141D02*
X182303929Y-69274999D01*
X182303929Y-69274999D02*
X182303929Y-69489284D01*
X182303929Y-69489284D02*
X182232500Y-69703570D01*
X182232500Y-69703570D02*
X182089643Y-69846427D01*
X182089643Y-69846427D02*
X181946786Y-69917856D01*
X181946786Y-69917856D02*
X181661072Y-69989284D01*
X181661072Y-69989284D02*
X181446786Y-69989284D01*
X181446786Y-69989284D02*
X181161072Y-69917856D01*
X181161072Y-69917856D02*
X181018215Y-69846427D01*
X181018215Y-69846427D02*
X180875358Y-69703570D01*
X180875358Y-69703570D02*
X180803929Y-69489284D01*
X180803929Y-69489284D02*
X180803929Y-69346427D01*
X180803929Y-69346427D02*
X180875358Y-69132141D01*
X180875358Y-69132141D02*
X180946786Y-69060713D01*
X180946786Y-69060713D02*
X181446786Y-69060713D01*
X181446786Y-69060713D02*
X181446786Y-69346427D01*
X181232500Y-68489284D02*
X181232500Y-67774999D01*
X180803929Y-68632141D02*
X182303929Y-68132141D01*
X182303929Y-68132141D02*
X180803929Y-67632141D01*
X180803929Y-66417856D02*
X180803929Y-67132142D01*
X180803929Y-67132142D02*
X182303929Y-67132142D01*
X182161072Y-65989284D02*
X182232500Y-65917856D01*
X182232500Y-65917856D02*
X182303929Y-65774999D01*
X182303929Y-65774999D02*
X182303929Y-65417856D01*
X182303929Y-65417856D02*
X182232500Y-65274999D01*
X182232500Y-65274999D02*
X182161072Y-65203570D01*
X182161072Y-65203570D02*
X182018215Y-65132141D01*
X182018215Y-65132141D02*
X181875358Y-65132141D01*
X181875358Y-65132141D02*
X181661072Y-65203570D01*
X181661072Y-65203570D02*
X180803929Y-66060713D01*
X180803929Y-66060713D02*
X180803929Y-65132141D01*
X182161072Y-64560713D02*
X182232500Y-64489285D01*
X182232500Y-64489285D02*
X182303929Y-64346428D01*
X182303929Y-64346428D02*
X182303929Y-63989285D01*
X182303929Y-63989285D02*
X182232500Y-63846428D01*
X182232500Y-63846428D02*
X182161072Y-63774999D01*
X182161072Y-63774999D02*
X182018215Y-63703570D01*
X182018215Y-63703570D02*
X181875358Y-63703570D01*
X181875358Y-63703570D02*
X181661072Y-63774999D01*
X181661072Y-63774999D02*
X180803929Y-64632142D01*
X180803929Y-64632142D02*
X180803929Y-63703570D01*
X182303929Y-63274999D02*
X180803929Y-62774999D01*
X180803929Y-62774999D02*
X182303929Y-62274999D01*
X180803929Y-60989285D02*
X180803929Y-61846428D01*
X180803929Y-61417857D02*
X182303929Y-61417857D01*
X182303929Y-61417857D02*
X182089643Y-61560714D01*
X182089643Y-61560714D02*
X181946786Y-61703571D01*
X181946786Y-61703571D02*
X181875358Y-61846428D01*
X182303929Y-60060714D02*
X182303929Y-59917857D01*
X182303929Y-59917857D02*
X182232500Y-59775000D01*
X182232500Y-59775000D02*
X182161072Y-59703572D01*
X182161072Y-59703572D02*
X182018215Y-59632143D01*
X182018215Y-59632143D02*
X181732500Y-59560714D01*
X181732500Y-59560714D02*
X181375358Y-59560714D01*
X181375358Y-59560714D02*
X181089643Y-59632143D01*
X181089643Y-59632143D02*
X180946786Y-59703572D01*
X180946786Y-59703572D02*
X180875358Y-59775000D01*
X180875358Y-59775000D02*
X180803929Y-59917857D01*
X180803929Y-59917857D02*
X180803929Y-60060714D01*
X180803929Y-60060714D02*
X180875358Y-60203572D01*
X180875358Y-60203572D02*
X180946786Y-60275000D01*
X180946786Y-60275000D02*
X181089643Y-60346429D01*
X181089643Y-60346429D02*
X181375358Y-60417857D01*
X181375358Y-60417857D02*
X181732500Y-60417857D01*
X181732500Y-60417857D02*
X182018215Y-60346429D01*
X182018215Y-60346429D02*
X182161072Y-60275000D01*
X182161072Y-60275000D02*
X182232500Y-60203572D01*
X182232500Y-60203572D02*
X182303929Y-60060714D01*
X178389013Y-70275000D02*
X179889013Y-70275000D01*
X179889013Y-70275000D02*
X179889013Y-69703571D01*
X179889013Y-69703571D02*
X179817584Y-69560714D01*
X179817584Y-69560714D02*
X179746156Y-69489285D01*
X179746156Y-69489285D02*
X179603299Y-69417857D01*
X179603299Y-69417857D02*
X179389013Y-69417857D01*
X179389013Y-69417857D02*
X179246156Y-69489285D01*
X179246156Y-69489285D02*
X179174727Y-69560714D01*
X179174727Y-69560714D02*
X179103299Y-69703571D01*
X179103299Y-69703571D02*
X179103299Y-70275000D01*
X178389013Y-68132143D02*
X179174727Y-68132143D01*
X179174727Y-68132143D02*
X179317584Y-68203571D01*
X179317584Y-68203571D02*
X179389013Y-68346428D01*
X179389013Y-68346428D02*
X179389013Y-68632143D01*
X179389013Y-68632143D02*
X179317584Y-68775000D01*
X178460442Y-68132143D02*
X178389013Y-68275000D01*
X178389013Y-68275000D02*
X178389013Y-68632143D01*
X178389013Y-68632143D02*
X178460442Y-68775000D01*
X178460442Y-68775000D02*
X178603299Y-68846428D01*
X178603299Y-68846428D02*
X178746156Y-68846428D01*
X178746156Y-68846428D02*
X178889013Y-68775000D01*
X178889013Y-68775000D02*
X178960442Y-68632143D01*
X178960442Y-68632143D02*
X178960442Y-68275000D01*
X178960442Y-68275000D02*
X179031870Y-68132143D01*
X179389013Y-67632142D02*
X179389013Y-67060714D01*
X179889013Y-67417857D02*
X178603299Y-67417857D01*
X178603299Y-67417857D02*
X178460442Y-67346428D01*
X178460442Y-67346428D02*
X178389013Y-67203571D01*
X178389013Y-67203571D02*
X178389013Y-67060714D01*
X178460442Y-65917857D02*
X178389013Y-66060714D01*
X178389013Y-66060714D02*
X178389013Y-66346428D01*
X178389013Y-66346428D02*
X178460442Y-66489285D01*
X178460442Y-66489285D02*
X178531870Y-66560714D01*
X178531870Y-66560714D02*
X178674727Y-66632142D01*
X178674727Y-66632142D02*
X179103299Y-66632142D01*
X179103299Y-66632142D02*
X179246156Y-66560714D01*
X179246156Y-66560714D02*
X179317584Y-66489285D01*
X179317584Y-66489285D02*
X179389013Y-66346428D01*
X179389013Y-66346428D02*
X179389013Y-66060714D01*
X179389013Y-66060714D02*
X179317584Y-65917857D01*
X178389013Y-65275000D02*
X179889013Y-65275000D01*
X178389013Y-64632143D02*
X179174727Y-64632143D01*
X179174727Y-64632143D02*
X179317584Y-64703571D01*
X179317584Y-64703571D02*
X179389013Y-64846428D01*
X179389013Y-64846428D02*
X179389013Y-65060714D01*
X179389013Y-65060714D02*
X179317584Y-65203571D01*
X179317584Y-65203571D02*
X179246156Y-65275000D01*
X178389013Y-62775000D02*
X179889013Y-62775000D01*
X179889013Y-62775000D02*
X179889013Y-62203571D01*
X179889013Y-62203571D02*
X179817584Y-62060714D01*
X179817584Y-62060714D02*
X179746156Y-61989285D01*
X179746156Y-61989285D02*
X179603299Y-61917857D01*
X179603299Y-61917857D02*
X179389013Y-61917857D01*
X179389013Y-61917857D02*
X179246156Y-61989285D01*
X179246156Y-61989285D02*
X179174727Y-62060714D01*
X179174727Y-62060714D02*
X179103299Y-62203571D01*
X179103299Y-62203571D02*
X179103299Y-62775000D01*
X178389013Y-60560714D02*
X178389013Y-61275000D01*
X178389013Y-61275000D02*
X179889013Y-61275000D01*
X178389013Y-60060714D02*
X179889013Y-60060714D01*
X179889013Y-60060714D02*
X179889013Y-59703571D01*
X179889013Y-59703571D02*
X179817584Y-59489285D01*
X179817584Y-59489285D02*
X179674727Y-59346428D01*
X179674727Y-59346428D02*
X179531870Y-59274999D01*
X179531870Y-59274999D02*
X179246156Y-59203571D01*
X179246156Y-59203571D02*
X179031870Y-59203571D01*
X179031870Y-59203571D02*
X178746156Y-59274999D01*
X178746156Y-59274999D02*
X178603299Y-59346428D01*
X178603299Y-59346428D02*
X178460442Y-59489285D01*
X178460442Y-59489285D02*
X178389013Y-59703571D01*
X178389013Y-59703571D02*
X178389013Y-60060714D01*
X166346072Y-75127141D02*
X166417500Y-75055713D01*
X166417500Y-75055713D02*
X166488929Y-74912856D01*
X166488929Y-74912856D02*
X166488929Y-74555713D01*
X166488929Y-74555713D02*
X166417500Y-74412856D01*
X166417500Y-74412856D02*
X166346072Y-74341427D01*
X166346072Y-74341427D02*
X166203215Y-74269998D01*
X166203215Y-74269998D02*
X166060358Y-74269998D01*
X166060358Y-74269998D02*
X165846072Y-74341427D01*
X165846072Y-74341427D02*
X164988929Y-75198570D01*
X164988929Y-75198570D02*
X164988929Y-74269998D01*
X166488929Y-73769999D02*
X166488929Y-72769999D01*
X166488929Y-72769999D02*
X164988929Y-73412856D01*
X164988929Y-71412856D02*
X164988929Y-72269999D01*
X164988929Y-71841428D02*
X166488929Y-71841428D01*
X166488929Y-71841428D02*
X166274643Y-71984285D01*
X166274643Y-71984285D02*
X166131786Y-72127142D01*
X166131786Y-72127142D02*
X166060358Y-72269999D01*
X166488929Y-70127143D02*
X166488929Y-70412857D01*
X166488929Y-70412857D02*
X166417500Y-70555714D01*
X166417500Y-70555714D02*
X166346072Y-70627143D01*
X166346072Y-70627143D02*
X166131786Y-70770000D01*
X166131786Y-70770000D02*
X165846072Y-70841428D01*
X165846072Y-70841428D02*
X165274643Y-70841428D01*
X165274643Y-70841428D02*
X165131786Y-70770000D01*
X165131786Y-70770000D02*
X165060358Y-70698571D01*
X165060358Y-70698571D02*
X164988929Y-70555714D01*
X164988929Y-70555714D02*
X164988929Y-70270000D01*
X164988929Y-70270000D02*
X165060358Y-70127143D01*
X165060358Y-70127143D02*
X165131786Y-70055714D01*
X165131786Y-70055714D02*
X165274643Y-69984285D01*
X165274643Y-69984285D02*
X165631786Y-69984285D01*
X165631786Y-69984285D02*
X165774643Y-70055714D01*
X165774643Y-70055714D02*
X165846072Y-70127143D01*
X165846072Y-70127143D02*
X165917500Y-70270000D01*
X165917500Y-70270000D02*
X165917500Y-70555714D01*
X165917500Y-70555714D02*
X165846072Y-70698571D01*
X165846072Y-70698571D02*
X165774643Y-70770000D01*
X165774643Y-70770000D02*
X165631786Y-70841428D01*
X164417500Y-67770000D02*
X164488929Y-67841429D01*
X164488929Y-67841429D02*
X164703215Y-67984286D01*
X164703215Y-67984286D02*
X164846072Y-68055715D01*
X164846072Y-68055715D02*
X165060358Y-68127143D01*
X165060358Y-68127143D02*
X165417500Y-68198572D01*
X165417500Y-68198572D02*
X165703215Y-68198572D01*
X165703215Y-68198572D02*
X166060358Y-68127143D01*
X166060358Y-68127143D02*
X166274643Y-68055715D01*
X166274643Y-68055715D02*
X166417500Y-67984286D01*
X166417500Y-67984286D02*
X166631786Y-67841429D01*
X166631786Y-67841429D02*
X166703215Y-67770000D01*
X165060358Y-67270000D02*
X164988929Y-67055715D01*
X164988929Y-67055715D02*
X164988929Y-66698572D01*
X164988929Y-66698572D02*
X165060358Y-66555715D01*
X165060358Y-66555715D02*
X165131786Y-66484286D01*
X165131786Y-66484286D02*
X165274643Y-66412857D01*
X165274643Y-66412857D02*
X165417500Y-66412857D01*
X165417500Y-66412857D02*
X165560358Y-66484286D01*
X165560358Y-66484286D02*
X165631786Y-66555715D01*
X165631786Y-66555715D02*
X165703215Y-66698572D01*
X165703215Y-66698572D02*
X165774643Y-66984286D01*
X165774643Y-66984286D02*
X165846072Y-67127143D01*
X165846072Y-67127143D02*
X165917500Y-67198572D01*
X165917500Y-67198572D02*
X166060358Y-67270000D01*
X166060358Y-67270000D02*
X166203215Y-67270000D01*
X166203215Y-67270000D02*
X166346072Y-67198572D01*
X166346072Y-67198572D02*
X166417500Y-67127143D01*
X166417500Y-67127143D02*
X166488929Y-66984286D01*
X166488929Y-66984286D02*
X166488929Y-66627143D01*
X166488929Y-66627143D02*
X166417500Y-66412857D01*
X164988929Y-65770001D02*
X165988929Y-65770001D01*
X166488929Y-65770001D02*
X166417500Y-65841429D01*
X166417500Y-65841429D02*
X166346072Y-65770001D01*
X166346072Y-65770001D02*
X166417500Y-65698572D01*
X166417500Y-65698572D02*
X166488929Y-65770001D01*
X166488929Y-65770001D02*
X166346072Y-65770001D01*
X165988929Y-65055715D02*
X164988929Y-65055715D01*
X165846072Y-65055715D02*
X165917500Y-64984286D01*
X165917500Y-64984286D02*
X165988929Y-64841429D01*
X165988929Y-64841429D02*
X165988929Y-64627143D01*
X165988929Y-64627143D02*
X165917500Y-64484286D01*
X165917500Y-64484286D02*
X165774643Y-64412858D01*
X165774643Y-64412858D02*
X164988929Y-64412858D01*
X165988929Y-63055715D02*
X164774643Y-63055715D01*
X164774643Y-63055715D02*
X164631786Y-63127143D01*
X164631786Y-63127143D02*
X164560358Y-63198572D01*
X164560358Y-63198572D02*
X164488929Y-63341429D01*
X164488929Y-63341429D02*
X164488929Y-63555715D01*
X164488929Y-63555715D02*
X164560358Y-63698572D01*
X165060358Y-63055715D02*
X164988929Y-63198572D01*
X164988929Y-63198572D02*
X164988929Y-63484286D01*
X164988929Y-63484286D02*
X165060358Y-63627143D01*
X165060358Y-63627143D02*
X165131786Y-63698572D01*
X165131786Y-63698572D02*
X165274643Y-63770000D01*
X165274643Y-63770000D02*
X165703215Y-63770000D01*
X165703215Y-63770000D02*
X165846072Y-63698572D01*
X165846072Y-63698572D02*
X165917500Y-63627143D01*
X165917500Y-63627143D02*
X165988929Y-63484286D01*
X165988929Y-63484286D02*
X165988929Y-63198572D01*
X165988929Y-63198572D02*
X165917500Y-63055715D01*
X164988929Y-62127143D02*
X165060358Y-62270000D01*
X165060358Y-62270000D02*
X165203215Y-62341429D01*
X165203215Y-62341429D02*
X166488929Y-62341429D01*
X165060358Y-60984286D02*
X164988929Y-61127143D01*
X164988929Y-61127143D02*
X164988929Y-61412858D01*
X164988929Y-61412858D02*
X165060358Y-61555715D01*
X165060358Y-61555715D02*
X165203215Y-61627143D01*
X165203215Y-61627143D02*
X165774643Y-61627143D01*
X165774643Y-61627143D02*
X165917500Y-61555715D01*
X165917500Y-61555715D02*
X165988929Y-61412858D01*
X165988929Y-61412858D02*
X165988929Y-61127143D01*
X165988929Y-61127143D02*
X165917500Y-60984286D01*
X165917500Y-60984286D02*
X165774643Y-60912858D01*
X165774643Y-60912858D02*
X165631786Y-60912858D01*
X165631786Y-60912858D02*
X165488929Y-61627143D01*
X164988929Y-58270001D02*
X165703215Y-58770001D01*
X164988929Y-59127144D02*
X166488929Y-59127144D01*
X166488929Y-59127144D02*
X166488929Y-58555715D01*
X166488929Y-58555715D02*
X166417500Y-58412858D01*
X166417500Y-58412858D02*
X166346072Y-58341429D01*
X166346072Y-58341429D02*
X166203215Y-58270001D01*
X166203215Y-58270001D02*
X165988929Y-58270001D01*
X165988929Y-58270001D02*
X165846072Y-58341429D01*
X165846072Y-58341429D02*
X165774643Y-58412858D01*
X165774643Y-58412858D02*
X165703215Y-58555715D01*
X165703215Y-58555715D02*
X165703215Y-59127144D01*
X164988929Y-56984287D02*
X165774643Y-56984287D01*
X165774643Y-56984287D02*
X165917500Y-57055715D01*
X165917500Y-57055715D02*
X165988929Y-57198572D01*
X165988929Y-57198572D02*
X165988929Y-57484287D01*
X165988929Y-57484287D02*
X165917500Y-57627144D01*
X165060358Y-56984287D02*
X164988929Y-57127144D01*
X164988929Y-57127144D02*
X164988929Y-57484287D01*
X164988929Y-57484287D02*
X165060358Y-57627144D01*
X165060358Y-57627144D02*
X165203215Y-57698572D01*
X165203215Y-57698572D02*
X165346072Y-57698572D01*
X165346072Y-57698572D02*
X165488929Y-57627144D01*
X165488929Y-57627144D02*
X165560358Y-57484287D01*
X165560358Y-57484287D02*
X165560358Y-57127144D01*
X165560358Y-57127144D02*
X165631786Y-56984287D01*
X164988929Y-56270001D02*
X165988929Y-56270001D01*
X166488929Y-56270001D02*
X166417500Y-56341429D01*
X166417500Y-56341429D02*
X166346072Y-56270001D01*
X166346072Y-56270001D02*
X166417500Y-56198572D01*
X166417500Y-56198572D02*
X166488929Y-56270001D01*
X166488929Y-56270001D02*
X166346072Y-56270001D01*
X164988929Y-55341429D02*
X165060358Y-55484286D01*
X165060358Y-55484286D02*
X165203215Y-55555715D01*
X165203215Y-55555715D02*
X166488929Y-55555715D01*
X164417500Y-54912858D02*
X164488929Y-54841429D01*
X164488929Y-54841429D02*
X164703215Y-54698572D01*
X164703215Y-54698572D02*
X164846072Y-54627144D01*
X164846072Y-54627144D02*
X165060358Y-54555715D01*
X165060358Y-54555715D02*
X165417500Y-54484286D01*
X165417500Y-54484286D02*
X165703215Y-54484286D01*
X165703215Y-54484286D02*
X166060358Y-54555715D01*
X166060358Y-54555715D02*
X166274643Y-54627144D01*
X166274643Y-54627144D02*
X166417500Y-54698572D01*
X166417500Y-54698572D02*
X166631786Y-54841429D01*
X166631786Y-54841429D02*
X166703215Y-54912858D01*
X162645442Y-70877142D02*
X162574013Y-70662857D01*
X162574013Y-70662857D02*
X162574013Y-70305714D01*
X162574013Y-70305714D02*
X162645442Y-70162857D01*
X162645442Y-70162857D02*
X162716870Y-70091428D01*
X162716870Y-70091428D02*
X162859727Y-70019999D01*
X162859727Y-70019999D02*
X163002584Y-70019999D01*
X163002584Y-70019999D02*
X163145442Y-70091428D01*
X163145442Y-70091428D02*
X163216870Y-70162857D01*
X163216870Y-70162857D02*
X163288299Y-70305714D01*
X163288299Y-70305714D02*
X163359727Y-70591428D01*
X163359727Y-70591428D02*
X163431156Y-70734285D01*
X163431156Y-70734285D02*
X163502584Y-70805714D01*
X163502584Y-70805714D02*
X163645442Y-70877142D01*
X163645442Y-70877142D02*
X163788299Y-70877142D01*
X163788299Y-70877142D02*
X163931156Y-70805714D01*
X163931156Y-70805714D02*
X164002584Y-70734285D01*
X164002584Y-70734285D02*
X164074013Y-70591428D01*
X164074013Y-70591428D02*
X164074013Y-70234285D01*
X164074013Y-70234285D02*
X164002584Y-70019999D01*
X162574013Y-69162857D02*
X162645442Y-69305714D01*
X162645442Y-69305714D02*
X162716870Y-69377143D01*
X162716870Y-69377143D02*
X162859727Y-69448571D01*
X162859727Y-69448571D02*
X163288299Y-69448571D01*
X163288299Y-69448571D02*
X163431156Y-69377143D01*
X163431156Y-69377143D02*
X163502584Y-69305714D01*
X163502584Y-69305714D02*
X163574013Y-69162857D01*
X163574013Y-69162857D02*
X163574013Y-68948571D01*
X163574013Y-68948571D02*
X163502584Y-68805714D01*
X163502584Y-68805714D02*
X163431156Y-68734286D01*
X163431156Y-68734286D02*
X163288299Y-68662857D01*
X163288299Y-68662857D02*
X162859727Y-68662857D01*
X162859727Y-68662857D02*
X162716870Y-68734286D01*
X162716870Y-68734286D02*
X162645442Y-68805714D01*
X162645442Y-68805714D02*
X162574013Y-68948571D01*
X162574013Y-68948571D02*
X162574013Y-69162857D01*
X163574013Y-67377143D02*
X162574013Y-67377143D01*
X163574013Y-68020000D02*
X162788299Y-68020000D01*
X162788299Y-68020000D02*
X162645442Y-67948571D01*
X162645442Y-67948571D02*
X162574013Y-67805714D01*
X162574013Y-67805714D02*
X162574013Y-67591428D01*
X162574013Y-67591428D02*
X162645442Y-67448571D01*
X162645442Y-67448571D02*
X162716870Y-67377143D01*
X163574013Y-66662857D02*
X162574013Y-66662857D01*
X163431156Y-66662857D02*
X163502584Y-66591428D01*
X163502584Y-66591428D02*
X163574013Y-66448571D01*
X163574013Y-66448571D02*
X163574013Y-66234285D01*
X163574013Y-66234285D02*
X163502584Y-66091428D01*
X163502584Y-66091428D02*
X163359727Y-66020000D01*
X163359727Y-66020000D02*
X162574013Y-66020000D01*
X162574013Y-64662857D02*
X164074013Y-64662857D01*
X162645442Y-64662857D02*
X162574013Y-64805714D01*
X162574013Y-64805714D02*
X162574013Y-65091428D01*
X162574013Y-65091428D02*
X162645442Y-65234285D01*
X162645442Y-65234285D02*
X162716870Y-65305714D01*
X162716870Y-65305714D02*
X162859727Y-65377142D01*
X162859727Y-65377142D02*
X163288299Y-65377142D01*
X163288299Y-65377142D02*
X163431156Y-65305714D01*
X163431156Y-65305714D02*
X163502584Y-65234285D01*
X163502584Y-65234285D02*
X163574013Y-65091428D01*
X163574013Y-65091428D02*
X163574013Y-64805714D01*
X163574013Y-64805714D02*
X163502584Y-64662857D01*
X162574013Y-61948571D02*
X163288299Y-62448571D01*
X162574013Y-62805714D02*
X164074013Y-62805714D01*
X164074013Y-62805714D02*
X164074013Y-62234285D01*
X164074013Y-62234285D02*
X164002584Y-62091428D01*
X164002584Y-62091428D02*
X163931156Y-62019999D01*
X163931156Y-62019999D02*
X163788299Y-61948571D01*
X163788299Y-61948571D02*
X163574013Y-61948571D01*
X163574013Y-61948571D02*
X163431156Y-62019999D01*
X163431156Y-62019999D02*
X163359727Y-62091428D01*
X163359727Y-62091428D02*
X163288299Y-62234285D01*
X163288299Y-62234285D02*
X163288299Y-62805714D01*
X164074013Y-61019999D02*
X164074013Y-60734285D01*
X164074013Y-60734285D02*
X164002584Y-60591428D01*
X164002584Y-60591428D02*
X163859727Y-60448571D01*
X163859727Y-60448571D02*
X163574013Y-60377142D01*
X163574013Y-60377142D02*
X163074013Y-60377142D01*
X163074013Y-60377142D02*
X162788299Y-60448571D01*
X162788299Y-60448571D02*
X162645442Y-60591428D01*
X162645442Y-60591428D02*
X162574013Y-60734285D01*
X162574013Y-60734285D02*
X162574013Y-61019999D01*
X162574013Y-61019999D02*
X162645442Y-61162857D01*
X162645442Y-61162857D02*
X162788299Y-61305714D01*
X162788299Y-61305714D02*
X163074013Y-61377142D01*
X163074013Y-61377142D02*
X163574013Y-61377142D01*
X163574013Y-61377142D02*
X163859727Y-61305714D01*
X163859727Y-61305714D02*
X164002584Y-61162857D01*
X164002584Y-61162857D02*
X164074013Y-61019999D01*
X162574013Y-59734285D02*
X164074013Y-59734285D01*
X164074013Y-59734285D02*
X163002584Y-59234285D01*
X163002584Y-59234285D02*
X164074013Y-58734285D01*
X164074013Y-58734285D02*
X162574013Y-58734285D01*
D11*
%TO.C,U1*%
X175150000Y-49420000D02*
X175150000Y-80140000D01*
X175150000Y-80140000D02*
X185430000Y-80140000D01*
X177640000Y-49480000D02*
X177640000Y-80080000D01*
X177640000Y-80080000D02*
X179290000Y-80080000D01*
X181290000Y-80080000D02*
X182940000Y-80080000D01*
X182940000Y-49480000D02*
X177640000Y-49480000D01*
X182940000Y-80080000D02*
X182940000Y-49480000D01*
X185430000Y-49420000D02*
X175150000Y-49420000D01*
X185430000Y-80140000D02*
X185430000Y-49420000D01*
X179290000Y-80080000D02*
G75*
G02*
X181290000Y-80080000I1000000J0D01*
G01*
%TO.C,U3*%
X155510000Y-49420000D02*
X155510000Y-80140000D01*
X155510000Y-80140000D02*
X173410000Y-80140000D01*
X158000000Y-49480000D02*
X158000000Y-80080000D01*
X158000000Y-80080000D02*
X163460000Y-80080000D01*
X165460000Y-80080000D02*
X170920000Y-80080000D01*
X170920000Y-49480000D02*
X158000000Y-49480000D01*
X170920000Y-80080000D02*
X170920000Y-49480000D01*
X173410000Y-49420000D02*
X155510000Y-49420000D01*
X173410000Y-80140000D02*
X173410000Y-49420000D01*
X163460000Y-80080000D02*
G75*
G02*
X165460000Y-80080000I1000000J0D01*
G01*
%TD*%
M02*
