%TF.GenerationSoftware,KiCad,Pcbnew,8.0.7*%
%TF.CreationDate,2025-03-21T13:40:33-04:00*%
%TF.ProjectId,TRS2_SOU_PATCH,54525332-5f53-44f5-955f-50415443482e,rev?*%
%TF.SameCoordinates,Original*%
%TF.FileFunction,Copper,L2,Bot*%
%TF.FilePolarity,Positive*%
%FSLAX46Y46*%
G04 Gerber Fmt 4.6, Leading zero omitted, Abs format (unit mm)*
G04 Created by KiCad (PCBNEW 8.0.7) date 2025-03-21 13:40:33*
%MOMM*%
%LPD*%
G01*
G04 APERTURE LIST*
%TA.AperFunction,ComponentPad*%
%ADD10R,1.600000X1.600000*%
%TD*%
%TA.AperFunction,ComponentPad*%
%ADD11O,1.600000X1.600000*%
%TD*%
%TA.AperFunction,ViaPad*%
%ADD12C,0.600000*%
%TD*%
%TA.AperFunction,Conductor*%
%ADD13C,0.200000*%
%TD*%
%TA.AperFunction,Conductor*%
%ADD14C,0.400000*%
%TD*%
G04 APERTURE END LIST*
D10*
%TO.P,U2,1,A7*%
%TO.N,/A7*%
X152440000Y-78750000D03*
D11*
%TO.P,U2,2,A6*%
%TO.N,/A6*%
X152440000Y-76210000D03*
%TO.P,U2,3,A5*%
%TO.N,/A5*%
X152440000Y-73670000D03*
%TO.P,U2,4,A4*%
%TO.N,/A4*%
X152440000Y-71130000D03*
%TO.P,U2,5,A3*%
%TO.N,/A3*%
X152440000Y-68590000D03*
%TO.P,U2,6,A2*%
%TO.N,/A2*%
X152440000Y-66050000D03*
%TO.P,U2,7,A1*%
%TO.N,/A1*%
X152440000Y-63510000D03*
%TO.P,U2,8,A0*%
%TO.N,/A0*%
X152440000Y-60970000D03*
%TO.P,U2,9,D0*%
%TO.N,/D0*%
X152440000Y-58430000D03*
%TO.P,U2,10,D1*%
%TO.N,/D1*%
X152440000Y-55890000D03*
%TO.P,U2,11,D2*%
%TO.N,/D2*%
X152440000Y-53350000D03*
%TO.P,U2,12,GND*%
%TO.N,GND*%
X152440000Y-50810000D03*
%TO.P,U2,13,D3*%
%TO.N,/D3*%
X137200000Y-50810000D03*
%TO.P,U2,14,D4*%
%TO.N,/D4*%
X137200000Y-53350000D03*
%TO.P,U2,15,D5*%
%TO.N,/D5*%
X137200000Y-55890000D03*
%TO.P,U2,16,D6*%
%TO.N,/D6*%
X137200000Y-58430000D03*
%TO.P,U2,17,D7*%
%TO.N,/D7*%
X137200000Y-60970000D03*
%TO.P,U2,18,CE*%
%TO.N,unconnected-(U2-CE-Pad18)*%
X137200000Y-63510000D03*
%TO.P,U2,19,A10*%
%TO.N,/A10*%
X137200000Y-66050000D03*
%TO.P,U2,20,OE*%
%TO.N,/OE*%
X137200000Y-68590000D03*
%TO.P,U2,21,Vpp*%
%TO.N,unconnected-(U2-Vpp-Pad21)*%
X137200000Y-71130000D03*
%TO.P,U2,22,A9*%
%TO.N,/A9*%
X137200000Y-73670000D03*
%TO.P,U2,23,A8*%
%TO.N,/A8*%
X137200000Y-76210000D03*
%TO.P,U2,24,Vcc*%
%TO.N,+5V*%
X137200000Y-78750000D03*
%TD*%
D10*
%TO.P,U1,1,I/CLK*%
%TO.N,/A7*%
X176480000Y-78750000D03*
D11*
%TO.P,U1,2,I*%
%TO.N,/A6*%
X176480000Y-76210000D03*
%TO.P,U1,3,I*%
%TO.N,/A5*%
X176480000Y-73670000D03*
%TO.P,U1,4,I*%
%TO.N,/A4*%
X176480000Y-71130000D03*
%TO.P,U1,5,I*%
%TO.N,/A3*%
X176480000Y-68590000D03*
%TO.P,U1,6,I*%
%TO.N,/A2*%
X176480000Y-66050000D03*
%TO.P,U1,7,I*%
%TO.N,/A1*%
X176480000Y-63510000D03*
%TO.P,U1,8,I*%
%TO.N,/A0*%
X176480000Y-60970000D03*
%TO.P,U1,9,I*%
%TO.N,/A10*%
X176480000Y-58430000D03*
%TO.P,U1,10,I*%
%TO.N,/A9*%
X176480000Y-55890000D03*
%TO.P,U1,11,I*%
%TO.N,/A8*%
X176480000Y-53350000D03*
%TO.P,U1,12,GND*%
%TO.N,GND*%
X176480000Y-50810000D03*
%TO.P,U1,13,I*%
%TO.N,/OE*%
X184100000Y-50810000D03*
%TO.P,U1,14,I/O*%
%TO.N,/D2*%
X184100000Y-53350000D03*
%TO.P,U1,15,I/O*%
%TO.N,/D1*%
X184100000Y-55890000D03*
%TO.P,U1,16,I/O*%
%TO.N,/D0*%
X184100000Y-58430000D03*
%TO.P,U1,17,I/O*%
%TO.N,/D3*%
X184100000Y-60970000D03*
%TO.P,U1,18,I/O*%
%TO.N,/D4*%
X184100000Y-63510000D03*
%TO.P,U1,19,I/O*%
%TO.N,/D5*%
X184100000Y-66050000D03*
%TO.P,U1,20,I/O*%
%TO.N,/D6*%
X184100000Y-68590000D03*
%TO.P,U1,21,I/O*%
%TO.N,/D7*%
X184100000Y-71130000D03*
%TO.P,U1,22,I/O*%
%TO.N,unconnected-(U1-I{slash}O-Pad22)*%
X184100000Y-73670000D03*
%TO.P,U1,23,I/O*%
%TO.N,/CE2*%
X184100000Y-76210000D03*
%TO.P,U1,24,Vcc*%
%TO.N,+5V*%
X184100000Y-78750000D03*
%TD*%
D10*
%TO.P,U3,1,A7*%
%TO.N,/A7*%
X156840000Y-78750000D03*
D11*
%TO.P,U3,2,A6*%
%TO.N,/A6*%
X156840000Y-76210000D03*
%TO.P,U3,3,A5*%
%TO.N,/A5*%
X156840000Y-73670000D03*
%TO.P,U3,4,A4*%
%TO.N,/A4*%
X156840000Y-71130000D03*
%TO.P,U3,5,A3*%
%TO.N,/A3*%
X156840000Y-68590000D03*
%TO.P,U3,6,A2*%
%TO.N,/A2*%
X156840000Y-66050000D03*
%TO.P,U3,7,A1*%
%TO.N,/A1*%
X156840000Y-63510000D03*
%TO.P,U3,8,A0*%
%TO.N,/A0*%
X156840000Y-60970000D03*
%TO.P,U3,9,D0*%
%TO.N,/D0*%
X156840000Y-58430000D03*
%TO.P,U3,10,D1*%
%TO.N,/D1*%
X156840000Y-55890000D03*
%TO.P,U3,11,D2*%
%TO.N,/D2*%
X156840000Y-53350000D03*
%TO.P,U3,12,GND*%
%TO.N,GND*%
X156840000Y-50810000D03*
%TO.P,U3,13,D3*%
%TO.N,/D3*%
X172080000Y-50810000D03*
%TO.P,U3,14,D4*%
%TO.N,/D4*%
X172080000Y-53350000D03*
%TO.P,U3,15,D5*%
%TO.N,/D5*%
X172080000Y-55890000D03*
%TO.P,U3,16,D6*%
%TO.N,/D6*%
X172080000Y-58430000D03*
%TO.P,U3,17,D7*%
%TO.N,/D7*%
X172080000Y-60970000D03*
%TO.P,U3,18,CE*%
%TO.N,/CE2*%
X172080000Y-63510000D03*
%TO.P,U3,19,A10*%
%TO.N,/A10*%
X172080000Y-66050000D03*
%TO.P,U3,20,OE*%
%TO.N,/OE*%
X172080000Y-68590000D03*
%TO.P,U3,21,Vpp*%
%TO.N,+5V*%
X172080000Y-71130000D03*
%TO.P,U3,22,A9*%
%TO.N,/A9*%
X172080000Y-73670000D03*
%TO.P,U3,23,A8*%
%TO.N,/A8*%
X172080000Y-76210000D03*
%TO.P,U3,24,Vcc*%
%TO.N,+5V*%
X172080000Y-78750000D03*
%TD*%
D12*
%TO.N,/OE*%
X168275000Y-68580000D03*
X168275000Y-50292000D03*
%TD*%
D13*
%TO.N,/A9*%
X169653000Y-72625000D02*
X169653000Y-55518000D01*
X172080000Y-73670000D02*
X170698000Y-73670000D01*
X173482000Y-54610000D02*
X174762000Y-55890000D01*
X170698000Y-73670000D02*
X169653000Y-72625000D01*
X169653000Y-55518000D02*
X170561000Y-54610000D01*
X170561000Y-54610000D02*
X173482000Y-54610000D01*
X174762000Y-55890000D02*
X176480000Y-55890000D01*
D14*
%TO.N,GND*%
X156840000Y-50810000D02*
X152440000Y-50810000D01*
X162423000Y-50810000D02*
X156840000Y-50810000D01*
X173609000Y-49530000D02*
X163703000Y-49530000D01*
X176480000Y-50810000D02*
X174889000Y-50810000D01*
X163703000Y-49530000D02*
X162423000Y-50810000D01*
X174889000Y-50810000D02*
X173609000Y-49530000D01*
D13*
%TO.N,/CE2*%
X174752000Y-64770000D02*
X173492000Y-63510000D01*
X184100000Y-76210000D02*
X182636000Y-76210000D01*
X182636000Y-76210000D02*
X180118000Y-73692000D01*
X178562000Y-64770000D02*
X174752000Y-64770000D01*
X180118000Y-66326000D02*
X178562000Y-64770000D01*
X180118000Y-73692000D02*
X180118000Y-66326000D01*
X173492000Y-63510000D02*
X172080000Y-63510000D01*
%TO.N,/A8*%
X173482000Y-52070000D02*
X170688000Y-52070000D01*
X170698000Y-76210000D02*
X172080000Y-76210000D01*
X169253000Y-53505000D02*
X169253000Y-74765000D01*
X169253000Y-74765000D02*
X170698000Y-76210000D01*
X174762000Y-53350000D02*
X173482000Y-52070000D01*
X176480000Y-53350000D02*
X174762000Y-53350000D01*
X170688000Y-52070000D02*
X169253000Y-53505000D01*
%TO.N,/A10*%
X170053000Y-65405000D02*
X170053000Y-57785000D01*
X174762000Y-58430000D02*
X176480000Y-58430000D01*
X170688000Y-57150000D02*
X173482000Y-57150000D01*
X170053000Y-57785000D02*
X170688000Y-57150000D01*
X172080000Y-66050000D02*
X170698000Y-66050000D01*
X170698000Y-66050000D02*
X170053000Y-65405000D01*
X173482000Y-57150000D02*
X174762000Y-58430000D01*
D14*
%TO.N,+5V*%
X144008000Y-78750000D02*
X137200000Y-78750000D01*
X173360000Y-77470000D02*
X172080000Y-78750000D01*
X174752000Y-77470000D02*
X173990000Y-76708000D01*
X173990000Y-76708000D02*
X173990000Y-71882000D01*
X164037000Y-77550000D02*
X145208000Y-77550000D01*
X184100000Y-78750000D02*
X180858000Y-78750000D01*
X145208000Y-77550000D02*
X144008000Y-78750000D01*
X173238000Y-71130000D02*
X172080000Y-71130000D01*
X173990000Y-71882000D02*
X173238000Y-71130000D01*
X180858000Y-78750000D02*
X179578000Y-77470000D01*
X172080000Y-78750000D02*
X165237000Y-78750000D01*
X165237000Y-78750000D02*
X164037000Y-77550000D01*
X179578000Y-77470000D02*
X174752000Y-77470000D01*
X174752000Y-77470000D02*
X173360000Y-77470000D01*
D13*
%TO.N,/D7*%
X174752000Y-62230000D02*
X173492000Y-60970000D01*
X184100000Y-71130000D02*
X182636000Y-71130000D01*
X180518000Y-63424000D02*
X179324000Y-62230000D01*
X179324000Y-62230000D02*
X174752000Y-62230000D01*
X173492000Y-60970000D02*
X172080000Y-60970000D01*
X182636000Y-71130000D02*
X180518000Y-69012000D01*
X180518000Y-69012000D02*
X180518000Y-63424000D01*
%TO.N,/D4*%
X184100000Y-63510000D02*
X182636000Y-63510000D01*
X181718000Y-56115000D02*
X180213000Y-54610000D01*
X180213000Y-54610000D02*
X174752000Y-54610000D01*
X173492000Y-53350000D02*
X172080000Y-53350000D01*
X182636000Y-63510000D02*
X181718000Y-62592000D01*
X174752000Y-54610000D02*
X173492000Y-53350000D01*
X181718000Y-62592000D02*
X181718000Y-56115000D01*
%TO.N,/OE*%
X168275000Y-68453000D02*
X168275000Y-51562000D01*
X168275000Y-51562000D02*
X168275000Y-50292000D01*
X168275000Y-68580000D02*
X168275000Y-68453000D01*
%TO.N,/D3*%
X181229000Y-52070000D02*
X182118000Y-52959000D01*
X172080000Y-50810000D02*
X173492000Y-50810000D01*
X174752000Y-52070000D02*
X181229000Y-52070000D01*
X182118000Y-60452000D02*
X182636000Y-60970000D01*
X173492000Y-50810000D02*
X174752000Y-52070000D01*
X182636000Y-60970000D02*
X184100000Y-60970000D01*
X182118000Y-52959000D02*
X182118000Y-60452000D01*
%TO.N,/D5*%
X182636000Y-66050000D02*
X181318000Y-64732000D01*
X180340000Y-57150000D02*
X174752000Y-57150000D01*
X184100000Y-66050000D02*
X182636000Y-66050000D01*
X174752000Y-57150000D02*
X173492000Y-55890000D01*
X181318000Y-58128000D02*
X180340000Y-57150000D01*
X181318000Y-64732000D02*
X181318000Y-58128000D01*
X173492000Y-55890000D02*
X172080000Y-55890000D01*
%TO.N,/D6*%
X184100000Y-68590000D02*
X182636000Y-68590000D01*
X173492000Y-58430000D02*
X172080000Y-58430000D01*
X182636000Y-68590000D02*
X180918000Y-66872000D01*
X179959000Y-59690000D02*
X174752000Y-59690000D01*
X174752000Y-59690000D02*
X173492000Y-58430000D01*
X180918000Y-66872000D02*
X180918000Y-60649000D01*
X180918000Y-60649000D02*
X179959000Y-59690000D01*
%TD*%
M02*
