%TF.GenerationSoftware,KiCad,Pcbnew,8.0.7*%
%TF.CreationDate,2025-03-21T13:40:33-04:00*%
%TF.ProjectId,TRS2_SOU_PATCH,54525332-5f53-44f5-955f-50415443482e,rev?*%
%TF.SameCoordinates,Original*%
%TF.FileFunction,Soldermask,Bot*%
%TF.FilePolarity,Negative*%
%FSLAX46Y46*%
G04 Gerber Fmt 4.6, Leading zero omitted, Abs format (unit mm)*
G04 Created by KiCad (PCBNEW 8.0.7) date 2025-03-21 13:40:33*
%MOMM*%
%LPD*%
G01*
G04 APERTURE LIST*
%ADD10R,1.600000X1.600000*%
%ADD11O,1.600000X1.600000*%
G04 APERTURE END LIST*
D10*
%TO.C,U2*%
X152440000Y-78750000D03*
D11*
X152440000Y-76210000D03*
X152440000Y-73670000D03*
X152440000Y-71130000D03*
X152440000Y-68590000D03*
X152440000Y-66050000D03*
X152440000Y-63510000D03*
X152440000Y-60970000D03*
X152440000Y-58430000D03*
X152440000Y-55890000D03*
X152440000Y-53350000D03*
X152440000Y-50810000D03*
X137200000Y-50810000D03*
X137200000Y-53350000D03*
X137200000Y-55890000D03*
X137200000Y-58430000D03*
X137200000Y-60970000D03*
X137200000Y-63510000D03*
X137200000Y-66050000D03*
X137200000Y-68590000D03*
X137200000Y-71130000D03*
X137200000Y-73670000D03*
X137200000Y-76210000D03*
X137200000Y-78750000D03*
%TD*%
D10*
%TO.C,U1*%
X176480000Y-78750000D03*
D11*
X176480000Y-76210000D03*
X176480000Y-73670000D03*
X176480000Y-71130000D03*
X176480000Y-68590000D03*
X176480000Y-66050000D03*
X176480000Y-63510000D03*
X176480000Y-60970000D03*
X176480000Y-58430000D03*
X176480000Y-55890000D03*
X176480000Y-53350000D03*
X176480000Y-50810000D03*
X184100000Y-50810000D03*
X184100000Y-53350000D03*
X184100000Y-55890000D03*
X184100000Y-58430000D03*
X184100000Y-60970000D03*
X184100000Y-63510000D03*
X184100000Y-66050000D03*
X184100000Y-68590000D03*
X184100000Y-71130000D03*
X184100000Y-73670000D03*
X184100000Y-76210000D03*
X184100000Y-78750000D03*
%TD*%
D10*
%TO.C,U3*%
X156840000Y-78750000D03*
D11*
X156840000Y-76210000D03*
X156840000Y-73670000D03*
X156840000Y-71130000D03*
X156840000Y-68590000D03*
X156840000Y-66050000D03*
X156840000Y-63510000D03*
X156840000Y-60970000D03*
X156840000Y-58430000D03*
X156840000Y-55890000D03*
X156840000Y-53350000D03*
X156840000Y-50810000D03*
X172080000Y-50810000D03*
X172080000Y-53350000D03*
X172080000Y-55890000D03*
X172080000Y-58430000D03*
X172080000Y-60970000D03*
X172080000Y-63510000D03*
X172080000Y-66050000D03*
X172080000Y-68590000D03*
X172080000Y-71130000D03*
X172080000Y-73670000D03*
X172080000Y-76210000D03*
X172080000Y-78750000D03*
%TD*%
M02*
